<svg version="1.1" xmlns="http://www.w3.org/2000/svg" width="24" height="24" viewBox="0 0 24 24">
    <title>pastille-erreur</title>
    <path fill="currentColor" d="M12 0.923c-6.118 0-11.077 4.959-11.077 11.077s4.959 11.077 11.077 11.077c6.118 0 11.077-4.959 11.077-11.077s-4.959-11.077-11.077-11.077zM16.8 15.508c0.163 0.166 0.264 0.394 0.264 0.646s-0.101 0.48-0.264 0.646c-0.166 0.163-0.394 0.264-0.646 0.264s-0.48-0.101-0.646-0.264l-3.508-3.508-3.508 3.508c-0.166 0.163-0.395 0.264-0.646 0.264s-0.48-0.101-0.646-0.264c-0.163-0.166-0.264-0.394-0.264-0.646s0.101-0.48 0.264-0.646l3.508-3.508-3.508-3.508c-0.115-0.152-0.185-0.345-0.185-0.554 0-0.51 0.413-0.923 0.923-0.923 0.209 0 0.402 0.069 0.556 0.186l3.505 3.506 3.508-3.508c0.152-0.115 0.345-0.185 0.554-0.185 0.51 0 0.923 0.413 0.923 0.923 0 0.209-0.069 0.402-0.186 0.556l-3.506 3.505z"></path>
    <path fill="#fff" d="M16.8 7.2c-0.166-0.163-0.394-0.264-0.646-0.264s-0.48 0.101-0.646 0.264l-3.508 3.508-3.508-3.508c-0.152-0.115-0.345-0.185-0.554-0.185-0.51 0-0.923 0.413-0.923 0.923 0 0.209 0.069 0.402 0.186 0.556l3.506 3.505-3.508 3.508c-0.163 0.166-0.264 0.394-0.264 0.646s0.101 0.48 0.264 0.646c0.166 0.163 0.394 0.264 0.646 0.264s0.48-0.101 0.646-0.264l3.508-3.508 3.508 3.508c0.166 0.163 0.394 0.264 0.646 0.264s0.48-0.101 0.646-0.264c0.163-0.166 0.264-0.394 0.264-0.646s-0.101-0.48-0.264-0.646l-3.508-3.508 3.508-3.508c0.163-0.166 0.264-0.394 0.264-0.646s-0.101-0.48-0.264-0.646z"></path>
</svg>
