
<svg version="1.1" xmlns="http://www.w3.org/2000/svg" width="24" height="24" viewBox="0 0 24 24">
    <title>pastille-attention</title>
    <path fill="currentColor" d="M23.077 22.431l-10.615-21.231c-0.076-0.155-0.234-0.26-0.415-0.26s-0.339 0.105-0.414 0.258l-10.709 21.233c-0.039 0.066-0.062 0.146-0.062 0.231s0.023 0.165 0.063 0.233l0.368 0.182h21.231l0.369-0.185c0.117-0.085 0.193-0.221 0.193-0.375 0-0.031-0.003-0.060-0.009-0.089zM11.077 7.938c0-0.51 0.413-0.923 0.923-0.923s0.923 0.413 0.923 0.923v7.385c0 0.51-0.413 0.923-0.923 0.923s-0.923-0.413-0.923-0.923zM12 20.954c-0.765 0-1.385-0.62-1.385-1.385s0.62-1.385 1.385-1.385c0.765 0 1.385 0.62 1.385 1.385s-0.62 1.385-1.385 1.385z"></path>
    <path fill="#fff" d="M12 16.246c0.51 0 0.923-0.413 0.923-0.923v-7.385c0-0.51-0.413-0.923-0.923-0.923s-0.923 0.413-0.923 0.923v7.385c0 0.51 0.413 0.923 0.923 0.923z"></path>
    <path fill="#fff" d="M13.385 19.477c0 0.765-0.62 1.385-1.385 1.385s-1.385-0.62-1.385-1.385c0-0.765 0.62-1.385 1.385-1.385s1.385 0.62 1.385 1.385z"></path>
</svg>
