<svg version="1.1" xmlns="http://www.w3.org/2000/svg" width="24" height="24" viewBox="0 0 24 24">
    <title>pastille-crochet</title>
    <path fill="currentColor" d="M12 0.923c-6.118 0-11.077 4.959-11.077 11.077s4.959 11.077 11.077 11.077c6.118 0 11.077-4.959 11.077-11.077s-4.959-11.077-11.077-11.077zM17.262 9.415v0l-6.923 6.462c-0.165 0.168-0.393 0.273-0.645 0.277-0.254-0.004-0.482-0.109-0.647-0.277l-2.308-2.308c-0.163-0.166-0.264-0.395-0.264-0.646s0.101-0.48 0.264-0.646c0.166-0.163 0.394-0.264 0.646-0.264s0.48 0.101 0.646 0.264l1.661 1.661 6.277-5.815c0.169-0.158 0.396-0.255 0.646-0.255 0.523 0 0.947 0.424 0.947 0.947 0 0.273-0.116 0.519-0.3 0.692z"></path>
    <path fill="#fff" d="M15.969 8.123l-6.277 5.815-1.662-1.662c-0.166-0.163-0.395-0.264-0.646-0.264s-0.48 0.101-0.646 0.264c-0.163 0.166-0.264 0.394-0.264 0.646s0.101 0.48 0.264 0.646l2.308 2.308c0.165 0.168 0.393 0.273 0.645 0.277 0.254-0.004 0.482-0.109 0.647-0.277l6.923-6.462c0.185-0.173 0.301-0.419 0.301-0.692 0-0.523-0.424-0.947-0.947-0.947-0.25 0-0.477 0.097-0.647 0.255z"></path>
</svg>
