<svg>
    <symbol id="default" viewBox="0 0 24 24">
        <line fill="none" stroke="currentColor" stroke-linecap="round" stroke-linejoin="round" x1="0.6" y1="0.6" x2="23.4" y2="23.4"/>
        <line fill="none" stroke="currentColor" stroke-linecap="round" stroke-linejoin="round" x1="23.4" y1="0.6" x2="0.6" y2="23.4"/>
    </symbol>
    <symbol id="arrow" viewBox="0 0 24 24">
        <polygon fill="currentColor" points="7,24 7,0 19,12 "/>
    </symbol>
    <symbol id="calendar" viewBox="0 0 24 24">
        <g stroke="currentColor" fill="none">
            <path d="M9.1,3.4"/>
            <polyline points="17.8,3.4 23.5,3.4 23.5,23.5 0.5,23.5 0.5,3.4 6.2,3.4 	"/>
            <line x1="9.1" y1="3.4" x2="14.9" y2="3.4"/>
            <rect x="6.2" y="0.5" width="2.9" height="4.8"/>
            <rect x="14.9" y="0.5" width="2.9" height="4.8"/>
            <line x1="8.2" y1="8.2" x2="8.2" y2="23.5"/>
            <line x1="15.8" y1="8.2" x2="15.8" y2="23.5"/>
            <line x1="0.5" y1="8.2" x2="23.5" y2="8.2"/>
            <line x1="0.5" y1="15.8" x2="23.5" y2="15.8"/>
        </g>
    </symbol>
    <symbol id="check" viewBox="0 0 24 24">
        <circle stroke="currentColor" fill="none" stroke-miterlimit="10" cx="12" cy="12" r="11.5"/>
        <path fill="currentColor" d="M16,8.1l-6.3,5.8L8,12.3C7.9,12.1,7.6,12,7.4,12s-0.5,0.1-0.6,0.3c-0.2,0.2-0.3,0.4-0.3,0.6s0.1,0.5,0.3,0.6L9,15.9
        c0.2,0.2,0.4,0.3,0.6,0.3c0.3,0,0.5-0.1,0.6-0.3l6.9-6.5c0.2-0.2,0.3-0.4,0.3-0.7c0-0.5-0.4-0.9-0.9-0.9C16.4,7.8,16.1,7.9,16,8.1
        L16,8.1z"/>
    </symbol>
    <symbol id="chevron" viewBox="0 0 24 24">
        <polyline stroke="currentColor" fill="none" stroke-linecap="round" stroke-linejoin="round" points="6.2,23.5 17.8,11.9 6.5,0.5 "/>
    </symbol>
    <symbol id="chip-check" viewBox="0 0 24 24">
        <circle fill="currentColor" cx="12" cy="12" r="12"/>
        <path fill="#fff" d="M16,8.1l-6.3,5.8L8,12.3C7.9,12.1,7.6,12,7.4,12s-0.5,0.1-0.6,0.3c-0.2,0.2-0.3,0.4-0.3,0.6s0.1,0.5,0.3,0.6
            L9,15.9c0.2,0.2,0.4,0.3,0.6,0.3c0.3,0,0.5-0.1,0.6-0.3l6.9-6.5c0.2-0.2,0.3-0.4,0.3-0.7c0-0.5-0.4-0.9-0.9-0.9
            C16.4,7.8,16.1,7.9,16,8.1L16,8.1z"/>
    </symbol>
    <symbol id="chip-close" viewBox="0 0 24 24">
        <circle fill="currentColor" cx="12" cy="12" r="12"/>
        <path fill="#fff" d="M13.1,12l4.4-4.4c0.3-0.3,0.3-0.8,0-1.1s-0.8-0.3-1.1,0L12,10.9L7.6,6.6c-0.3-0.3-0.8-0.3-1.1,0s-0.3,0.8,0,1.1
            l4.4,4.4l-4.4,4.4c-0.3,0.3-0.3,0.8,0,1.1c0.1,0.1,0.3,0.2,0.5,0.2s0.4-0.1,0.5-0.2l4.4-4.4l4.4,4.4c0.1,0.1,0.3,0.2,0.5,0.2
            s0.4-0.1,0.5-0.2c0.3-0.3,0.3-0.8,0-1.1L13.1,12z"/>
    </symbol>
    <symbol id="chip-error" viewBox="0 0 24 24">
        <circle fill="currentColor" cx="12" cy="12" r="12"/>
        <path fill="#fff" d="M12,14.3c0.5,0,0.9-0.4,0.9-0.9V6c0-0.5-0.4-0.9-0.9-0.9S11.1,5.5,11.1,6v7.4C11.1,13.9,11.5,14.3,12,14.3z"/>
        <path fill="#fff" d="M13.4,17.5c0,0.8-0.6,1.4-1.4,1.4s-1.4-0.6-1.4-1.4c0-0.8,0.6-1.3,1.4-1.3S13.4,16.8,13.4,17.5z"/>
    </symbol>
    <symbol id="chip-info" viewBox="0 0 24 24">
        <circle fill="currentColor" cx="11.9" cy="12" r="12"/>
        <path fill="#fff" d="M10.6,6.5c0-0.8,0.6-1.4,1.4-1.4s1.4,0.6,1.4,1.4S12.8,7.8,12,7.8S10.6,7.2,10.6,6.5z"/>
        <path fill="#fff" d="M12,9.7c-0.5,0-0.9,0.4-0.9,0.9V18c0,0.5,0.4,0.9,0.9,0.9s0.9-0.4,0.9-0.9v-7.4C12.9,10.1,12.5,9.7,12,9.7z"/>
    </symbol>
    <symbol id="chip-warning" viewBox="0 0 24 24">
        <path fill="currentColor" d="M0.8,24h22.3c0.6,0,1-0.7,0.7-1.2L12.7,0.5c-0.3-0.6-1.2-0.6-1.5,0L0.1,22.8C-0.2,23.3,0.2,24,0.8,24z"/>
        <path fill="#fff" d="M12,16.2c0.5,0,0.9-0.4,0.9-0.9V7.9C12.9,7.4,12.5,7,12,7s-0.9,0.4-0.9,0.9v7.4C11.1,15.8,11.5,16.2,12,16.2z"
            />
        <path fill="#fff" d="M13.4,19.5c0,0.8-0.6,1.4-1.4,1.4s-1.4-0.6-1.4-1.4s0.6-1.4,1.4-1.4S13.4,18.7,13.4,19.5z"/>
    </symbol>
    <symbol id="clock" viewBox="0 0 24 24">
        <g stroke="currentColor" fill="none">
            <circle cx="12" cy="12" r="11.5"/>
            <polyline points="20.3,12 12,12 12,4.7 	"/>
        </g>
    </symbol>
    <symbol id="close" viewBox="0 0 24 24">
        <line fill="none" stroke="currentColor" stroke-linecap="round" stroke-linejoin="round" x1="0.6" y1="0.6" x2="23.4" y2="23.4"/>
        <line fill="none" stroke="currentColor" stroke-linecap="round" stroke-linejoin="round" x1="23.4" y1="0.6" x2="0.6" y2="23.4"/>
    </symbol>
    <symbol id="code-chevrons" viewBox="0 0 24 24">
        <polyline stroke="currentColor" fill="none" points="7.5,17.5 0.5,11.8 7.1,6.5 "/>
        <polyline stroke="currentColor" fill="none" points="16.5,6.5 23.5,12.2 16.9,17.5 "/>
        <line stroke="currentColor" x1="9.2" y1="18.5" x2="14.8" y2="5.5"/>
    </symbol>
    <symbol id="down-arrow" viewBox="0 0 24 24">
        <polygon fill="currentColor" points="0,7 24,7 12,19 "/>
    </symbol>
    <symbol id="down-chevron" viewBox="0 0 24 24">
        <polyline stroke="currentColor" fill="none" stroke-linecap="round" stroke-linejoin="round" points="0.4,6.4 11.9,17.9 23.6,6.1 "/>
    </symbol>
    <symbol id="error" viewBox="0 0 24 24">
        <circle stroke="currentColor" fill="none" stroke-miterlimit="10" cx="12" cy="12" r="11.5"/>
        <path fill="currentColor" d="M13.4,17.5c0,0.8-0.6,1.4-1.4,1.4s-1.4-0.6-1.4-1.4c0-0.8,0.6-1.3,1.4-1.3S13.4,16.8,13.4,17.5z"/>
        <path fill="currentColor" d="M12,14.3c0.5,0,0.9-0.4,0.9-0.9V6c0-0.5-0.4-0.9-0.9-0.9S11.1,5.5,11.1,6v7.4C11.1,13.9,11.5,14.3,12,14.3z"/>
    </symbol>
    <symbol id="heraldry" viewBox="0 0 24 24">
        <path fill="currentColor" d="M20.64 0.8v17.84c0 1.12-0.88 2.080-2 2.080h-4.4c-0.72 0-1.6 0.4-2.16 1.36-0.56-0.96-1.44-1.36-2.16-1.36h-4.56c-1.12 0-2-0.88-2-2.080v-17.84h17.28zM21.44 0h-18.88v18.64c0 1.6 1.2 2.88 2.8 2.88h4.4c0.56 0 1.36 0.4 1.76 1.52l0.24 0.64c0.080 0.16 0.16 0.24 0.24 0.24s0.16-0.080 0.24-0.24l0.24-0.64c0.4-1.12 1.12-1.52 1.76-1.52h4.4c1.6 0 2.8-1.28 2.8-2.88v-18.64z"></path>
        <path fill="currentColor" d="M18.32 4.24h-9.68c-0.24 0-0.4-0.16-0.4-0.4s0.16-0.4 0.4-0.4h9.68c0.24 0 0.4 0.16 0.4 0.4s-0.16 0.4-0.4 0.4z"></path>
        <path fill="currentColor" d="M18.32 7.68h-12.64c-0.24 0-0.4-0.16-0.4-0.4s0.16-0.4 0.4-0.4h12.64c0.24 0 0.4 0.16 0.4 0.4s-0.16 0.4-0.4 0.4z"></path>
        <path fill="currentColor" d="M18.32 11.12h-12.64c-0.24 0-0.4-0.16-0.4-0.4s0.16-0.4 0.4-0.4h12.64c0.24 0 0.4 0.16 0.4 0.4s-0.16 0.4-0.4 0.4z"></path>
        <path fill="currentColor" d="M18.32 14.56h-12.64c-0.24 0-0.4-0.16-0.4-0.4s0.16-0.4 0.4-0.4h12.64c0.24 0 0.4 0.16 0.4 0.4s-0.16 0.4-0.4 0.4z"></path>
        <path fill="currentColor" d="M18.32 18h-12.64c-0.24 0-0.4-0.16-0.4-0.4s0.16-0.4 0.4-0.4h12.64c0.24 0 0.4 0.16 0.4 0.4s-0.16 0.4-0.4 0.4z"></path>
    </symbol>
    <symbol id="information" viewBox="0 0 24 24">
        <circle stroke="currentColor" fill="none" stroke-miterlimit="10" class="st0" cx="12" cy="12" r="11.5"/>
        <path fill="currentColor" d="M10.6,6.5c0-0.8,0.6-1.4,1.4-1.4s1.4,0.6,1.4,1.4S12.8,7.8,12,7.8S10.6,7.2,10.6,6.5z"/>
        <path fill="currentColor" d="M12,9.7c-0.5,0-0.9,0.4-0.9,0.9V18c0,0.5,0.4,0.9,0.9,0.9s0.9-0.4,0.9-0.9v-7.4C12.9,10.1,12.5,9.7,12,9.7z"/>
    </symbol>
    <symbol id="left-arrow" viewBox="0 0 24 24">
        <polygon fill="currentColor" points="17,0 17,24 5,12 "/>
    </symbol>
    <symbol id="left-chevron" viewBox="0 0 24 24">
        <polyline stroke="currentColor" fill="none" stroke-linecap="round" stroke-linejoin="round" points="17.5,0.5 6.2,11.9 17.8,23.5 "/>
    </symbol>
    <symbol id="options" viewBox="0 0 24 24">
        <g fill="currentColor">
            <circle cx="12" cy="3" r="3"/>
            <circle cx="12" cy="12" r="3"/>
            <circle cx="12" cy="21" r="3"/>
        </g>
    </symbol>
    <symbol id="search" viewBox="0 0 24 24">
        <g stroke="currentColor" fill="none">
            <circle cx="8.5" cy="8.5" r="8.1"/>
            <line x1="23.6" y1="23.6" x2="14.2" y2="14.2"/>
        </g>
    </symbol>
    <symbol id="top-arrow" viewBox="0 0 24 24">
        <polygon fill="currentColor" points="24,17 0,17 12,5 "/>
    </symbol>
    <symbol id="top-chevron" viewBox="0 0 24 24">
        <polyline stroke="currentColor" fill="none" stroke-linecap="round" stroke-linejoin="round" points="23.5,17.8 11.9,6.2 0.5,17.5 "/>
    </symbol>
    <symbol id="warning" viewBox="0 0 24 24">
        <path stroke="currentColor" fill="none" d="M1.3,23.5h21.5c0.6,0,1-0.7,0.7-1.2L12.7,0.9c-0.3-0.6-1.2-0.6-1.4,0L0.6,22.4C0.3,22.8,0.7,23.5,1.3,23.5z"/>
        <path fill="currentColor" d="M12,16.2c0.5,0,0.9-0.4,0.9-0.9V7.9C12.9,7.4,12.5,7,12,7s-0.9,0.4-0.9,0.9v7.4C11.1,15.8,11.5,16.2,12,16.2z"/>
        <path fill="currentColor" d="M13.4,19.5c0,0.8-0.6,1.4-1.4,1.4s-1.4-0.6-1.4-1.4s0.6-1.4,1.4-1.4S13.4,18.7,13.4,19.5z"/>
    </symbol>
    <symbol id="m-index" viewBox="0 0 38 32">
        <title>galerie</title>
        <path fill="#fff" style="fill: var(--color1, #fff)" d="M0 0h37.883v4h-37.883v-4z"></path>
        <path fill="#fff" style="fill: var(--color1, #fff)" d="M0 14h29.274v4h-29.274v-4z"></path>
        <path fill="#fff" style="fill: var(--color1, #fff)" d="M0 28h18.663v4h-18.663v-4z"></path>
    </symbol>
    <symbol id="drag-drop" viewBox="0 0 23 32">
        <path d="M0.466 0c-0.008-0.001-0.017-0.001-0.026-0.001-0.243 0-0.441 0.197-0.441 0.441 0 0.009 0 0.019 0.001 0.028l-0-0.001c-0.001 0.008-0.001 0.017-0.001 0.026 0 0.243 0.197 0.441 0.441 0.441 0.009 0 0.019-0 0.028-0.001l-0.001 0c0.008 0 0.017 0.001 0.026 0.001 0.243 0 0.441-0.197 0.441-0.441 0-0.009-0-0.019-0.001-0.028l0 0.001c0-0.008 0.001-0.017 0.001-0.026 0-0.243-0.197-0.441-0.441-0.441-0.009 0-0.018 0-0.027 0.001l0.001-0z"></path>
        <path d="M2.33 0c-0.008-0.001-0.017-0.001-0.026-0.001-0.243 0-0.441 0.197-0.441 0.441 0 0.009 0 0.019 0.001 0.028l-0-0.001c-0 0.008-0.001 0.017-0.001 0.026 0 0.243 0.197 0.441 0.441 0.441 0.009 0 0.019-0 0.028-0.001l-0.001 0c0.008 0 0.017 0.001 0.026 0.001 0.243 0 0.441-0.197 0.441-0.441 0-0.009-0-0.019-0.001-0.028l0 0.001c0.001-0.008 0.001-0.017 0.001-0.026 0-0.243-0.197-0.441-0.441-0.441-0.009 0-0.018 0-0.027 0.001l0.001-0z"></path>
        <path d="M4.195 0c-0.008-0.001-0.017-0.001-0.026-0.001-0.243 0-0.441 0.197-0.441 0.441 0 0.009 0 0.019 0.001 0.028l-0-0.001c-0.001 0.008-0.001 0.017-0.001 0.026 0 0.243 0.197 0.441 0.441 0.441 0.009 0 0.019-0 0.028-0.001l-0.001 0c0.008 0 0.017 0.001 0.026 0.001 0.243 0 0.441-0.197 0.441-0.441 0-0.009-0-0.019-0.001-0.028l0 0.001c0-0.008 0.001-0.017 0.001-0.026 0-0.243-0.197-0.441-0.441-0.441-0.009 0-0.018 0-0.027 0.001l0.001-0z"></path>
        <path d="M6.059 0c-0.008-0.001-0.017-0.001-0.026-0.001-0.243 0-0.441 0.197-0.441 0.441 0 0.009 0 0.019 0.001 0.028l-0-0.001c-0 0.008-0.001 0.017-0.001 0.026 0 0.243 0.197 0.441 0.441 0.441 0.009 0 0.019-0 0.028-0.001l-0.001 0c0.008 0 0.017 0.001 0.026 0.001 0.243 0 0.441-0.197 0.441-0.441 0-0.009-0-0.019-0.001-0.028l0 0.001c0-0.008 0.001-0.017 0.001-0.026 0-0.243-0.197-0.441-0.441-0.441-0.009 0-0.018 0-0.027 0.001l0.001-0z"></path>
        <path d="M7.923 0c-0.008-0.001-0.017-0.001-0.026-0.001-0.243 0-0.441 0.197-0.441 0.441 0 0.009 0 0.019 0.001 0.028l-0-0.001c-0 0.005-0 0.011-0 0.018 0 0.258 0.209 0.466 0.466 0.466s0.466-0.209 0.466-0.466c0-0.006-0-0.012-0-0.018l0 0.001c0.001-0.008 0.001-0.017 0.001-0.026 0-0.243-0.197-0.441-0.441-0.441-0.009 0-0.018 0-0.027 0.001l0.001-0z"></path>
        <path d="M9.787 0c-0.008-0.001-0.017-0.001-0.026-0.001-0.243 0-0.441 0.197-0.441 0.441 0 0.009 0 0.019 0.001 0.028l-0-0.001c0.010 0.25 0.215 0.449 0.466 0.449s0.456-0.199 0.466-0.448l0-0.001c0.001-0.008 0.001-0.017 0.001-0.026 0-0.243-0.197-0.441-0.441-0.441-0.009 0-0.018 0-0.027 0.001l0.001-0z"></path>
        <path d="M11.651 0c-0.008-0.001-0.017-0.001-0.026-0.001-0.243 0-0.441 0.197-0.441 0.441 0 0.009 0 0.019 0.001 0.028l-0-0.001c-0 0.005-0 0.011-0 0.018 0 0.258 0.209 0.466 0.466 0.466s0.466-0.209 0.466-0.466c0-0.006-0-0.012-0-0.018l0 0.001c0.001-0.008 0.001-0.017 0.001-0.026 0-0.243-0.197-0.441-0.441-0.441-0.009 0-0.018 0-0.027 0.001l0.001-0z"></path>
        <path d="M11.651 1.864c-0.008-0-0.017-0.001-0.026-0.001-0.243 0-0.441 0.197-0.441 0.441 0 0.009 0 0.019 0.001 0.028l-0-0.001c-0 0.005-0 0.011-0 0.018 0 0.257 0.209 0.466 0.466 0.466s0.466-0.209 0.466-0.466c0-0.006-0-0.012-0-0.018l0 0.001c0.001-0.008 0.001-0.017 0.001-0.026 0-0.243-0.197-0.441-0.441-0.441-0.009 0-0.018 0-0.027 0.001l0.001-0z"></path>
        <path d="M11.651 3.729c-0.008-0.001-0.017-0.001-0.026-0.001-0.243 0-0.441 0.197-0.441 0.441 0 0.009 0 0.019 0.001 0.028l-0-0.001c-0 0.005-0 0.011-0 0.018 0 0.258 0.209 0.466 0.466 0.466s0.466-0.209 0.466-0.466c0-0.006-0-0.012-0-0.018l0 0.001c0.001-0.008 0.001-0.017 0.001-0.026 0-0.243-0.197-0.441-0.441-0.441-0.009 0-0.018 0-0.027 0.001l0.001-0z"></path>
        <path d="M13.982 1.864c-0.008-0-0.017-0.001-0.026-0.001-0.243 0-0.441 0.197-0.441 0.441 0 0.009 0 0.019 0.001 0.028l-0-0.001c-0 0.005-0 0.011-0 0.018 0 0.257 0.209 0.466 0.466 0.466s0.466-0.209 0.466-0.466c0-0.006-0-0.012-0-0.018l0 0.001c0.001-0.008 0.001-0.017 0.001-0.026 0-0.243-0.197-0.441-0.441-0.441-0.009 0-0.018 0-0.027 0.001l0.001-0z"></path>
        <path d="M11.651 5.593c-0.008-0-0.017-0.001-0.026-0.001-0.243 0-0.441 0.197-0.441 0.441 0 0.009 0 0.019 0.001 0.028l-0-0.001c-0 0.005-0 0.011-0 0.018 0 0.258 0.209 0.466 0.466 0.466s0.466-0.209 0.466-0.466c0-0.006-0-0.012-0-0.018l0 0.001c0.001-0.008 0.001-0.017 0.001-0.026 0-0.243-0.197-0.441-0.441-0.441-0.009 0-0.018 0-0.027 0.001l0.001-0z"></path>
        <path d="M15.38 3.262c-0.008-0.001-0.017-0.001-0.026-0.001-0.243 0-0.441 0.197-0.441 0.441 0 0.009 0 0.019 0.001 0.028l-0-0.001c-0 0.005-0 0.011-0 0.018 0 0.258 0.209 0.466 0.466 0.466s0.466-0.209 0.466-0.466c0-0.006-0-0.012-0-0.018l0 0.001c0.001-0.008 0.001-0.017 0.001-0.026 0-0.243-0.197-0.441-0.441-0.441-0.009 0-0.019 0-0.028 0.001l0.001-0z"></path>
        <path d="M2.33 20.506c-0.005-0-0.011-0-0.018-0-0.257 0-0.466 0.209-0.466 0.466s0.209 0.466 0.466 0.466c0.006 0 0.012-0 0.018-0l-0.001 0c0.005 0 0.011 0 0.018 0 0.257 0 0.466-0.209 0.466-0.466s-0.209-0.466-0.466-0.466c-0.006 0-0.012 0-0.018 0l0.001-0z"></path>
        <path d="M4.195 20.506c-0.25 0.010-0.449 0.215-0.449 0.466s0.199 0.456 0.448 0.466l0.001 0c0.005 0 0.011 0 0.018 0 0.258 0 0.466-0.209 0.466-0.466s-0.209-0.466-0.466-0.466c-0.006 0-0.012 0-0.018 0l0.001-0z"></path>
        <path d="M6.059 20.506c-0.005-0-0.011-0-0.018-0-0.258 0-0.466 0.209-0.466 0.466s0.209 0.466 0.466 0.466c0.006 0 0.012-0 0.018-0l-0.001 0c0.005 0 0.011 0 0.018 0 0.258 0 0.466-0.209 0.466-0.466s-0.209-0.466-0.466-0.466c-0.006 0-0.012 0-0.018 0l0.001-0z"></path>
        <path d="M7.923 20.506c-0.258 0-0.466 0.209-0.466 0.466s0.209 0.466 0.466 0.466c0.258 0 0.466-0.209 0.466-0.466v0c0.001-0.008 0.001-0.017 0.001-0.026 0-0.243-0.197-0.441-0.441-0.441-0.009 0-0.019 0-0.028 0.001l0.001-0z"></path>
        <path d="M9.787 20.506c-0.258 0-0.466 0.209-0.466 0.466s0.209 0.466 0.466 0.466c0.258 0 0.466-0.209 0.466-0.466v0c0.001-0.008 0.001-0.017 0.001-0.026 0-0.243-0.197-0.441-0.441-0.441-0.009 0-0.019 0-0.028 0.001l0.001-0z"></path>
        <path d="M0.466 1.864c-0.008-0-0.017-0.001-0.026-0.001-0.243 0-0.441 0.197-0.441 0.441 0 0.009 0 0.019 0.001 0.028l-0-0.001c-0.001 0.008-0.001 0.017-0.001 0.026 0 0.243 0.197 0.441 0.441 0.441 0.009 0 0.019-0 0.028-0.001l-0.001 0c0.008 0.001 0.017 0.001 0.026 0.001 0.243 0 0.441-0.197 0.441-0.441 0-0.009-0-0.019-0.001-0.028l0 0.001c0-0.008 0.001-0.017 0.001-0.026 0-0.243-0.197-0.441-0.441-0.441-0.009 0-0.019 0-0.028 0.001l0.001-0z"></path>
        <path d="M0.466 3.729c-0.008-0.001-0.017-0.001-0.026-0.001-0.243 0-0.441 0.197-0.441 0.441 0 0.009 0 0.019 0.001 0.028l-0-0.001c-0.001 0.008-0.001 0.017-0.001 0.026 0 0.243 0.197 0.441 0.441 0.441 0.009 0 0.019-0 0.028-0.001l-0.001 0c0.008 0 0.017 0.001 0.026 0.001 0.243 0 0.441-0.197 0.441-0.441 0-0.009-0-0.019-0.001-0.028l0 0.001c0-0.008 0.001-0.017 0.001-0.026 0-0.243-0.197-0.441-0.441-0.441-0.009 0-0.019 0-0.028 0.001l0.001-0z"></path>
        <path d="M0.466 5.593c-0.008-0-0.017-0.001-0.026-0.001-0.243 0-0.441 0.197-0.441 0.441 0 0.009 0 0.019 0.001 0.028l-0-0.001c-0.001 0.008-0.001 0.017-0.001 0.026 0 0.243 0.197 0.441 0.441 0.441 0.009 0 0.019-0 0.028-0.001l-0.001 0c0.008 0 0.017 0.001 0.026 0.001 0.243 0 0.441-0.197 0.441-0.441 0-0.009-0-0.019-0.001-0.028l0 0.001c0-0.008 0.001-0.017 0.001-0.026 0-0.243-0.197-0.441-0.441-0.441-0.009 0-0.019 0-0.028 0.001l0.001-0z"></path>
        <path d="M17.244 5.593c-0.008-0-0.017-0.001-0.026-0.001-0.243 0-0.441 0.197-0.441 0.441 0 0.009 0 0.019 0.001 0.028l-0-0.001c-0 0.005-0 0.011-0 0.018 0 0.258 0.209 0.466 0.466 0.466s0.466-0.209 0.466-0.466c0-0.006-0-0.012-0-0.018l0 0.001c0-0.008 0.001-0.017 0.001-0.026 0-0.243-0.197-0.441-0.441-0.441-0.009 0-0.018 0-0.027 0.001l0.001-0z"></path>
        <path d="M15.38 5.593c-0.008-0-0.017-0.001-0.026-0.001-0.243 0-0.441 0.197-0.441 0.441 0 0.009 0 0.019 0.001 0.028l-0-0.001c-0 0.005-0 0.011-0 0.018 0 0.258 0.209 0.466 0.466 0.466s0.466-0.209 0.466-0.466c0-0.006-0-0.012-0-0.018l0 0.001c0.001-0.008 0.001-0.017 0.001-0.026 0-0.243-0.197-0.441-0.441-0.441-0.009 0-0.018 0-0.027 0.001l0.001-0z"></path>
        <path d="M13.515 5.593c-0.008-0-0.017-0.001-0.026-0.001-0.243 0-0.441 0.197-0.441 0.441 0 0.009 0 0.019 0.001 0.028l-0-0.001c-0 0.005-0 0.011-0 0.018 0 0.258 0.209 0.466 0.466 0.466s0.466-0.209 0.466-0.466c0-0.006-0-0.012-0-0.018l0 0.001c0.001-0.008 0.001-0.017 0.001-0.026 0-0.243-0.197-0.441-0.441-0.441-0.009 0-0.018 0-0.027 0.001l0.001-0z"></path>
        <path d="M0.466 7.456c-0.005-0-0.011-0-0.018-0-0.258 0-0.466 0.209-0.466 0.466s0.209 0.466 0.466 0.466c0.006 0 0.012-0 0.018-0l-0.001 0c0.005 0 0.011 0 0.018 0 0.257 0 0.466-0.209 0.466-0.466s-0.209-0.466-0.466-0.466c-0.006 0-0.012 0-0.018 0l0.001-0z"></path>
        <path d="M17.244 7.456c-0.258 0-0.466 0.209-0.466 0.466s0.209 0.466 0.466 0.466c0.258 0 0.466-0.209 0.466-0.466v0c0-0.008 0.001-0.017 0.001-0.026 0-0.243-0.197-0.441-0.441-0.441-0.009 0-0.019 0-0.028 0.001l0.001-0z"></path>
        <path d="M0.466 9.321c-0.25 0.010-0.449 0.215-0.449 0.466s0.199 0.456 0.448 0.466l0.001 0c0.25-0.010 0.449-0.215 0.449-0.466s-0.199-0.456-0.448-0.466l-0.001-0z"></path>
        <path d="M17.244 9.321c-0.258 0-0.466 0.209-0.466 0.466s0.209 0.466 0.466 0.466c0.258 0 0.466-0.209 0.466-0.466v0c0-0.008 0.001-0.017 0.001-0.026 0-0.243-0.197-0.441-0.441-0.441-0.009 0-0.019 0-0.028 0.001l0.001-0z"></path>
        <path d="M0.466 11.185c-0.005-0-0.011-0-0.018-0-0.258 0-0.466 0.209-0.466 0.466s0.209 0.466 0.466 0.466c0.006 0 0.012-0 0.018-0l-0.001 0c0.005 0 0.011 0 0.018 0 0.257 0 0.466-0.209 0.466-0.466s-0.209-0.466-0.466-0.466c-0.006 0-0.012 0-0.018 0l0.001-0z"></path>
        <path d="M17.244 11.185c-0.258 0-0.466 0.209-0.466 0.466s0.209 0.466 0.466 0.466c0.258 0 0.466-0.209 0.466-0.466v0c0-0.008 0.001-0.017 0.001-0.026 0-0.243-0.197-0.441-0.441-0.441-0.009 0-0.019 0-0.028 0.001l0.001-0z"></path>
        <path d="M0.466 13.049c-0.005-0-0.011-0-0.018-0-0.258 0-0.466 0.209-0.466 0.466s0.209 0.466 0.466 0.466c0.006 0 0.012-0 0.018-0l-0.001 0c0.005 0 0.011 0 0.018 0 0.257 0 0.466-0.209 0.466-0.466s-0.209-0.466-0.466-0.466c-0.006 0-0.012 0-0.018 0l0.001-0z"></path>
        <path d="M17.244 13.049c-0.258 0-0.466 0.209-0.466 0.466s0.209 0.466 0.466 0.466c0.258 0 0.466-0.209 0.466-0.466v0c0-0.008 0.001-0.017 0.001-0.026 0-0.243-0.197-0.441-0.441-0.441-0.009 0-0.019 0-0.028 0.001l0.001-0z"></path>
        <path d="M0.466 14.913c-0.005-0-0.011-0-0.018-0-0.258 0-0.466 0.209-0.466 0.466s0.209 0.466 0.466 0.466c0.006 0 0.012-0 0.018-0l-0.001 0c0.005 0 0.011 0 0.018 0 0.257 0 0.466-0.209 0.466-0.466s-0.209-0.466-0.466-0.466c-0.006 0-0.012 0-0.018 0l0.001-0z"></path>
        <path d="M0.466 16.778c-0.005-0-0.011-0-0.018-0-0.258 0-0.466 0.209-0.466 0.466s0.209 0.466 0.466 0.466c0.006 0 0.012-0 0.018-0l-0.001 0c0.005 0 0.011 0 0.018 0 0.257 0 0.466-0.209 0.466-0.466s-0.209-0.466-0.466-0.466c-0.006 0-0.012 0-0.018 0l0.001-0z"></path>
        <path d="M0.466 18.642c-0.005-0-0.011-0-0.018-0-0.258 0-0.466 0.209-0.466 0.466s0.209 0.466 0.466 0.466c0.006 0 0.012-0 0.018-0l-0.001 0c0.005 0 0.011 0 0.018 0 0.257 0 0.466-0.209 0.466-0.466s-0.209-0.466-0.466-0.466c-0.006 0-0.012 0-0.018 0l0.001-0z"></path>
        <path d="M0.466 20.506c-0.005-0-0.011-0-0.018-0-0.258 0-0.466 0.209-0.466 0.466s0.209 0.466 0.466 0.466c0.006 0 0.012-0 0.018-0l-0.001 0c0.005 0 0.011 0 0.018 0 0.257 0 0.466-0.209 0.466-0.466s-0.209-0.466-0.466-0.466c-0.006 0-0.012 0-0.018 0l0.001-0z"></path>
        <path stroke="currentColor" fill="none" stroke-width="0.6585" stroke-miterlimit="10" stroke-linecap="butt" stroke-linejoin="round" style="stroke: var(--color4, #000)" d="M13.505 25.529v-8.829c0.016-0.63 0.522-1.136 1.15-1.152l0.001-0c0.63 0.016 1.136 0.522 1.152 1.15l0 0.001v3.458h1.539c0.013-0.001 0.029-0.001 0.045-0.001 0.4 0 0.724 0.324 0.724 0.724 0 0.016-0 0.031-0.002 0.047l0-0.002h1.536c0.013-0.001 0.029-0.001 0.045-0.001 0.4 0 0.724 0.324 0.724 0.724 0 0.016-0 0.031-0.002 0.047l0-0.002h1.152c0.63 0.016 1.136 0.522 1.152 1.15l0 0.001v2.377c0.001 0.044 0.002 0.095 0.002 0.147 0 0.689-0.113 1.351-0.321 1.97l0.013-0.043-1.228 4.377h-6.914c-1.151-1.536-4.146-6.679-4.146-6.679-0.104-0.147-0.166-0.33-0.166-0.528 0-0.241 0.092-0.46 0.244-0.625l-0.001 0.001c0.169-0.167 0.402-0.27 0.658-0.27 0.215 0 0.414 0.072 0.572 0.194l-0.002-0.002z"></path>
    </symbol>
    <symbol id="modulsvg-file-pdf" viewBox="0 0 24 24" data-format="portrait">
        <path fill="#FB3449" d="M10.3,8.1c-0.2-1.4-0.5-2.6-0.8-3.5C9.3,4.2,9,3.9,8.6,3.9c-0.5,0-0.9,0.2-1.2,0.6s-0.3,1,0,1.5
        c0.6,1,1.3,1.9,2,2.6c0.1,0.9,0.1,1.9-0.1,2.9c-1.2,0.8-2.1,1.7-2.7,2.4c-0.3,0.4-0.4,0.9-0.2,1.3S7,15.9,7.5,16c0.1,0,0.1,0,0.2,0
        c0.4,0,0.8-0.2,1.1-0.6c0.7-1,1.2-2.1,1.4-3.3c0.7-0.5,1.5-0.9,2.4-1.2c1.4,0.7,2.8,1,3.8,1.1c0.5,0,0.9-0.1,1.1-0.5
        c0.3-0.4,0.3-0.9,0.1-1.4s-0.7-0.7-1.2-0.8c-1.4,0-2.6,0.2-3.7,0.5C11.9,9.4,11.1,8.8,10.3,8.1z M8.2,5.5C8,5.2,8.1,5.1,8.2,5
        s0.2-0.2,0.3-0.2S8.6,4.9,8.7,5c0.2,0.5,0.4,1.2,0.5,2C8.8,6.5,8.5,6,8.2,5.5z M8,14.7c-0.2,0.2-0.3,0.2-0.4,0.2
        c-0.2,0-0.3-0.1-0.3-0.2s0-0.3,0.1-0.4c0.4-0.5,0.9-1,1.6-1.6C8.8,13.5,8.4,14.1,8,14.7z M10.3,10.8c0-0.5,0.1-1,0.1-1.4
        c0.4,0.3,0.8,0.6,1.2,0.8C11.1,10.4,10.7,10.6,10.3,10.8z M16.3,10.2c0.2,0,0.4,0.1,0.4,0.2c0.1,0.1,0.1,0.3,0,0.4
        c0,0-0.1,0.1-0.3,0.1c-0.7-0.1-1.5-0.2-2.4-0.6C14.7,10.3,15.5,10.2,16.3,10.2z"/>
        <path fill="#FB3449"  d="M11.9,19.8h-0.3v2.7h0.3c0.6,0,0.8-0.7,0.8-1.4S12.5,19.8,11.9,19.8z"/>
        <path fill="#FB3449"  d="M8.8,19.8H8.3v1.3h0.5c0.8,0,0.8-0.5,0.8-0.7C9.6,20.3,9.6,19.8,8.8,19.8z"/>
        <path fill="#FB3449"  d="M21,6.3l-0.1-0.1l0,0l-6-6l0,0l-0.1-0.1c-0.1,0-0.1,0-0.2,0h-11C3.2,0,3,0.2,3,0.5v23C3,23.8,3.2,24,3.5,24h17
        c0.3,0,0.5-0.2,0.5-0.5v-17C21,6.4,21,6.4,21,6.3z M15,1.7L19.3,6H15C15,6,15,1.7,15,1.7z M8.8,21.8H8.3v1.1c0,0.2-0.1,0.3-0.3,0.3
        c-0.2,0-0.3-0.2-0.3-0.3v-3.4c0-0.2,0.1-0.3,0.3-0.3h0.8c1,0,1.5,0.7,1.5,1.3S9.8,21.8,8.8,21.8z M11.9,23.2h-0.6
        c-0.2,0-0.3-0.2-0.3-0.3v-3.4c0-0.2,0.1-0.3,0.3-0.3h0.6c0.9,0,1.5,0.8,1.5,2S12.8,23.2,11.9,23.2z M16,19.8h-1.1v1.3h0.7
        c0.2,0,0.3,0.1,0.3,0.3s-0.1,0.3-0.3,0.3h-0.7v1.1c0,0.2-0.1,0.3-0.3,0.3s-0.3-0.2-0.3-0.3v-3.4c0-0.2,0.1-0.3,0.3-0.3H16
        c0.2,0,0.3,0.2,0.3,0.3S16.2,19.8,16,19.8z M20,18.6H4V1h10v5.5C14,6.8,14.2,7,14.5,7H20V18.6z"/>
    </symbol>
    <symbol id="modulsvg-file-other" viewBox="0 0 24 24" data-format="landscape">
        <path d="M21,6.2l-0.1-0.1l0,0l-6-6l0,0L14.8,0c-0.1,0-0.1,0-0.2,0h-11C3.2-0.1,3,0.1,3,0.4v23.1C3,23.8,3.2,24,3.5,24h17
        c0.3,0,0.5-0.2,0.5-0.5V6.4C21,6.3,21,6.3,21,6.2z M15,1.6l4.3,4.3H15V1.6z M19.9,23.1h-16L4,0.9h10v5.5c0,0.3,0.2,0.5,0.5,0.5H20
        L19.9,23.1z"/>
    </symbol>
</svg>
