<svg>
    <symbol id="default" viewBox="0 0 16 16">
        <g stroke="currentColor">
            <line x1="0" y1="0" x2="16" y2="16"/>
            <line x1="16" y1="0" x2="0" y2="16"/>
        </g>
    </symbol>
    <symbol id="clock" viewBox="0 0 24 24">
        <g stroke="currentColor" stroke-width="1" fill="none">
            <circle cx="12" cy="12" r="11"/>
            <line x1="12" y1="12" x2="12" y2="5"/>
            <line x1="12" y1="12" x2="20" y2="12"/>
        </g>
    </symbol>
    <symbol id="dropdown-arrow" viewBox="0 0 20 20">
        <polygon fill="currentColor" points="1.2,6.5 18.8,6.5 10,15.3"/>
    </symbol>
    <symbol id="left-arrow" viewBox="0 0 24 24">
        <path stroke="currentColor" d="M18 0 L6 12 L18 24" fill="none"></path>
    </symbol>
    <symbol id="right-arrow" viewBox="0 0 24 24">
        <path stroke="currentColor" d="M6 0 L18 12 L6 24" fill="none"></path>
    </symbol>
    <symbol id="down-arrow" viewBox="0 0 24 24">
        <path fill="currentColor" d="M12.001 19c-0.143 0-0.28-0.062-0.375-0.169l-11.5-13c-0.183-0.207-0.163-0.522 0.044-0.705 0.205-0.185 0.522-0.166 0.705 0.043l11.125 12.576 11.126-12.576c0.184-0.208 0.5-0.227 0.706-0.043s0.227 0.498 0.043 0.705l-11.5 13c-0.094 0.107-0.231 0.169-0.374 0.169z"></path>
    </symbolsvg>
    <symbol id="double-arrow" viewBox="0 0 24 24">
        <path d="M9.354 3.146c-0.195-0.195-0.512-0.195-0.707 0l-8.5 8.5c-0.195 0.195-0.195 0.512 0 0.707l8.5 8.5c0.097 0.098 0.225 0.147 0.353 0.147s0.256-0.049 0.354-0.146c0.195-0.195 0.195-0.512 0-0.707l-8.147-8.147 8.146-8.146c0.196-0.196 0.196-0.512 0.001-0.708z"></path>
        <path d="M23.854 11.646l-8.5-8.5c-0.195-0.195-0.512-0.195-0.707 0s-0.195 0.512 0 0.707l8.146 8.147-8.146 8.146c-0.195 0.195-0.195 0.512 0 0.707 0.097 0.098 0.225 0.147 0.353 0.147s0.256-0.049 0.354-0.146l8.5-8.5c0.195-0.196 0.195-0.512 0-0.708z"></path>
    </symbol>
    <symbol id="calendar" viewBox="0 0 24 24">
        <g stroke="currentColor" stroke-width="1" fill="none">
            <rect x="0" y="3" width="24" height="21"/>
            <rect x="6" y="0" width="3" height="5"/>
            <rect x="15" y="0" width="3" height="5"/>
            <line x1="8" y1="8" x2="8" y2="24"/>
            <line x1="16" y1="8" x2="16" y2="24"/>
            <line x1="0" y1="8" x2="24" y2="8"/>
            <line x1="0" y1="16" x2="24" y2="16"/>
        </g>
    </symbol>
    <symbol id="chip-warning" viewBox="0 0 24 24">
        <path fill="currentColor" d="M23.077 22.431l-10.615-21.231c-0.076-0.155-0.234-0.26-0.415-0.26s-0.339 0.105-0.414 0.258l-10.709 21.233c-0.039 0.066-0.062 0.146-0.062 0.231s0.023 0.165 0.063 0.233l0.368 0.182h21.231l0.369-0.185c0.117-0.085 0.193-0.221 0.193-0.375 0-0.031-0.003-0.060-0.009-0.089zM11.077 7.938c0-0.51 0.413-0.923 0.923-0.923s0.923 0.413 0.923 0.923v7.385c0 0.51-0.413 0.923-0.923 0.923s-0.923-0.413-0.923-0.923zM12 20.954c-0.765 0-1.385-0.62-1.385-1.385s0.62-1.385 1.385-1.385c0.765 0 1.385 0.62 1.385 1.385s-0.62 1.385-1.385 1.385z"></path>
        <path fill="#fff" d="M12 16.246c0.51 0 0.923-0.413 0.923-0.923v-7.385c0-0.51-0.413-0.923-0.923-0.923s-0.923 0.413-0.923 0.923v7.385c0 0.51 0.413 0.923 0.923 0.923z"></path>
        <path fill="#fff" d="M13.385 19.477c0 0.765-0.62 1.385-1.385 1.385s-1.385-0.62-1.385-1.385c0-0.765 0.62-1.385 1.385-1.385s1.385 0.62 1.385 1.385z"></path>
    </symbol>
    <symbol id="chip-check" viewBox="0 0 24 24">
        <path fill="currentColor" d="M12 0.923c-6.118 0-11.077 4.959-11.077 11.077s4.959 11.077 11.077 11.077c6.118 0 11.077-4.959 11.077-11.077s-4.959-11.077-11.077-11.077zM17.262 9.415v0l-6.923 6.462c-0.165 0.168-0.393 0.273-0.645 0.277-0.254-0.004-0.482-0.109-0.647-0.277l-2.308-2.308c-0.163-0.166-0.264-0.395-0.264-0.646s0.101-0.48 0.264-0.646c0.166-0.163 0.394-0.264 0.646-0.264s0.48 0.101 0.646 0.264l1.661 1.661 6.277-5.815c0.169-0.158 0.396-0.255 0.646-0.255 0.523 0 0.947 0.424 0.947 0.947 0 0.273-0.116 0.519-0.3 0.692z"></path>
        <path fill="#fff" d="M15.969 8.123l-6.277 5.815-1.662-1.662c-0.166-0.163-0.395-0.264-0.646-0.264s-0.48 0.101-0.646 0.264c-0.163 0.166-0.264 0.394-0.264 0.646s0.101 0.48 0.264 0.646l2.308 2.308c0.165 0.168 0.393 0.273 0.645 0.277 0.254-0.004 0.482-0.109 0.647-0.277l6.923-6.462c0.185-0.173 0.301-0.419 0.301-0.692 0-0.523-0.424-0.947-0.947-0.947-0.25 0-0.477 0.097-0.647 0.255z"></path>
    </symbol>
    <symbol id="chip-error" viewBox="0 0 24 24">
        <path fill="currentColor" d="M12 0.923c-6.118 0-11.077 4.959-11.077 11.077s4.959 11.077 11.077 11.077c6.118 0 11.077-4.959 11.077-11.077s-4.959-11.077-11.077-11.077zM16.8 15.508c0.163 0.166 0.264 0.394 0.264 0.646s-0.101 0.48-0.264 0.646c-0.166 0.163-0.394 0.264-0.646 0.264s-0.48-0.101-0.646-0.264l-3.508-3.508-3.508 3.508c-0.166 0.163-0.395 0.264-0.646 0.264s-0.48-0.101-0.646-0.264c-0.163-0.166-0.264-0.394-0.264-0.646s0.101-0.48 0.264-0.646l3.508-3.508-3.508-3.508c-0.115-0.152-0.185-0.345-0.185-0.554 0-0.51 0.413-0.923 0.923-0.923 0.209 0 0.402 0.069 0.556 0.186l3.505 3.506 3.508-3.508c0.152-0.115 0.345-0.185 0.554-0.185 0.51 0 0.923 0.413 0.923 0.923 0 0.209-0.069 0.402-0.186 0.556l-3.506 3.505z"></path>
        <path fill="#fff" d="M16.8 7.2c-0.166-0.163-0.394-0.264-0.646-0.264s-0.48 0.101-0.646 0.264l-3.508 3.508-3.508-3.508c-0.152-0.115-0.345-0.185-0.554-0.185-0.51 0-0.923 0.413-0.923 0.923 0 0.209 0.069 0.402 0.186 0.556l3.506 3.505-3.508 3.508c-0.163 0.166-0.264 0.394-0.264 0.646s0.101 0.48 0.264 0.646c0.166 0.163 0.394 0.264 0.646 0.264s0.48-0.101 0.646-0.264l3.508-3.508 3.508 3.508c0.166 0.163 0.394 0.264 0.646 0.264s0.48-0.101 0.646-0.264c0.163-0.166 0.264-0.394 0.264-0.646s-0.101-0.48-0.264-0.646l-3.508-3.508 3.508-3.508c0.163-0.166 0.264-0.394 0.264-0.646s-0.101-0.48-0.264-0.646z"></path>
    </symbol>
    <symbol id="chip-info" viewBox="0 0 24 24">
        <path d="M20.118 3.671c-2.188-2.188-5.153-3.318-8.188-3.247-3.106 0.071-6.071 1.341-8.259 3.529-2.259 2.259-3.459 5.224-3.388 8.329s1.271 6 3.459 8.188c2.118 2.118 4.941 3.247 7.976 3.247 0.071 0 0.141 0 0.212 0 6.494-0.141 11.718-5.435 11.647-11.859-0.071-3.106-1.271-6-3.459-8.188zM11.929 22.306c-0.071 0-0.141 0-0.212 0-2.682 0-5.153-0.988-6.988-2.894-1.906-1.835-2.965-4.447-3.035-7.129-0.071-2.753 0.988-5.365 2.965-7.341s4.518-3.035 7.271-3.106c0.071 0 0.141 0 0.212 0 2.682 0 5.153 0.988 6.988 2.894 1.906 1.906 2.965 4.447 3.035 7.2 0.071 5.576-4.518 10.306-10.235 10.376z"></path>
        <path d="M11.929 14.259c0.424 0 0.706-0.282 0.706-0.706v-6.988c0-0.424-0.282-0.706-0.706-0.706s-0.706 0.282-0.706 0.706v6.988c0 0.424 0.282 0.706 0.706 0.706z"></path>
        <path d="M12.494 15.953c-0.141-0.071-0.353-0.141-0.565-0.141s-0.424 0.071-0.565 0.141c-0.212 0.071-0.353 0.282-0.424 0.424-0.141 0.212-0.141 0.353-0.141 0.635 0 0.635 0.565 1.2 1.2 1.2s1.2-0.565 1.2-1.2c0-0.282-0.071-0.565-0.282-0.776-0.141-0.071-0.282-0.212-0.424-0.282z"></path>
    </symbol>
    <symbol id="search" viewBox="0 0 24 24">
        <path fill="currentColor" d="M23.854 23.146l-9.009-9.009c1.336-1.502 2.155-3.473 2.155-5.637 0-4.687-3.813-8.5-8.5-8.5s-8.5 3.813-8.5 8.5c0 4.687 3.813 8.5 8.5 8.5 2.164 0 4.135-0.819 5.637-2.156l9.009 9.009c0.098 0.098 0.226 0.147 0.354 0.147s0.256-0.049 0.354-0.146c0.195-0.195 0.195-0.512 0-0.708zM1 8.5c0-4.135 3.364-7.5 7.5-7.5s7.5 3.365 7.5 7.5c0 4.136-3.364 7.5-7.5 7.5s-7.5-3.364-7.5-7.5z"></path>
    </symbol>
    <symbol id="heraldry" viewBox="0 0 24 24">
        <path fill="currentColor" d="M20.64 0.8v17.84c0 1.12-0.88 2.080-2 2.080h-4.4c-0.72 0-1.6 0.4-2.16 1.36-0.56-0.96-1.44-1.36-2.16-1.36h-4.56c-1.12 0-2-0.88-2-2.080v-17.84h17.28zM21.44 0h-18.88v18.64c0 1.6 1.2 2.88 2.8 2.88h4.4c0.56 0 1.36 0.4 1.76 1.52l0.24 0.64c0.080 0.16 0.16 0.24 0.24 0.24s0.16-0.080 0.24-0.24l0.24-0.64c0.4-1.12 1.12-1.52 1.76-1.52h4.4c1.6 0 2.8-1.28 2.8-2.88v-18.64z"></path>
        <path fill="currentColor" d="M18.32 4.24h-9.68c-0.24 0-0.4-0.16-0.4-0.4s0.16-0.4 0.4-0.4h9.68c0.24 0 0.4 0.16 0.4 0.4s-0.16 0.4-0.4 0.4z"></path>
        <path fill="currentColor" d="M18.32 7.68h-12.64c-0.24 0-0.4-0.16-0.4-0.4s0.16-0.4 0.4-0.4h12.64c0.24 0 0.4 0.16 0.4 0.4s-0.16 0.4-0.4 0.4z"></path>
        <path fill="currentColor" d="M18.32 11.12h-12.64c-0.24 0-0.4-0.16-0.4-0.4s0.16-0.4 0.4-0.4h12.64c0.24 0 0.4 0.16 0.4 0.4s-0.16 0.4-0.4 0.4z"></path>
        <path fill="currentColor" d="M18.32 14.56h-12.64c-0.24 0-0.4-0.16-0.4-0.4s0.16-0.4 0.4-0.4h12.64c0.24 0 0.4 0.16 0.4 0.4s-0.16 0.4-0.4 0.4z"></path>
        <path fill="currentColor" d="M18.32 18h-12.64c-0.24 0-0.4-0.16-0.4-0.4s0.16-0.4 0.4-0.4h12.64c0.24 0 0.4 0.16 0.4 0.4s-0.16 0.4-0.4 0.4z"></path>
    </symbol>
    <symbol id="information" viewBox="0 0 24 24">
        <path fill="currentColor" d="M12 1.125c6 0 10.875 4.875 10.875 10.875s-4.875 10.875-10.875 10.875c-6 0-10.875-4.875-10.875-10.875s4.875-10.875 10.875-10.875zM12 0c-6.656 0-12 5.344-12 12s5.344 12 12 12c6.656 0 12-5.344 12-12s-5.344-12-12-12zM12 19.359c-0.328 0-0.563-0.234-0.563-0.563v-7.828c0-0.328 0.234-0.563 0.563-0.563s0.563 0.234 0.563 0.563v7.828c0 0.328-0.234 0.563-0.563 0.563zM12 7.359c0.656 0 1.125-0.469 1.125-1.125s-0.469-1.125-1.125-1.125c-0.656 0-1.125 0.469-1.125 1.125s0.469 1.125 1.125 1.125z"></path>
    </symbol>
    <symbol id="options" viewBox="0 0 16 16">
        <g stroke="currentColor">
            <circle cx="8" cy="2" r="2" stroke-width="0"/>
            <circle cx="8" cy="8" r="2" stroke-width="0"/>
            <circle cx="8" cy="14" r="2" stroke-width="0"/>
        </g>
    </symbol>
</svg>
