<svg>
    <symbol id="default" viewBox="0 0 24 24">
        <line fill="none" stroke="currentColor" stroke-linecap="round" stroke-linejoin="round" x1="0.6" y1="0.6" x2="23.4" y2="23.4"/>
        <line fill="none" stroke="currentColor" stroke-linecap="round" stroke-linejoin="round" x1="23.4" y1="0.6" x2="0.6" y2="23.4"/>
    </symbol>
    <symbol id="arrow" viewBox="0 0 24 24">
        <polygon fill="currentColor" points="7,24 7,0 19,12 "/>
    </symbol>
    <symbol id="calendar" viewBox="0 0 24 24">
        <g stroke="currentColor" fill="none">
            <path d="M9.1,3.4"/>
            <polyline points="17.8,3.4 23.5,3.4 23.5,23.5 0.5,23.5 0.5,3.4 6.2,3.4 	"/>
            <line x1="9.1" y1="3.4" x2="14.9" y2="3.4"/>
            <rect x="6.2" y="0.5" width="2.9" height="4.8"/>
            <rect x="14.9" y="0.5" width="2.9" height="4.8"/>
            <line x1="8.2" y1="8.2" x2="8.2" y2="23.5"/>
            <line x1="15.8" y1="8.2" x2="15.8" y2="23.5"/>
            <line x1="0.5" y1="8.2" x2="23.5" y2="8.2"/>
            <line x1="0.5" y1="15.8" x2="23.5" y2="15.8"/>
        </g>
    </symbol>
    <symbol id="check" viewBox="0 0 24 24">
        <circle stroke="currentColor" fill="none" stroke-miterlimit="10" cx="12" cy="12" r="11.5"/>
        <path fill="currentColor" d="M16,8.1l-6.3,5.8L8,12.3C7.9,12.1,7.6,12,7.4,12s-0.5,0.1-0.6,0.3c-0.2,0.2-0.3,0.4-0.3,0.6s0.1,0.5,0.3,0.6L9,15.9
        c0.2,0.2,0.4,0.3,0.6,0.3c0.3,0,0.5-0.1,0.6-0.3l6.9-6.5c0.2-0.2,0.3-0.4,0.3-0.7c0-0.5-0.4-0.9-0.9-0.9C16.4,7.8,16.1,7.9,16,8.1
        L16,8.1z"/>
    </symbol>
    <symbol id="chevron" viewBox="0 0 24 24">
        <polyline stroke="currentColor" fill="none" stroke-linecap="round" stroke-linejoin="round" points="6.2,23.5 17.8,11.9 6.5,0.5 "/>
    </symbol>
    <symbol id="chip-check" viewBox="0 0 24 24">
        <circle fill="currentColor" cx="12" cy="12" r="12"/>
        <path fill="#fff" d="M16,8.1l-6.3,5.8L8,12.3C7.9,12.1,7.6,12,7.4,12s-0.5,0.1-0.6,0.3c-0.2,0.2-0.3,0.4-0.3,0.6s0.1,0.5,0.3,0.6
            L9,15.9c0.2,0.2,0.4,0.3,0.6,0.3c0.3,0,0.5-0.1,0.6-0.3l6.9-6.5c0.2-0.2,0.3-0.4,0.3-0.7c0-0.5-0.4-0.9-0.9-0.9
            C16.4,7.8,16.1,7.9,16,8.1L16,8.1z"/>
    </symbol>
    <symbol id="chip-close" viewBox="0 0 24 24">
        <circle fill="currentColor" cx="12" cy="12" r="12"/>
        <path fill="#fff" d="M13.1,12l4.4-4.4c0.3-0.3,0.3-0.8,0-1.1s-0.8-0.3-1.1,0L12,10.9L7.6,6.6c-0.3-0.3-0.8-0.3-1.1,0s-0.3,0.8,0,1.1
            l4.4,4.4l-4.4,4.4c-0.3,0.3-0.3,0.8,0,1.1c0.1,0.1,0.3,0.2,0.5,0.2s0.4-0.1,0.5-0.2l4.4-4.4l4.4,4.4c0.1,0.1,0.3,0.2,0.5,0.2
            s0.4-0.1,0.5-0.2c0.3-0.3,0.3-0.8,0-1.1L13.1,12z"/>
    </symbol>
    <symbol id="chip-error" viewBox="0 0 24 24">
        <circle fill="currentColor" cx="12" cy="12" r="12"/>
        <path fill="#fff" d="M12,14.3c0.5,0,0.9-0.4,0.9-0.9V6c0-0.5-0.4-0.9-0.9-0.9S11.1,5.5,11.1,6v7.4C11.1,13.9,11.5,14.3,12,14.3z"/>
        <path fill="#fff" d="M13.4,17.5c0,0.8-0.6,1.4-1.4,1.4s-1.4-0.6-1.4-1.4c0-0.8,0.6-1.3,1.4-1.3S13.4,16.8,13.4,17.5z"/>
    </symbol>
    <symbol id="chip-info" viewBox="0 0 24 24">
        <circle fill="currentColor" cx="11.9" cy="12" r="12"/>
        <path fill="#fff" d="M10.6,6.5c0-0.8,0.6-1.4,1.4-1.4s1.4,0.6,1.4,1.4S12.8,7.8,12,7.8S10.6,7.2,10.6,6.5z"/>
        <path fill="#fff" d="M12,9.7c-0.5,0-0.9,0.4-0.9,0.9V18c0,0.5,0.4,0.9,0.9,0.9s0.9-0.4,0.9-0.9v-7.4C12.9,10.1,12.5,9.7,12,9.7z"/>
    </symbol>
    <symbol id="chip-warning" viewBox="0 0 24 24">
        <path fill="currentColor" d="M0.8,24h22.3c0.6,0,1-0.7,0.7-1.2L12.7,0.5c-0.3-0.6-1.2-0.6-1.5,0L0.1,22.8C-0.2,23.3,0.2,24,0.8,24z"/>
        <path fill="#fff" d="M12,16.2c0.5,0,0.9-0.4,0.9-0.9V7.9C12.9,7.4,12.5,7,12,7s-0.9,0.4-0.9,0.9v7.4C11.1,15.8,11.5,16.2,12,16.2z"
            />
        <path fill="#fff" d="M13.4,19.5c0,0.8-0.6,1.4-1.4,1.4s-1.4-0.6-1.4-1.4s0.6-1.4,1.4-1.4S13.4,18.7,13.4,19.5z"/>
    </symbol>
    <symbol id="clock" viewBox="0 0 24 24">
        <g stroke="currentColor" fill="none">
            <circle cx="12" cy="12" r="11.5"/>
            <polyline points="20.3,12 12,12 12,4.7 	"/>
        </g>
    </symbol>
    <symbol id="close" viewBox="0 0 24 24">
        <line fill="none" stroke="currentColor" stroke-linecap="round" stroke-linejoin="round" x1="0.6" y1="0.6" x2="23.4" y2="23.4"/>
        <line fill="none" stroke="currentColor" stroke-linecap="round" stroke-linejoin="round" x1="23.4" y1="0.6" x2="0.6" y2="23.4"/>
    </symbol>
    <symbol id="code-chevrons" viewBox="0 0 24 24">
        <polyline stroke="currentColor" fill="none" points="7.5,17.5 0.5,11.8 7.1,6.5 "/>
        <polyline stroke="currentColor" fill="none" points="16.5,6.5 23.5,12.2 16.9,17.5 "/>
        <line stroke="currentColor" x1="9.2" y1="18.5" x2="14.8" y2="5.5"/>
    </symbol>
    <symbol id="down-arrow" viewBox="0 0 24 24">
        <polygon fill="currentColor" points="0,7 24,7 12,19 "/>
    </symbol>
    <symbol id="down-chevron" viewBox="0 0 24 24">
        <polyline stroke="currentColor" fill="none" stroke-linecap="round" stroke-linejoin="round" points="0.4,6.4 11.9,17.9 23.6,6.1 "/>
    </symbol>
    <symbol id="error" viewBox="0 0 24 24">
        <circle stroke="currentColor" fill="none" stroke-miterlimit="10" cx="12" cy="12" r="11.5"/>
        <path fill="currentColor" d="M13.4,17.5c0,0.8-0.6,1.4-1.4,1.4s-1.4-0.6-1.4-1.4c0-0.8,0.6-1.3,1.4-1.3S13.4,16.8,13.4,17.5z"/>
        <path fill="currentColor" d="M12,14.3c0.5,0,0.9-0.4,0.9-0.9V6c0-0.5-0.4-0.9-0.9-0.9S11.1,5.5,11.1,6v7.4C11.1,13.9,11.5,14.3,12,14.3z"/>
    </symbol>
    <symbol id="heraldry" viewBox="0 0 24 24">
        <path fill="currentColor" d="M20.64 0.8v17.84c0 1.12-0.88 2.080-2 2.080h-4.4c-0.72 0-1.6 0.4-2.16 1.36-0.56-0.96-1.44-1.36-2.16-1.36h-4.56c-1.12 0-2-0.88-2-2.080v-17.84h17.28zM21.44 0h-18.88v18.64c0 1.6 1.2 2.88 2.8 2.88h4.4c0.56 0 1.36 0.4 1.76 1.52l0.24 0.64c0.080 0.16 0.16 0.24 0.24 0.24s0.16-0.080 0.24-0.24l0.24-0.64c0.4-1.12 1.12-1.52 1.76-1.52h4.4c1.6 0 2.8-1.28 2.8-2.88v-18.64z"></path>
        <path fill="currentColor" d="M18.32 4.24h-9.68c-0.24 0-0.4-0.16-0.4-0.4s0.16-0.4 0.4-0.4h9.68c0.24 0 0.4 0.16 0.4 0.4s-0.16 0.4-0.4 0.4z"></path>
        <path fill="currentColor" d="M18.32 7.68h-12.64c-0.24 0-0.4-0.16-0.4-0.4s0.16-0.4 0.4-0.4h12.64c0.24 0 0.4 0.16 0.4 0.4s-0.16 0.4-0.4 0.4z"></path>
        <path fill="currentColor" d="M18.32 11.12h-12.64c-0.24 0-0.4-0.16-0.4-0.4s0.16-0.4 0.4-0.4h12.64c0.24 0 0.4 0.16 0.4 0.4s-0.16 0.4-0.4 0.4z"></path>
        <path fill="currentColor" d="M18.32 14.56h-12.64c-0.24 0-0.4-0.16-0.4-0.4s0.16-0.4 0.4-0.4h12.64c0.24 0 0.4 0.16 0.4 0.4s-0.16 0.4-0.4 0.4z"></path>
        <path fill="currentColor" d="M18.32 18h-12.64c-0.24 0-0.4-0.16-0.4-0.4s0.16-0.4 0.4-0.4h12.64c0.24 0 0.4 0.16 0.4 0.4s-0.16 0.4-0.4 0.4z"></path>
    </symbol>
    <symbol id="information" viewBox="0 0 24 24">
        <circle stroke="currentColor" fill="none" stroke-miterlimit="10" class="st0" cx="12" cy="12" r="11.5"/>
        <path fill="currentColor" d="M10.6,6.5c0-0.8,0.6-1.4,1.4-1.4s1.4,0.6,1.4,1.4S12.8,7.8,12,7.8S10.6,7.2,10.6,6.5z"/>
        <path fill="currentColor" d="M12,9.7c-0.5,0-0.9,0.4-0.9,0.9V18c0,0.5,0.4,0.9,0.9,0.9s0.9-0.4,0.9-0.9v-7.4C12.9,10.1,12.5,9.7,12,9.7z"/>
    </symbol>
    <symbol id="left-arrow" viewBox="0 0 24 24">
        <polygon fill="currentColor" points="17,0 17,24 5,12 "/>
    </symbol>
    <symbol id="left-chevron" viewBox="0 0 24 24">
        <polyline stroke="currentColor" fill="none" stroke-linecap="round" stroke-linejoin="round" points="17.5,0.5 6.2,11.9 17.8,23.5 "/>
    </symbol>
    <symbol id="options" viewBox="0 0 24 24">
        <g fill="currentColor">
            <circle cx="12" cy="3" r="3"/>
            <circle cx="12" cy="12" r="3"/>
            <circle cx="12" cy="21" r="3"/>
        </g>
    </symbol>
    <symbol id="search" viewBox="0 0 24 24">
        <g stroke="currentColor" fill="none">
            <circle cx="8.5" cy="8.5" r="8.1"/>
            <line x1="23.6" y1="23.6" x2="14.2" y2="14.2"/>
        </g>
    </symbol>
    <symbol id="top-arrow" viewBox="0 0 24 24">
        <polygon fill="currentColor" points="24,17 0,17 12,5 "/>
    </symbol>
    <symbol id="top-chevron" viewBox="0 0 24 24">
        <polyline stroke="currentColor" fill="none" stroke-linecap="round" stroke-linejoin="round" points="23.5,17.8 11.9,6.2 0.5,17.5 "/>
    </symbol>
    <symbol id="warning" viewBox="0 0 24 24">
        <path stroke="currentColor" fill="none" d="M1.3,23.5h21.5c0.6,0,1-0.7,0.7-1.2L12.7,0.9c-0.3-0.6-1.2-0.6-1.4,0L0.6,22.4C0.3,22.8,0.7,23.5,1.3,23.5z"/>
        <path fill="currentColor" d="M12,16.2c0.5,0,0.9-0.4,0.9-0.9V7.9C12.9,7.4,12.5,7,12,7s-0.9,0.4-0.9,0.9v7.4C11.1,15.8,11.5,16.2,12,16.2z"/>
        <path fill="currentColor" d="M13.4,19.5c0,0.8-0.6,1.4-1.4,1.4s-1.4-0.6-1.4-1.4s0.6-1.4,1.4-1.4S13.4,18.7,13.4,19.5z"/>
    </symbol>
</svg>
