<svg>
    <symbol id="m-svg__error-system-not-available" x="0px" y="0px" viewBox="0 0 150 169" enable-background="new 0 0 150 169" xml:space="preserve">
        <g>
            <g>
                <path fill="#FFFFFF" d="M68,110.6v0.5C68,110.9,68,110.8,68,110.6L68,110.6z"/>
                <path d="M68,110.6L68,110.6c0,0.2,0,0.3,0,0.5V110.6L68,110.6z"/>
            </g>
            <g>
                <g>
                    <path d="M130.2,48.2l1-0.2c0.2,0,0.4-0.4,0.2-0.6l-2.3-4.5c0,0,0-0.1,0-0.1l-0.5-3.1c0-0.2-0.2-0.4-0.4-0.3l-1,0.2
                        c-0.2,0-0.3,0.2-0.3,0.5l0.5,3.1c0,0,0,0.1,0,0.1l2.4,4.8C129.9,48.1,130,48.2,130.2,48.2z"/>
                </g>
                <g>
                    <path fill="#FFFFFF" d="M30,18.6c0,0.2,0,0.3,0,0.5L30,18.6L30,18.6z"/>
                    <path d="M30,18.6L30,18.6l0,0.5C30,18.9,30,18.8,30,18.6L30,18.6z"/>
                </g>
                <g>
                    <path fill="#FFFFFF" d="M111,18.6v0.5C111,18.9,111,18.8,111,18.6L111,18.6z"/>
                    <path d="M111,18.6L111,18.6c0,0.2,0,0.3,0,0.5V18.6L111,18.6z"/>
                </g>
                <g>
                    <g>
                        <rect x="35" y="79.6" fill="#E30513" width="71" height="68"/>
                        <g>
                            <path d="M105,80.6v66H36v-66H105 M107,78.6H34v70h73V78.6L107,78.6z"/>
                        </g>
                    </g>
                    <polygon fill="#C40622" points="106,90.6 106,100.6 35,107.6 35,90.6 			"/>
                    <g>
                        <rect x="35" y="115.6" fill="#F9F9F9" width="71" height="3"/>
                    </g>
                    <g>
                        <rect x="35" y="121.6" fill="#F9F9F9" width="71" height="3"/>
                    </g>
                    <g>
                        <g>
                            <path d="M105,80.6v66H36v-66H105 M107,78.6H34v70h73V78.6L107,78.6z"/>
                        </g>
                    </g>
                </g>
                <g>
                    <path fill="#E30513" d="M31.5,92.8c-2.5,0-4.5-2-4.5-4.5V20.7c0-0.2,0-0.3,0-0.5C27.6,9.9,47.1,1.4,70.5,1.4s42.9,8.4,43.5,18.8
                        c0,0.2,0,0.3,0,0.5v67.6c0,2.5-2,4.5-4.5,4.5H31.5z"/>
                    <g>
                        <path d="M70.5,2.4c11.4,0,22.2,2,30.3,5.6c7.5,3.3,12,7.8,12.2,12.3c0,0.1,0,0.3,0,0.4v67.6c0,1.9-1.6,3.5-3.5,3.5h-78
                            c-1.9,0-3.5-1.6-3.5-3.5V20.7c0-0.1,0-0.3,0-0.4c0.3-4.5,4.7-8.9,12.2-12.3C48.3,4.4,59.1,2.4,70.5,2.4 M70.5,0.4
                            C46.3,0.4,26.6,9.2,26,20.2c0,0.2,0,0.4,0,0.5v67.6c0,3,2.5,5.5,5.5,5.5h78c3,0,5.5-2.5,5.5-5.5V20.7c0-0.2,0-0.4,0-0.5
                            C114.4,9.2,94.7,0.4,70.5,0.4L70.5,0.4z"/>
                    </g>
                </g>
                <g>
                    <path fill="#F4F4F4" d="M39.2,64.6c-1.8,0-3.4-1-3.4-2.2V22.7c0-0.1,0-0.2,0-0.2c0.4-5.2,14.5-10.7,34.7-10.7s34.3,5.5,34.7,10.7
                        c0,0.1,0,0.2,0,0.2v39.7c0,1.2-1.6,2.2-3.4,2.2H39.2z"/>
                    <g>
                        <path d="M70.5,12.8c21.2,0,33.4,5.8,33.7,9.8c0,0.1,0,0.1,0,0.2v39.7c0,0.5-1,1.2-2.4,1.2H39.2c-1.4,0-2.4-0.7-2.4-1.2V22.7
                            c0-0.1,0-0.1,0-0.2C37.1,18.6,49.3,12.8,70.5,12.8 M70.5,10.8c-19.4,0-35.2,5.2-35.7,11.6c0,0.1,0,0.2,0,0.3v39.7
                            c0,1.8,2,3.2,4.4,3.2h62.6c2.4,0,4.4-1.4,4.4-3.2V22.7c0-0.1,0-0.2,0-0.3C105.7,15.9,89.9,10.8,70.5,10.8L70.5,10.8z"/>
                    </g>
                </g>
                <g>
                    <g>
                        <path fill="#929292" d="M33,153.6v-8c0-1.1,0.9-2,2-2h71c1.1,0,2,0.9,2,2v8H33z"/>
                        <g>
                            <path d="M106,144.6c0.6,0,1,0.4,1,1v7H34v-7c0-0.6,0.4-1,1-1H106 M106,142.6H35c-1.7,0-3,1.3-3,3v9h77v-9
                                C109,143.9,107.7,142.6,106,142.6L106,142.6z"/>
                        </g>
                    </g>
                    <g>
                        <path fill="#D7D7D7" d="M106.1,144.6H34.9c-1.1,0-1.9,0.9-1.9,1.9v0.1h75v-0.1C108,145.5,107.1,144.6,106.1,144.6z"/>
                    </g>
                    <g>
                        <g>
                            <path d="M106,144.6c0.6,0,1,0.4,1,1v7H34v-7c0-0.6,0.4-1,1-1H106 M106,142.6H35c-1.7,0-3,1.3-3,3v9h77v-9
                                C109,143.9,107.7,142.6,106,142.6L106,142.6z"/>
                        </g>
                    </g>
                </g>
                <g>
                    <g>
                        <rect x="54" y="21.6" fill="#3D3D3D" width="4.7" height="9"/>
                    </g>
                    <g>
                        <rect x="61.1" y="21.6" fill="#3D3D3D" width="4.7" height="9"/>
                    </g>
                    <g>
                        <rect x="68.1" y="21.6" fill="#3D3D3D" width="4.7" height="9"/>
                    </g>
                    <g>
                        <rect x="75.2" y="21.6" fill="#3D3D3D" width="4.7" height="9"/>
                    </g>
                    <g>
                        <rect x="82.3" y="21.6" fill="#3D3D3D" width="4.7" height="9"/>
                    </g>
                </g>
                <g>
                    <g>
                        <path d="M127.2,124.8c0.2,0,0.5,0,0.7,0c5.6-0.4,11.4-5.6,11.2-14.3c-0.2-8.5-3.4-15.8-6.7-23.5c-3.8-8.8-2.8-18.5-2.8-30.4
                            h-3.2c0,12.6-0.9,22.6,3.1,31.7c3.2,7.4,6.2,14.5,6.4,22.3c0.2,6.7-4.1,10.7-8.2,11c-3.3,0.3-6.9-1.8-7.7-8.4
                            c-1.3-10,0-17.8,1-23.4c0.6-3.7,1.1-6.4,0.6-8.5c-1.1-4.6-4.7-5.8-6.5-5.8v3.2c0.3,0,2.7,0.2,3.4,3.4c0.3,1.5-0.1,4-0.6,7.3
                            c-1,5.8-2.3,13.8-1,24.3C117.9,121.9,122.9,124.8,127.2,124.8z"/>
                    </g>
                </g>
                <g>
                    <path fill="#696969" d="M124.4,62.3v-1.8h1.1c0.4,0,0.8-0.3,0.8-0.8v-0.8h2.5v0.8c0,0.4,0.3,0.8,0.8,0.8h1.1v1.8H124.4z"/>
                    <path d="M128,59.7L128,59.7c0,0.9,0.7,1.6,1.5,1.6h0.4v0.3h-4.7v-0.3h0.4c0.8,0,1.5-0.7,1.5-1.5v-0.1H128 M129.5,58.2h-4v1.6
                        h-1.9v3.3h7.7v-3.3h-1.9V58.2L129.5,58.2z"/>
                </g>
                <g>
                    <rect x="124.4" y="57.2" width="6.1" height="1.3"/>
                    <path d="M129.9,57.8L129.9,57.8l-4.9,0v0H129.9 M131.2,56.5h-7.4v2.6h7.4V56.5L131.2,56.5z"/>
                </g>
                <g>
                    <path fill="#D7D7D7" d="M128,24.2l9.4-15.7c0.1-0.2,0.3-0.2,0.4-0.2c0.1,0,0.2,0,0.3,0.1l2.7,1.6c0.1,0.1,0.2,0.2,0.2,0.3
                        c0,0.1,0,0.3-0.1,0.4l-9.4,15.7L128,24.2z"/>
                    <path d="M138,8.8L138,8.8L138,8.8 M137.9,9.1l2.3,1.3l-8.9,14.9l-2.3-1.3L137.9,9.1 M137.8,7.5c-0.4,0-0.8,0.2-1.1,0.6L127,24.5
                        l4.8,2.9l9.8-16.4c0.4-0.6,0.2-1.4-0.4-1.7l-2.7-1.6C138.2,7.5,138,7.5,137.8,7.5L137.8,7.5z"/>
                </g>
                <g>
                    <path fill="#E30513" d="M120.7,56.5c-0.8,0-1.4-0.6-1.4-1.4V32.6c0-0.4,0.2-0.7,0.4-1l8.4-8.1c0.1-0.1,0.2-0.1,0.4-0.1
                        c0.1,0,0.2,0,0.3,0.1l3.5,2c0.2,0.1,0.3,0.3,0.2,0.6l-0.4,1.9c-0.1,0.3,0,0.5,0.2,0.7l3,3c0.3,0.3,0.4,0.6,0.4,1v22.5
                        c0,0.8-0.6,1.4-1.4,1.4H120.7z M127.2,39.9c-1.2,0-2.2,1-2.2,2.3V50c0,1.1,0.8,2,1.8,2.2l3.6,0.7c0.1,0,0.3,0,0.5,0
                        c1.2,0,2.3-1,2.3-2.3v-7.7c0-1-0.7-1.9-1.7-2.2l-3.6-0.9C127.5,39.9,127.4,39.9,127.2,39.9z"/>
                    <path d="M128.6,24.2l3.2,1.9l-0.4,1.7c-0.1,0.5,0,1,0.4,1.4l3,3c0.1,0.1,0.2,0.3,0.2,0.4v22.5c0,0.3-0.3,0.6-0.6,0.6h-13.6
                        c-0.3,0-0.6-0.3-0.6-0.6V32.6c0-0.2,0.1-0.3,0.2-0.4L128.6,24.2 M130.8,53.7c1.7,0,3-1.4,3-3v-7.7c0-1.4-0.9-2.6-2.3-2.9
                        l-3.6-0.9c-0.2-0.1-0.5-0.1-0.7-0.1c-1.7,0-3,1.3-3,3V50c0,1.4,1,2.7,2.4,3l3.6,0.7C130.4,53.7,130.6,53.7,130.8,53.7
                        M128.5,22.7c-0.3,0-0.6,0.1-0.9,0.4l-8.4,8.1c-0.4,0.4-0.7,1-0.7,1.5v22.5c0,1.2,1,2.1,2.1,2.1h13.6c1.2,0,2.1-1,2.1-2.1V32.6
                        c0-0.6-0.2-1.1-0.6-1.5l-3-3l0.4-1.9c0.1-0.5-0.1-1.1-0.6-1.4l-3.5-2C129,22.7,128.8,22.7,128.5,22.7L128.5,22.7z M130.8,52.2
                        c-0.1,0-0.2,0-0.3,0l-3.6-0.7c-0.7-0.1-1.2-0.8-1.2-1.5v-7.8c0-0.9,0.7-1.5,1.5-1.5c0.1,0,0.3,0,0.4,0l3.6,0.9
                        c0.7,0.2,1.1,0.8,1.1,1.5v7.7C132.3,51.6,131.6,52.2,130.8,52.2L130.8,52.2z"/>
                </g>
                <g>
                    <g>
                        <rect x="61.1" y="34.6" fill="#3D3D3D" width="4.7" height="9"/>
                    </g>
                    <g>
                        <rect x="68.1" y="34.6" fill="#3D3D3D" width="4.7" height="9"/>
                    </g>
                    <g>
                        <rect x="75.2" y="34.6" fill="#3D3D3D" width="4.7" height="9"/>
                    </g>
                </g>
                <g>
                    <g>
                        <rect x="59.5" y="50.6" fill="#929292" width="22" height="1"/>
                    </g>
                    <g>
                        <rect x="62" y="52.6" fill="#929292" width="17" height="1"/>
                    </g>
                    <g>
                        <rect x="62" y="56.6" fill="#929292" width="17" height="1"/>
                    </g>
                    <g>
                        <rect x="64" y="54.6" fill="#929292" width="13" height="1"/>
                    </g>
                </g>
                <g>
                    <path d="M128.6,24.2l3.2,1.9l-0.4,1.7c-0.1,0.5,0,1,0.4,1.4l3,3c0.1,0.1,0.2,0.3,0.2,0.4v22.5c0,0.3-0.3,0.6-0.6,0.6h-13.6
                        c-0.3,0-0.6-0.3-0.6-0.6V32.6c0-0.2,0.1-0.3,0.2-0.4L128.6,24.2 M130.8,53.7c1.7,0,3-1.4,3-3v-7.7c0-1.4-0.9-2.6-2.3-2.9
                        l-3.6-0.9c-0.2-0.1-0.5-0.1-0.7-0.1c-1.7,0-3,1.3-3,3V50c0,1.4,1,2.7,2.4,3l3.6,0.7C130.4,53.7,130.6,53.7,130.8,53.7
                        M128.5,22.7c-0.3,0-0.6,0.1-0.9,0.4l-8.4,8.1c-0.4,0.4-0.7,1-0.7,1.5v22.5c0,1.2,1,2.1,2.1,2.1h13.6c1.2,0,2.1-1,2.1-2.1V32.6
                        c0-0.6-0.2-1.1-0.6-1.5l-3-3l0.4-1.9c0.1-0.5-0.1-1.1-0.6-1.4l-3.5-2C129,22.7,128.8,22.7,128.5,22.7L128.5,22.7z M130.8,52.2
                        c-0.1,0-0.2,0-0.3,0l-3.6-0.7c-0.7-0.1-1.2-0.8-1.2-1.5v-7.8c0-0.9,0.7-1.5,1.5-1.5c0.1,0,0.3,0,0.4,0l3.6,0.9
                        c0.7,0.2,1.1,0.8,1.1,1.5v7.7C132.3,51.6,131.6,52.2,130.8,52.2L130.8,52.2z"/>
                </g>
                <path opacity="0.65" fill="#FFFFFF" d="M38.5,23.1v27.5l39-35.5c-31-2-39.1,8.3-39.1,8.3"/>
            </g>
            <ellipse opacity="0.5" fill="#D7D7D7" cx="75" cy="166.1" rx="75" ry="2.5"/>
        </g>
    </symbol>
    <symbol id="m-svg__error-access-denied"  x="0px" y="0px" viewBox="0 0 150 148" enable-background="new 0 0 150 148" xml:space="preserve">
        <g>
            <g>
                <g>
                    <g>
                        <g>
                            <path fill="#D7D7D7" d="M109.4,35.4v24.3H95.1V36.1c0-0.3,0-0.5,0-0.8c-0.4-10.7-9.2-19.3-20-19.3s-19.6,8.6-20,19.3
                                c0,0.3,0,0.5,0,0.8v23.5H40.6V35.4C40.6,16.4,56,1,75,1S109.4,16.4,109.4,35.4z"/>
                        </g>
                    </g>
                    <g>
                        <path fill="#F4F4F4" d="M76.4,5.9L76.4,5.9c0,0.9-0.7,1.7-1.6,1.8C59.8,8.5,47.9,20.9,47.9,36.1c0,0.1,0,0.2,0,0.4v21.2
                            c0,0.1,0,0.1-0.1,0.1h-3.3c-0.1,0-0.1,0-0.1-0.1V36.1c0-17,13.3-30.9,30.1-31.9C75.5,4.1,76.4,4.9,76.4,5.9z"/>
                    </g>
                    <path fill="#FFFFFF" d="M46.9,36.1v0.4C46.9,36.3,46.9,36.2,46.9,36.1L46.9,36.1z"/>
                    <g>
                        <path fill="#FFC103" d="M32.7,132c-1.1,0-1.9-0.9-1.9-1.9V60.5c0-1.1,0.9-1.9,1.9-1.9h84.6c1.1,0,1.9,0.9,1.9,1.9v69.6
                            c0,1.1-0.9,1.9-1.9,1.9H32.7z"/>
                        <path d="M117.3,59.6c0.5,0,0.9,0.4,0.9,0.9v69.6c0,0.5-0.4,0.9-0.9,0.9H32.7c-0.5,0-0.9-0.4-0.9-0.9V60.5c0-0.5,0.4-0.9,0.9-0.9
                            H117.3 M117.3,57.6H32.7c-1.6,0-2.9,1.3-2.9,2.9v69.6c0,1.6,1.3,2.9,2.9,2.9h84.6c1.6,0,2.9-1.3,2.9-2.9V60.5
                            C120.2,58.9,118.9,57.6,117.3,57.6L117.3,57.6z"/>
                    </g>
                    <polygon opacity="0.25" fill="#FFFFFF" points="70.3,59.1 52.6,79.5 31,108.2 31,70 31,59 40.1,59.1 			"/>
                    <polygon opacity="0.25" fill="#FFFFFF" points="89.7,58.8 63.3,89.3 31,132 31,75.1 31,58.8 44.6,58.8 			"/>
                    <path d="M80.5,91.2l4.6,26.8H64.9l4.6-26.8c-2.8-1.8-4.6-4.9-4.6-8.4c0-4.7,3.3-8.7,7.7-9.8c0.8-0.2,1.5-0.3,2.3-0.3
                        c0.8,0,1.6,0.1,2.3,0.3c4.4,1.1,7.7,5,7.7,9.8C85.1,86.3,83.2,89.4,80.5,91.2z"/>
                    <g>
                        <path d="M117.3,59.6c0.5,0,0.9,0.4,0.9,0.9v69.6c0,0.5-0.4,0.9-0.9,0.9H32.7c-0.5,0-0.9-0.4-0.9-0.9V60.5c0-0.5,0.4-0.9,0.9-0.9
                            H117.3 M117.3,57.6H32.7c-1.6,0-2.9,1.3-2.9,2.9v69.6c0,1.6,1.3,2.9,2.9,2.9h84.6c1.6,0,2.9-1.3,2.9-2.9V60.5
                            C120.2,58.9,118.9,57.6,117.3,57.6L117.3,57.6z"/>
                    </g>
                    <g>
                        <g>
                            <path d="M75,3c17.8,0,32.4,14.5,32.4,32.4v22.3H97.1V36.1c0-0.3,0-0.6,0-0.9c-0.5-11.8-10.1-21.1-22-21.1s-21.6,9.3-22,21.1
                                c0,0.4,0,0.7,0,0.9v21.5H42.6V35.4C42.6,17.5,57.2,3,75,3 M75,1C56,1,40.6,16.4,40.6,35.4v24.3h14.3V36.1c0-0.3,0-0.5,0-0.8
                                c0.4-10.7,9.2-19.3,20-19.3s19.6,8.6,20,19.3c0,0.3,0,0.5,0,0.8v23.5h14.3V35.4C109.4,16.4,94,1,75,1L75,1z"/>
                        </g>
                    </g>
                </g>
            </g>
            <ellipse opacity="0.5" fill="#D7D7D7" cx="75" cy="144.5" rx="75" ry="2.5"/>
        </g>
    </symbol>
    <symbol id="m-svg__error-browser-not-supported" x="0px" y="0px" viewBox="0 0 150.1 115.3" enable-background="new 0 0 150.1 115.3" xml:space="preserve">
        <g>
            <path fill="none" stroke="#000000" stroke-width="7" stroke-linejoin="round" stroke-miterlimit="10" d="M27.7,23.8
                C6.3,31.2,13.4,45.7,15.5,51.2c1.1,2.8,2.5,5.3,3.8,9c2.4,7.1,2,18-4.7,24.3c-3.7,3.4-8.9,5.1-14.5,5"/>
            <path d="M150.1,55.4v9c-1.2,1.3-2.2,2.6-3,3.8c-0.2,0.3-0.4,0.6-0.6,0.8c-0.7,0.9-1.3,1.9-2,2.9c-1,1.5-2.1,3.3-3.7,5.2
                c-7.7,9.5-18.7,12-26.1,10.3c-0.2,0-0.4-0.1-0.6-0.1c-5.7-1.5-10.7-5.5-14-11.2l6-3.5c2.4,4.1,5.9,7,9.8,8
                c7.1,1.9,15.3-2.6,19.5-7.8c1.3-1.6,2.3-3.2,3.3-4.6c0.7-1.1,1.4-2.2,2.2-3.3c0.2-0.2,0.4-0.5,0.6-0.8
                C143.2,61.7,146,57.9,150.1,55.4z"/>
            <ellipse opacity="0.5" fill="#D7D7D7" cx="75.1" cy="112.8" rx="75" ry="2.5"/>
            <g>

                    <polygon fill="#3D3D3D" stroke="#000000" stroke-width="2" stroke-linecap="round" stroke-linejoin="round" stroke-miterlimit="10" points="
                    67.8,33.5 63.7,30.7 63.6,30.6 60.7,14.7 60.8,14.4 65.6,1 79.4,16.8 74.5,30.5 		"/>
                <polygon stroke="#000000" stroke-width="2" stroke-linecap="round" stroke-linejoin="round" stroke-miterlimit="10" points="
                    67.8,33.5 43,38 38.9,35.2 63.7,30.7 		"/>

                    <line fill="none" stroke="#000000" stroke-width="2" stroke-linecap="round" stroke-linejoin="round" stroke-miterlimit="10" x1="60.8" y1="14.4" x2="60.9" y2="14.4"/>

                    <line fill="none" stroke="#000000" stroke-width="2" stroke-linecap="round" stroke-linejoin="round" stroke-miterlimit="10" x1="35.9" y1="18.9" x2="36" y2="18.9"/>

                    <line fill="none" stroke="#000000" stroke-width="2" stroke-linecap="round" stroke-linejoin="round" stroke-miterlimit="10" x1="38.8" y1="35.2" x2="38.9" y2="35.2"/>

                    <line fill="none" stroke="#000000" stroke-width="2" stroke-linecap="round" stroke-linejoin="round" stroke-miterlimit="10" x1="63.7" y1="30.7" x2="63.8" y2="30.7"/>

                    <polygon fill="#282828" stroke="#000000" stroke-width="2" stroke-linecap="round" stroke-linejoin="round" stroke-miterlimit="10" points="
                    63.7,30.7 38.9,35.2 38.8,35.1 35.9,19.1 36,18.9 60.8,14.4 60.7,14.7 63.6,30.6 		"/>

                    <path fill="#282828" stroke="#000000" stroke-width="2" stroke-linecap="round" stroke-linejoin="round" stroke-miterlimit="10" d="
                    M37.9,30.2l-10,1.8c-1.4,0.2-3.2-3.2-4-7.7c-0.8-4.5-0.3-8.3,1-8.6l13-2.3l-2,5.5l-0.1,0.2L37.9,30.2z"/>

                    <polygon fill="#FFC103" stroke="#000000" stroke-width="2" stroke-linecap="round" stroke-linejoin="round" stroke-miterlimit="10" points="
                    65.7,13.6 67.4,8.1 90,4 88.3,9.5 		"/>

                    <polygon fill="#FFC103" stroke="#000000" stroke-width="2" stroke-linecap="round" stroke-linejoin="round" stroke-miterlimit="10" points="
                    73.5,22.5 75.2,17 97.7,12.9 96,18.4 		"/>

                    <path fill="#BCBCBC" stroke="#000000" stroke-width="2" stroke-linecap="round" stroke-linejoin="round" stroke-miterlimit="10" d="
                    M88.5,24.9l-20,3.6c-0.7,0.1-1.5-0.9-1.7-2.3c-0.2-1.4,0.1-2.6,0.8-2.7l20-3.6c1.4-0.2,2.7,0.7,3,2c0.1,0.7,0,1.4-0.4,1.9
                    C89.7,24.4,89.1,24.8,88.5,24.9z"/>

                    <rect x="28.6" y="11.3" transform="matrix(0.1777 0.9841 -0.9841 0.1777 42.7936 -15.4802)" opacity="0.3" fill="#EAEAEA" width="4.2" height="13.2"/>

                    <rect x="23.9" y="21.2" transform="matrix(0.9841 -0.1777 0.1777 0.9841 -3.3753 5.7064)" opacity="0.3" fill="#EAEAEA" width="12.6" height="1.1"/>
                <path opacity="0.7" fill="#FFFFFF" d="M68.2,25.5L68.2,25.5c-0.1-0.3,0.1-0.6,0.4-0.6l19.7-3.6c0.3-0.1,0.6,0.1,0.6,0.4v0
                    c0.1,0.3-0.1,0.6-0.4,0.6L68.8,26C68.5,26,68.2,25.8,68.2,25.5z"/>
                <path fill="none" stroke="#000000" stroke-width="2" stroke-linecap="round" stroke-linejoin="round" stroke-miterlimit="10" d="
                    M37.9,30.2l-10,1.8c-1.4,0.2-3.2-3.2-4-7.7c-0.8-4.5-0.3-8.3,1-8.6l13-2.3l-2,5.5l-0.1,0.2L37.9,30.2z"/>

                    <polygon fill="#5B5B5B" stroke="#000000" stroke-width="2" stroke-linecap="round" stroke-linejoin="round" stroke-miterlimit="10" points="
                    60.8,14.4 36,18.9 38,13.4 40.8,5.5 65.6,1 		"/>
            </g>
            <g>
                <g>

                        <path fill="#282828" stroke="#000000" stroke-width="2" stroke-linecap="round" stroke-linejoin="round" stroke-miterlimit="10" d="
                        M105,65.3l9.6,6.1c1.3,0.8,0.2,5-2.5,9.3c-2.7,4.3-6,7.1-7.3,6.3l-12.5-7.9l5.8-3.1l0.2-0.1L105,65.3z"/>

                        <rect x="106.6" y="64.3" transform="matrix(0.5325 -0.8464 0.8464 0.5325 -9.7694 125.7474)" opacity="0.3" fill="#EAEAEA" width="4.7" height="14.8"/>

                        <rect x="106.1" y="68.4" transform="matrix(0.5325 -0.8464 0.8464 0.5325 -13.9912 125.5658)" opacity="0.3" fill="#EAEAEA" width="1.2" height="14.2"/>
                    <path fill="none" stroke="#000000" stroke-width="2" stroke-linecap="round" stroke-linejoin="round" stroke-miterlimit="10" d="
                        M105,65.3l9.6,6.1c1.3,0.8,0.2,5-2.5,9.3c-2.7,4.3-6,7.1-7.3,6.3l-12.5-7.9l5.8-3.1l0.2-0.1L105,65.3z"/>
                </g>
                <g>

                        <path fill="#FFC103" stroke="#000000" stroke-width="2" stroke-linecap="round" stroke-linejoin="round" stroke-miterlimit="10" d="
                        M90.1,44.3c0.6,0.4,1.2,0.9,1.5,1.6c2.2,3.8,0.7,11.7-4,19.2c-4.7,7.5-11.2,12.3-15.6,12c-0.8-0.1-1.5-0.3-2.1-0.7
                        c-4.2-2.6-3.1-12,2.5-20.9C77.9,46.8,85.9,41.7,90.1,44.3z"/>

                        <path fill="#282828" stroke="#000000" stroke-width="2" stroke-linecap="round" stroke-linejoin="round" stroke-miterlimit="10" d="
                        M91.6,46l13,16.9l0.5,0.6c0,0,0,0,0,0c0.1,0.1,0.1,0.3,0.2,0.5c0.6,2.1-0.7,6.2-3.2,10.3c-2.6,4.1-5.7,7-7.9,7.4
                        c-0.2,0-0.3,0-0.4,0.1c0,0,0,0,0,0l-0.8-0.2L72,77.2c4.4,0.4,10.8-4.4,15.6-12C92.3,57.7,93.8,49.8,91.6,46z"/>
                </g>
                <g>

                        <rect x="75.4" y="51.2" transform="matrix(0.8383 0.5452 -0.5452 0.8383 43.8488 -32.4301)" fill="#231F20" width="2.4" height="13"/>

                        <rect x="81.3" y="57.9" transform="matrix(0.5452 -0.8383 0.8383 0.5452 -13.7211 96.8873)" fill="#231F20" width="2.4" height="6.4"/>
                </g>
            </g>
        </g>
    </symbol>
    <symbol id="m-svg__error-config-not-supported" x="0px" y="0px" viewBox="0 0 153 131" enable-background="new 0 0 153 131" xml:space="preserve">
        <g>
            <g>
                <path fill="#D7D7D7" d="M14.8,114c-6.2,0-11.2-5-11.2-11.2V12.2C3.6,6,8.6,1,14.8,1h123.4c6.2,0,11.2,5,11.2,11.2v90.6
                    c0,6.2-5,11.2-11.2,11.2H14.8z"/>
                <g>
                    <path d="M138.2,2c5.6,0,10.2,4.6,10.2,10.2v90.6c0,5.6-4.6,10.2-10.2,10.2H14.8c-5.6,0-10.2-4.6-10.2-10.2V12.2
                        C4.6,6.6,9.2,2,14.8,2H138.2 M138.2,0H14.8C8,0,2.6,5.5,2.6,12.2v90.6c0,6.7,5.5,12.2,12.2,12.2h123.4c6.7,0,12.2-5.5,12.2-12.2
                        V12.2C150.4,5.5,145,0,138.2,0L138.2,0z"/>
                </g>
            </g>

                <rect x="10.4" y="7.8" fill="#98D5FF" stroke="#000000" stroke-width="0.25" stroke-linecap="round" stroke-linejoin="round" stroke-miterlimit="10" width="132.3" height="78.2"/>
            <line fill="none" stroke="#FFFFFF" stroke-width="0.5" stroke-miterlimit="10" x1="10.9" y1="47.5" x2="143.2" y2="47.5"/>
            <line fill="none" stroke="#FFFFFF" stroke-width="0.5" stroke-miterlimit="10" x1="10.4" y1="66.4" x2="142.6" y2="66.4"/>
            <line fill="none" stroke="#FFFFFF" stroke-width="0.5" stroke-miterlimit="10" x1="10.4" y1="27.3" x2="142.6" y2="27.3"/>
            <line fill="none" stroke="#FFFFFF" stroke-width="0.5" stroke-miterlimit="10" x1="77.1" y1="7.8" x2="77.1" y2="86"/>
            <line fill="none" stroke="#FFFFFF" stroke-width="0.5" stroke-miterlimit="10" x1="43.7" y1="7.8" x2="43.7" y2="86"/>
            <line fill="none" stroke="#FFFFFF" stroke-width="0.5" stroke-miterlimit="10" x1="109.3" y1="7.8" x2="109.3" y2="86"/>

                <polyline fill="none" stroke="#E30513" stroke-width="2" stroke-linecap="round" stroke-linejoin="round" stroke-miterlimit="10" points="
                10.9,47.5 28.2,47.5 29.3,50.9 32.8,40.5 35.1,45.1 40.8,17.5 47.7,67 52.3,47.5 58.1,47.5 59.2,44 61.5,49.8 63.8,42.8 66.1,47.5
                73,47.5 	"/>

                <polyline fill="none" stroke="#E30513" stroke-width="2" stroke-linecap="round" stroke-linejoin="round" stroke-miterlimit="10" points="
                71.9,47.5 89.2,47.5 90.3,48.7 93.8,42.1 96.1,46.7 101.8,45.5 108.7,50.3 113.3,47.5 119.1,47.5 120.2,47.2 122.5,48.7 124.8,46
                127.1,47.5 134,47.5 	"/>
            <circle fill="#E30513" stroke="#E30513" stroke-width="2" stroke-miterlimit="10" cx="134" cy="47.5" r="1.7"/>
            <polygon opacity="0.2" fill="#FFFFFF" points="73.9,8.1 45.2,40 10.2,84.6 10.2,25.1 10.2,8 25,8.1 	"/>

                <rect x="10.4" y="7.8" fill="none" stroke="#000000" stroke-width="2" stroke-linecap="round" stroke-linejoin="round" stroke-miterlimit="10" width="132.3" height="78.2"/>
            <circle fill="#B3040F" stroke="#000000" stroke-width="2" stroke-miterlimit="10" cx="16" cy="100" r="6"/>
            <g>
                <path fill="#0075C3" stroke="#000000" stroke-width="2" stroke-miterlimit="10" d="M74.5,106h-24c-3.3,0-6-2.7-6-6v0
                    c0-3.3,2.7-6,6-6h24V106z"/>
                <path fill="#0075C3" stroke="#000000" stroke-width="2" stroke-miterlimit="10" d="M102.5,106h-24V94h24c3.3,0,6,2.7,6,6v0
                    C108.5,103.3,105.8,106,102.5,106z"/>
            </g>
        </g>
        <ellipse opacity="0.5" fill="#D7D7D7" cx="76.3" cy="128.5" rx="75" ry="2.5"/>
    </symbol>
    <symbol id="m-svg__error-cookies-not-supported"  x="0px" y="0px" viewBox="0 0 150 143" enable-background="new 0 0 150 143" xml:space="preserve" >
        <path fill="#906145" stroke="#000000" stroke-width="2" stroke-linecap="round" stroke-linejoin="round" stroke-miterlimit="10" d="
        M140,66.1c0,8.4-1.6,16.5-4.5,23.8c-1.5-0.8-2.9-1.9-4-3.2c-2.9-3.4-4.1-8-2.9-12.7c1.4-5.3,5.7-9.1,10.7-10.1
        c0.2-0.1,0.4-0.1,0.7-0.1C140,64.6,140,65.4,140,66.1z"/>
        <path fill="#DAB67B" stroke="#000000" stroke-width="2" stroke-linecap="round" stroke-linejoin="round" stroke-miterlimit="10" d="
            M128.6,74.1c-1.2,4.6,0,9.3,2.9,12.7c1.1,1.3,2.5,2.4,4,3.2c-9.5,24.1-33,41.2-60.5,41.2c-11.4,0-22-2.9-31.3-8
            c1.9-2.3,3.3-5,4.1-8.1c0.1-0.4,0.2-0.8,0.3-1.3c2.3-11.1-4.5-22.2-15.7-25.2c-4.3-1.2-8.7-0.9-12.6,0.4c-1.7,0.6-3.3,1.4-4.8,2.3
            C11.8,83.6,10,75.1,10,66.1c0-1.9,0.1-3.8,0.3-5.7c0.4-4.3,1.1-8.5,2.3-12.5C15,39.7,19,32.1,24.2,25.6C36.1,10.6,54.5,1.1,75,1.1
            c4.6,0,9.1,0.5,13.5,1.4c1.5,0.3,3,0.7,4.5,1.1c-1.6,1.8-2.9,3.9-3.6,6.3c-0.6,1.8-1,3.8-1,5.8c0,10,8.1,18.1,18.1,18.1
            c1,0,1.9-0.1,2.9-0.3c-0.1,0.9-0.3,1.9-0.3,2.9c0,10,8.1,18.1,18.1,18.1c4.1,0,7.9-1.4,10.9-3.7c0.7,3.1,1.3,6.2,1.5,9.5
            c0.1,1.2,0.2,2.3,0.2,3.5c-0.2,0-0.4,0.1-0.7,0.1C134.3,65,130,68.8,128.6,74.1z"/>
        <circle fill="#906145" stroke="#000000" stroke-width="2" stroke-linecap="round" stroke-linejoin="round" stroke-miterlimit="10" cx="72.2" cy="65.8" r="18"/>
        <circle fill="#906145" stroke="#000000" stroke-width="2" stroke-linecap="round" stroke-linejoin="round" stroke-miterlimit="10" cx="94.8" cy="97.3" r="6.7"/>
        <circle fill="#906145" stroke="#000000" stroke-width="2" stroke-linecap="round" stroke-linejoin="round" stroke-miterlimit="10" cx="65.9" cy="21.8" r="6.3"/>
        <path fill="#906145" stroke="#000000" stroke-width="2" stroke-linecap="round" stroke-linejoin="round" stroke-miterlimit="10" d="
            M31.7,40.5c-1.8,6.8-8.7,10.8-15.5,9c-1.3-0.4-2.5-0.9-3.6-1.6C15,39.7,19,32.1,24.2,25.5C30.1,27.9,33.4,34.3,31.7,40.5z"/>
        <path opacity="0.35" fill="#B2722D" d="M15.1,79.8c1.3,3.2,3,6.3,4.8,9.2c-1.7,0.6-3.3,1.4-4.8,2.3C11.8,83.6,10,75.1,10,66.1
            c0-1.9,0.1-3.8,0.3-5.7C10.9,67.2,12.5,73.7,15.1,79.8z"/>
        <path opacity="0.35" fill="#B2722D" d="M135.5,89.9c-9.5,24.1-33,41.2-60.5,41.2c-11.4,0-22-2.9-31.3-8c1.9-2.3,3.3-5,4.1-8.1
            c0.1-0.4,0.2-0.8,0.3-1.3c8.2,3.8,17.3,5.8,26.9,5.8c24.2,0,45.3-13.2,56.5-32.8C132.6,88,134,89.1,135.5,89.9z"/>
        <path opacity="0.35" fill="#B2722D" d="M140,63.9c-0.2,0-0.4,0.1-0.7,0.1c0.2-1.2,0.3-2.4,0.4-3.6C139.8,61.5,139.9,62.7,140,63.9z"
            />
        <path fill="#906145" stroke="#000000" stroke-width="2" stroke-linecap="round" stroke-linejoin="round" stroke-miterlimit="10" d="
            M48.1,113.7c-0.1,0.4-0.2,0.8-0.3,1.3c-0.8,3-2.2,5.8-4.1,8.1c-12.8-7-22.9-18.2-28.6-31.8c1.5-1,3.1-1.8,4.8-2.3
            c3.9-1.4,8.3-1.6,12.6-0.4C43.6,91.5,50.4,102.6,48.1,113.7z"/>
        <ellipse opacity="0.5" fill="#D7D7D7" cx="75" cy="140.5" rx="75" ry="2.5"/>
    </symbol>
    <symbol id="m-svg__error-page-not-found" x="0px" y="0px" viewBox="0 0 150 167" enable-background="new 0 0 150 167" xml:space="preserve">
        <ellipse opacity="0.5" fill="#D7D7D7" cx="75" cy="164.5" rx="75" ry="2.5"/>
        <rect x="11" y="1" fill="#F4F4F4" stroke="#000000" stroke-width="2" stroke-miterlimit="10" width="127" height="153"/>
        <text transform="matrix(1 0 0 1 38.3804 22)" font-family="'Overpass-Black'" font-size="12px">RECHERCHÉ</text>
        <rect x="32" y="33" fill="#FFFFFF" stroke="#000000" stroke-width="2" stroke-miterlimit="10" width="86" height="86"/>
        <g>

                <path fill="#F39612" stroke="#000000" stroke-width="2" stroke-linecap="round" stroke-linejoin="round" stroke-miterlimit="10" d="
                M93.6,108.9v9.3H55.4v-9.3c0-4.9,1.9-9.4,4.9-12.8c3.5-3.8,8.5-6.3,14.1-6.3s10.6,2.4,14.1,6.3C91.7,99.5,93.6,104,93.6,108.9z"/>
            <path opacity="0.7" fill="#FFFFFF" d="M84.4,116.7c0,0.5,0,0.4-0.1,0.9H65.4c0-0.5-0.1-0.4-0.1-0.9c0-6.9,4.3-12.5,9.5-12.5
                C80.1,104.2,84.4,109.8,84.4,116.7z"/>
            <path fill="#C96E0A" d="M88.6,96.1c-3.7,2.4-8.6,3.8-14.1,3.8s-10.4-1.4-14.1-3.8c3.5-3.8,8.5-6.3,14.1-6.3S85.1,92.3,88.6,96.1z"
                />
            <path fill="none" stroke="#000000" stroke-width="2" stroke-linecap="round" stroke-linejoin="round" stroke-miterlimit="10" d="
                M93.6,108.9v9.3H55.4v-9.3c0-4.9,1.9-9.4,4.9-12.8c3.5-3.8,8.5-6.3,14.1-6.3s10.6,2.4,14.1,6.3C91.7,99.5,93.6,104,93.6,108.9z"/>

                <path fill="#C96E0A" stroke="#000000" stroke-width="2" stroke-linecap="round" stroke-linejoin="round" stroke-miterlimit="10" d="
                M98.5,73.8V49c0-1.3-1.5-1.9-2.4-1l-6.8,6.8"/>

                <path fill="#C96E0A" stroke="#000000" stroke-width="2" stroke-linecap="round" stroke-linejoin="round" stroke-miterlimit="10" d="
                M50.5,73.8V49c0-1.3,1.5-1.9,2.4-1l6.8,6.8"/>
            <circle fill="#C96E0A" cx="74.5" cy="73.8" r="24"/>
            <ellipse fill="#F39612" cx="76.3" cy="74.2" rx="22.2" ry="22.9"/>

                <line fill="none" stroke="#000000" stroke-width="4" stroke-linecap="round" stroke-linejoin="round" stroke-miterlimit="10" x1="63.2" y1="69.6" x2="63.2" y2="71.7"/>

                <line fill="none" stroke="#000000" stroke-width="4" stroke-linecap="round" stroke-linejoin="round" stroke-miterlimit="10" x1="85.8" y1="69.6" x2="85.8" y2="71.7"/>
            <path fill="none" stroke="#000000" stroke-width="2" stroke-miterlimit="10" d="M98.5,73.8c0,13.3-10.7,24-24,24s-24-10.7-24-24"/>
            <path fill="none" stroke="#000000" stroke-width="2" stroke-linecap="round" stroke-linejoin="round" stroke-miterlimit="10" d="
                M56.9,57.5c4.4-4.7,10.7-7.7,17.6-7.7c7,0,13.2,3,17.6,7.7"/>

                <line fill="none" stroke="#000000" stroke-width="2" stroke-linecap="round" stroke-linejoin="round" stroke-miterlimit="10" x1="50.5" y1="74.5" x2="50.5" y2="67.4"/>

                <line fill="none" stroke="#000000" stroke-width="2" stroke-linecap="round" stroke-linejoin="round" stroke-miterlimit="10" x1="98.5" y1="73.8" x2="98.5" y2="65.3"/>
            <circle opacity="0.7" fill="#FFFFFF" cx="68.9" cy="83.7" r="5.6"/>
            <circle opacity="0.7" fill="#FFFFFF" cx="80.1" cy="83.7" r="5.6"/>
            <g>

                    <circle fill="#FC9081" stroke="#000000" stroke-width="2" stroke-linecap="round" stroke-linejoin="round" stroke-miterlimit="10" cx="74.5" cy="80.2" r="2.8"/>
                <path fill="none" stroke="#000000" stroke-width="2" stroke-linecap="round" stroke-linejoin="round" stroke-miterlimit="10" d="
                    M74.5,83.7c0,3.1-2.5,5.6-5.6,5.6c-3.1,0-5.6-2.5-5.6-5.6"/>
                <path fill="none" stroke="#000000" stroke-width="2" stroke-linecap="round" stroke-linejoin="round" stroke-miterlimit="10" d="
                    M85.8,83.7c0,3.1-2.5,5.6-5.6,5.6c-3.1,0-5.6-2.5-5.6-5.6"/>
            </g>
        </g>
        <line fill="none" stroke="#000000" stroke-width="2" stroke-linecap="round" stroke-linejoin="round" stroke-miterlimit="10" x1="31" y1="128" x2="117" y2="128"/>
        <line fill="none" stroke="#000000" stroke-width="2" stroke-linecap="round" stroke-linejoin="round" stroke-miterlimit="10" x1="31" y1="133" x2="117" y2="133"/>
        <line fill="none" stroke="#000000" stroke-width="2" stroke-linecap="round" stroke-linejoin="round" stroke-miterlimit="10" x1="31" y1="138" x2="117" y2="138"/>
        <line fill="none" stroke="#000000" stroke-width="2" stroke-linecap="round" stroke-linejoin="round" stroke-miterlimit="10" x1="31" y1="143" x2="99" y2="143"/>
        <g>

                <line fill="none" stroke="#000000" stroke-linecap="round" stroke-linejoin="round" stroke-miterlimit="10" x1="80" y1="79" x2="94" y2="79"/>

                <line fill="none" stroke="#000000" stroke-linecap="round" stroke-linejoin="round" stroke-miterlimit="10" x1="80" y1="80.8" x2="94" y2="83.3"/>
        </g>
        <g>

                <line fill="none" stroke="#000000" stroke-linecap="round" stroke-linejoin="round" stroke-miterlimit="10" x1="69.2" y1="79" x2="55.2" y2="79"/>

                <line fill="none" stroke="#000000" stroke-linecap="round" stroke-linejoin="round" stroke-miterlimit="10" x1="69.2" y1="80.8" x2="55.2" y2="83.3"/>
        </g>
    </symbol>
    <symbol id="m-svg__error-technical-difficulty" x="0px" y="0px" viewBox="0 0 153 147" enable-background="new 0 0 153 147" xml:space="preserve">
        <g>
            <path fill="none" stroke="#000000" stroke-width="5" stroke-miterlimit="10" d="M89.3,65.6c17.2-17.6,19.3-27,16.9-32.3
                c-2.7-6-10.8-6.4-12.6-13.7c-1.5-5.9,1.9-13.3,7.1-15.7c8.5-3.9,22.2,5.8,24.2,15.7c1.5,7.6-4.5,13-1.3,21.2
                c1.4,3.5,3.8,5.9,5.5,7.3"/>
            <g>
                <path fill="#FFFFFF" stroke="#000000" stroke-width="2" stroke-miterlimit="10" d="M111.3,85.2l-1.7,7.1c-0.4,1.5-1.9,2.4-3.4,2.1
                    l-27-6.5c-1.5-0.4-2.4-1.9-2.1-3.4l1.7-7.1c0.4-1.5,1.9-2.4,3.4-2.1l27,6.5C110.7,82.2,111.6,83.7,111.3,85.2z"/>
                <path fill="#D7D7D7" d="M109.6,90.9l-0.3,1.3c-0.2,1-1.2,1.6-2.2,1.4l-28.8-7c-1-0.2-1.6-1.2-1.4-2.2l0.3-1.3
                    c0.2-1,1.2-1.6,2.2-1.4l28.8,7C109.3,88.9,109.9,89.9,109.6,90.9z"/>
                <path fill="#FFFFFF" stroke="#000000" stroke-width="2" stroke-miterlimit="10" d="M110.5,72.3l3.4,0.8l-5.8,24l-13.7-3.3
                    c-1.8-0.4-2.9-2.3-2.5-4.1l2.5-10.4c0.4-1.8,2.3-2.9,4.1-2.5l3.7,0.9l0.1-0.3C103.1,73.7,106.8,71.4,110.5,72.3z"/>

                    <rect x="100.1" y="83.9" transform="matrix(0.2355 -0.9719 0.9719 0.2355 2.8795 174.7247)" fill="#FFFFFF" stroke="#000000" stroke-width="2" stroke-miterlimit="10" width="24.7" height="3.2"/>
                <line fill="none" stroke="#000000" stroke-width="2" stroke-miterlimit="10" x1="102.1" y1="77.7" x2="100.8" y2="83.1"/>
                <g>
                    <line fill="none" stroke="#000000" stroke-width="2" stroke-miterlimit="10" x1="112.4" y1="92.9" x2="110.8" y2="92.5"/>
                    <line fill="none" stroke="#000000" stroke-width="2" stroke-miterlimit="10" x1="113.5" y1="88.2" x2="111.9" y2="87.9"/>
                    <line fill="none" stroke="#000000" stroke-width="2" stroke-miterlimit="10" x1="114.6" y1="83.6" x2="113.1" y2="83.2"/>
                    <line fill="none" stroke="#000000" stroke-width="2" stroke-miterlimit="10" x1="115.7" y1="78.9" x2="114.2" y2="78.6"/>
                </g>

                    <rect x="94.7" y="82" transform="matrix(0.2355 -0.9719 0.9719 0.2355 -9.1102 157.984)" fill="none" stroke="#000000" stroke-width="2" stroke-miterlimit="10" width="2.4" height="5.6"/>
            </g>
            <g>
                <path fill="#D7D7D7" stroke="#000000" stroke-width="2" stroke-miterlimit="10" d="M74,124.1l7-2c1.5-0.4,2.3-2,1.9-3.5l-7.7-26.7
                    c-0.4-1.5-2-2.3-3.5-1.9l-7,2c-1.5,0.4-2.3,2-1.9,3.5l7.7,26.7C71,123.6,72.5,124.5,74,124.1z"/>
                <path fill="#FFFFFF" stroke="#000000" stroke-width="2" stroke-miterlimit="10" d="M61.1,123.8l1,3.4l23.8-6.8l-3.9-13.6
                    c-0.5-1.8-2.4-2.8-4.2-2.3l-10.3,3c-1.8,0.5-2.8,2.4-2.3,4.2l1,3.6l-0.3,0.1C62.2,116.4,60,120.2,61.1,123.8z"/>

                    <rect x="62" y="123.7" transform="matrix(-0.9611 0.276 -0.276 -0.9611 180.4391 225.189)" fill="#D7D7D7" stroke="#000000" stroke-width="2" stroke-miterlimit="10" width="24.7" height="3.2"/>
                <line fill="none" stroke="#000000" stroke-width="2" stroke-miterlimit="10" x1="66.1" y1="115.2" x2="71.5" y2="113.7"/>
                <g>
                    <line fill="none" stroke="#000000" stroke-width="2" stroke-miterlimit="10" x1="81.7" y1="124.8" x2="81.3" y2="123.3"/>
                    <line fill="none" stroke="#000000" stroke-width="2" stroke-miterlimit="10" x1="77.1" y1="126.2" x2="76.7" y2="124.6"/>
                    <line fill="none" stroke="#000000" stroke-width="2" stroke-miterlimit="10" x1="72.5" y1="127.5" x2="72.1" y2="126"/>
                    <line fill="none" stroke="#000000" stroke-width="2" stroke-miterlimit="10" x1="67.9" y1="128.8" x2="67.5" y2="127.3"/>
                </g>

                    <rect x="71.7" y="105.9" transform="matrix(-0.9611 0.276 -0.276 -0.9611 173.0227 193.0541)" fill="#D7D7D7" stroke="#000000" stroke-width="2" stroke-miterlimit="10" width="2.4" height="5.6"/>
            </g>
            <g>
                <path fill="#929292" d="M57.3,108.1c-0.6,0-1.1-0.2-1.6-0.6L16.3,69.7c-1.7-1.6-2.7-3.8-2.7-6.2c0-2.4,0.8-4.6,2.5-6.3l25.5-26.6
                    c1.7-1.8,4-2.7,6.4-2.7c2.3,0,4.5,0.9,6.2,2.5l39.4,37.8c0.4,0.4,0.7,1,0.7,1.6c0,0.6-0.2,1.2-0.6,1.6l-34.7,36.2
                    C58.5,107.9,57.9,108.1,57.3,108.1z"/>
                <path d="M48,28.8L48,28.8c2.1,0,4,0.8,5.5,2.2l39.4,37.8c0.5,0.5,0.5,1.3,0,1.8l-34.7,36.2c-0.2,0.2-0.6,0.4-0.9,0.4
                    c-0.3,0-0.6-0.1-0.9-0.3L17,69c-1.5-1.5-2.4-3.4-2.4-5.5c0-2.1,0.7-4.1,2.2-5.6l25.5-26.6C43.8,29.7,45.8,28.8,48,28.8 M48,26.8
                    c-2.6,0-5.2,1-7.1,3L15.4,56.4c-3.8,3.9-3.6,10.2,0.3,14l39.4,37.8c0.6,0.6,1.4,0.9,2.2,0.9c0.9,0,1.7-0.3,2.3-1L94.4,72
                    c1.2-1.3,1.2-3.4-0.1-4.6L54.8,29.6C52.9,27.7,50.4,26.8,48,26.8L48,26.8z"/>
            </g>
            <g>
                <path fill="#FFFFFF" stroke="#000000" stroke-width="2" stroke-miterlimit="10" d="M77.6,37.6L77.6,37.6c0.4,0.4,0.7,0.9,0.9,1.5
                    l0.3,1.3c0.2,0.8,0.1,1.6-0.3,2.3c-0.4,0.8-1.2,1.4-2.1,1.6L72,45.3l-1.8-7.5l0,0l4.4-1.1C75.6,36.4,76.8,36.8,77.6,37.6z"/>
            </g>
            <g>
                <path fill="#FFFFFF" stroke="#000000" stroke-width="2" stroke-linejoin="round" stroke-miterlimit="10" d="M84.5,44.9
                    c0.8-0.2,1.6-0.2,2.3,0.1l3.9,1.1c0.7,0.2,1.5-0.1,1.7-0.8c0.2-0.7-0.1-1.5-0.8-1.7l-4.2-1.5l8-0.3c0.7,0,1.3-0.6,1.3-1.3
                    c0-0.7-0.6-1.3-1.3-1.3l-6.8,0l8.2-1.9c0.7-0.2,1.2-0.9,1-1.6c-0.2-0.7-0.9-1.2-1.6-1l-8.2,1.9l6.5-3c0.7-0.3,1-1.1,0.7-1.8
                    c-0.3-0.7-1.1-1-1.8-0.7l-9.4,3.6l1.7-3.1c0.4-0.6,0.1-1.5-0.5-1.8c-0.6-0.4-1.5-0.1-1.8,0.5l-5,5.9c-0.6,0.9-0.8,2-0.6,3.1
                    c0.1,0.6,0.5,2.4,0.7,3C79,45.2,81.6,45.5,84.5,44.9z"/>
            </g>
            <g>
                <g>
                    <path fill="#FFFFFF" stroke="#000000" stroke-width="2" stroke-linejoin="round" stroke-miterlimit="10" d="M32.2,99.4
                        c-0.1,0.8-0.1,1.6,0.2,2.3l1.2,3.9c0.3,0.7-0.1,1.5-0.8,1.7c-0.7,0.3-1.5-0.1-1.7-0.8l-1.7-4.2l0,8c0,0.7-0.6,1.4-1.3,1.4
                        c-0.7,0-1.4-0.6-1.4-1.3l-0.3-6.8l-1.5,8.3c-0.1,0.7-0.8,1.2-1.6,1.1s-1.2-0.8-1.1-1.6l1.5-8.3l-2.7,6.6c-0.3,0.7-1.1,1-1.7,0.7
                        c-0.7-0.3-1-1.1-0.7-1.7l3.2-9.5l-3,1.8c-0.6,0.4-1.4,0.2-1.8-0.4c-0.4-0.6-0.2-1.4,0.4-1.8l5.7-5.3c0.9-0.6,2-0.9,3.1-0.7
                        c0.6,0.1,2.4,0.4,3.1,0.6C32.3,93.9,32.7,96.5,32.2,99.4z"/>
                </g>
                <g>
                    <path fill="#FFFFFF" stroke="#000000" stroke-width="2" stroke-miterlimit="10" d="M34.4,90.2l-0.4,2.1c-0.2,1.2-1.3,2.1-2.5,2.2
                        c-0.3,0-0.5,0-0.8,0l-3.2-0.6l-1.3-0.3l-2.5-0.5L22.9,93c-1.5-0.3-2.5-1.8-2.2-3.3l0.4-2.1c0.3-1.5,1.8-2.5,3.3-2.2l0.1,0
                        l7.6,1.5l0.1,0C33.7,87.3,34.7,88.7,34.4,90.2z"/>
                </g>
                <g>
                    <path fill="none" stroke="#000000" stroke-width="2" stroke-miterlimit="10" d="M70.2,37.8l1.8,7.5l-8.4,2l19.9,19.1
                        c7.2,6.9,6.4,19.5-1.9,28s-20.7,9.9-27.9,3L33.8,78.4l-1.7,8.5l-7.6-1.5l3-14.8c0.3-1.7,2.1-2.9,3.8-2.5l0.5,0.1l21.5-22.4
                        l-0.1-0.5c-0.4-1.7,0.6-3.5,2.4-3.9L70.2,37.8z"/>
                </g>
            </g>
            <path fill="none" stroke="#000000" stroke-width="5" stroke-miterlimit="10" d="M136.8,56c16,16,3.3,26-1,30
                c-2.2,2.1-4.6,3.7-7.3,6.4c-5.2,5.3-9.7,15.3-6.4,23.9c3.7,9.6,16.4,15.7,29.5,12"/>
            <line fill="none" stroke="#000000" stroke-width="2" stroke-miterlimit="10" x1="126.8" y1="48" x2="129.8" y2="51"/>
            <line fill="none" stroke="#000000" stroke-width="2" stroke-miterlimit="10" x1="132.5" y1="55.5" x2="136.2" y2="57.5"/>
            <line fill="none" stroke="#000000" stroke-miterlimit="10" x1="135.5" y1="55.4" x2="139.2" y2="57.6"/>
            <line fill="none" stroke="#000000" stroke-width="2" stroke-miterlimit="10" x1="128.8" y1="48" x2="133" y2="50.8"/>
            <line fill="none" stroke="#000000" stroke-width="2" stroke-miterlimit="10" x1="136.3" y1="51.7" x2="138.4" y2="55.3"/>
            <line fill="none" stroke="#000000" stroke-width="2" stroke-miterlimit="10" x1="128.4" y1="45.7" x2="132.3" y2="47.3"/>
            <g>
                <path fill="#FFFFFF" stroke="#000000" stroke-width="2" stroke-miterlimit="10" d="M70.2,37.8l1.8,7.5l-8.4,2l19.9,19.1
                    c7.2,6.9,6.4,19.5-1.9,28s-20.7,9.9-27.9,3L33.8,78.4l-1.7,8.5l-7.6-1.5l3-14.8c0.3-1.7,2.1-2.9,3.8-2.5l0.5,0.1l21.5-22.4
                    l-0.1-0.5c-0.4-1.7,0.6-3.5,2.4-3.9L70.2,37.8z"/>
            </g>
            <g>
                <path fill="#D7D7D7" d="M82.4,64.4l-0.1-0.1c8.4,8.4,8.4,22.1,0,30.5s-22.1,8.4-30.5,0L35,78L82.4,64.4z"/>
            </g>
            <path fill="#FFFFFF" d="M80.6,62.9l1.8,3.1c6.7,7.4,2,18.3-5.4,25.1c-7.4,6.7-18.1,6-26.8-0.6L32,76L80.6,62.9z"/>
            <g>
                <path fill="none" stroke="#000000" stroke-width="2" stroke-miterlimit="10" d="M70.2,37.8l1.8,7.5l-8.4,2l19.9,19.1
                    c7.2,6.9,6.4,19.5-1.9,28s-20.7,9.9-27.9,3L33.8,78.4l-1.7,8.5l-7.6-1.5l3-14.8c0.3-1.7,2.1-2.9,3.8-2.5l0.5,0.1l21.5-22.4
                    l-0.1-0.5c-0.4-1.7,0.6-3.5,2.4-3.9L70.2,37.8z"/>
            </g>
            <g>
                <g>
                    <path fill="#F39612" d="M62.7,89.6c0,0-0.1,0-0.2-0.1L45,72.8c-0.1-0.1-0.1-0.3,0-0.5l12.9-13.5c0.1-0.1,0.2-0.1,0.2-0.1
                        c0,0,0.1,0,0.2,0.1l17.4,16.7c0.1,0.1,0.1,0.2,0.1,0.2c0,0.1,0,0.1-0.1,0.2L62.9,89.5C62.8,89.6,62.7,89.6,62.7,89.6z"/>
                    <path d="M58.2,60l16.5,15.8l-12,12.5L46.2,72.5L58.2,60 M58.2,57.8c-0.3,0-0.7,0.1-1,0.4L44.3,71.6c-0.5,0.5-0.5,1.4,0,1.9
                        l17.4,16.7c0.3,0.2,0.6,0.4,0.9,0.4c0.3,0,0.7-0.1,1-0.4l12.9-13.5c0.5-0.5,0.5-1.4,0-1.9L59.1,58.1
                        C58.8,57.9,58.5,57.8,58.2,57.8L58.2,57.8z"/>
                </g>
                <g>
                    <g>
                        <path fill="#B3040F" d="M53.1,75c-0.5,0-1-0.2-1.3-0.5c-0.4-0.4-0.6-0.8-0.6-1.4c0-0.5,0.2-1,0.5-1.4c0.4-0.4,0.9-0.6,1.4-0.6
                            c0.5,0,1,0.2,1.3,0.5C54.8,72,55,72.5,55,73c0,0.5-0.2,1-0.5,1.4C54.1,74.8,53.6,75,53.1,75z"/>
                        <g>
                            <path d="M53.1,71.6L53.1,71.6c0.4,0,0.7,0.1,1,0.4c0.6,0.5,0.6,1.5,0,2c-0.3,0.3-0.6,0.4-1,0.4c-0.4,0-0.7-0.1-1-0.4
                                c-0.3-0.3-0.4-0.6-0.4-1c0-0.4,0.1-0.7,0.4-1C52.3,71.7,52.7,71.6,53.1,71.6 M53.1,70.6c-0.6,0-1.3,0.3-1.8,0.8
                                c-0.9,1-0.9,2.5,0.1,3.4c0.5,0.5,1.1,0.7,1.7,0.7c0.6,0,1.3-0.3,1.8-0.8c0.9-1,0.9-2.5-0.1-3.4C54.3,70.8,53.7,70.6,53.1,70.6
                                L53.1,70.6z"/>
                        </g>
                    </g>
                    <path fill="#0075C3" stroke="#000000" stroke-miterlimit="10" d="M60.7,68.6l-1.7,1.8c-0.9,1-2.5,1-3.4,0.1l0,0
                        c-1-0.9-1-2.5-0.1-3.4l1.7-1.8c0.9-1,2.5-1,3.4-0.1l0,0C61.6,66,61.7,67.6,60.7,68.6z"/>
                    <g>
                        <line fill="none" stroke="#000000" stroke-miterlimit="10" x1="56.6" y1="66.3" x2="59.9" y2="69.4"/>
                    </g>
                </g>
                <path fill="#98D5FF" stroke="#000000" stroke-miterlimit="10" d="M71,76.7l-7.6,7.9c-0.5,0.5-1.2,0.5-1.7,0l-5.3-5
                    c-0.5-0.5-0.5-1.2,0-1.7L64,70c0.5-0.5,1.2-0.5,1.7,0l5.3,5C71.5,75.5,71.5,76.3,71,76.7z"/>
                <g>
                    <line fill="none" stroke="#000000" stroke-miterlimit="10" x1="58.7" y1="75.9" x2="65.8" y2="82.7"/>
                    <line fill="none" stroke="#000000" stroke-miterlimit="10" x1="62.1" y1="72.4" x2="69.2" y2="79.2"/>
                </g>
                <g>
                    <line fill="none" stroke="#000000" stroke-miterlimit="10" x1="58" y1="80.7" x2="67.3" y2="71"/>
                    <line fill="none" stroke="#000000" stroke-miterlimit="10" x1="60.4" y1="83.4" x2="69.7" y2="73.8"/>
                </g>
            </g>
            <path fill="#FFFFFF" stroke="#000000" stroke-width="2" stroke-miterlimit="10" d="M53.8,48.7L34.7,68.6c-1.7,1.8-4.6,1.9-6.4,0.1
                l-0.9-0.9c-1.8-1.7-1.9-4.6-0.1-6.4l19.1-19.9c1.7-1.8,4.6-1.9,6.4-0.1l0.9,0.9C55.4,44,55.5,46.9,53.8,48.7z"/>
            <g>
                <path fill="#FFFFFF" d="M25.6,63.1c-6.2,0-12.1-2.4-16.7-6.8c-4.6-4.4-7.2-10.2-7.5-16.4c-0.3-6.2,1.9-12,6.1-16.4
                    c4.2-4.4,10-6.8,16.2-6.8c6.2,0,12.1,2.4,16.7,6.8c4.6,4.4,7.2,10.2,7.5,16.4c0.3,6.2-1.9,12-6.1,16.4
                    C37.5,60.7,31.8,63.1,25.6,63.1z"/>
                <path d="M23.7,15.6v2h0c5.9,0,11.6,2.3,16,6.5c9,8.7,9.6,22.8,1.3,31.4c-4,4.2-9.5,6.5-15.4,6.5c-5.9,0-11.6-2.3-16-6.5
                    c-4.4-4.2-6.9-9.8-7.2-15.8c-0.2-5.9,1.8-11.5,5.9-15.7c4-4.2,9.5-6.5,15.4-6.5L23.7,15.6 M23.7,15.6c-6.2,0-12.3,2.4-16.9,7.1
                    C-2.3,32.2-1.7,47.6,8.2,57c4.9,4.7,11.2,7.1,17.4,7.1c6.2,0,12.3-2.4,16.9-7.1c9.1-9.5,8.5-24.8-1.4-34.3
                    C36.2,18,29.9,15.6,23.7,15.6L23.7,15.6z"/>
            </g>
            <g>
                <ellipse transform="matrix(0.6921 -0.7218 0.7218 0.6921 -21.175 30.0562)" cx="24.6" cy="39.8" rx="19.9" ry="20.7"/>
            </g>
            <path fill="none" stroke="#FFFFFF" stroke-width="3" stroke-linecap="round" stroke-linejoin="round" stroke-miterlimit="10" d="
                M9.2,31.2c4.9-9.7,17.9-10.1,23.3-7"/>
            <g>
                <g>
                    <path fill="#FFFFFF" d="M8.1,35.8c1.9,0,1.9-3,0-3C6.2,32.8,6.2,35.8,8.1,35.8L8.1,35.8z"/>
                </g>
            </g>
            <g>
                <path fill="#FFFFFF" stroke="#000000" stroke-width="2" stroke-miterlimit="10" d="M77.6,35.9l0.2,0.8l0.6,2.4l0.3,1.3l0.8,3.2
                    c0.1,0.3,0.1,0.6,0.1,0.8c-0.1,1.2-0.9,2.3-2.1,2.6l-2.1,0.5c-1.5,0.4-3-0.6-3.4-2.1l0-0.1l-1.8-7.5l0,0l0-0.1
                    c-0.4-1.5,0.6-3,2.1-3.4l2.1-0.5C75.8,33.4,77.3,34.4,77.6,35.9z"/>
            </g>
            <g>
                <path fill="none" stroke="#000000" stroke-width="2" stroke-miterlimit="10" d="M77.6,35.9l0.2,0.8l0.6,2.4l0.3,1.3l0.8,3.2
                    c0.1,0.3,0.1,0.6,0.1,0.8c-0.1,1.2-0.9,2.3-2.1,2.6l-2.1,0.5c-1.5,0.4-3-0.6-3.4-2.1l0-0.1l-1.8-7.5l0,0l0-0.1
                    c-0.4-1.5,0.6-3,2.1-3.4l2.1-0.5C75.8,33.4,77.3,34.4,77.6,35.9z"/>
            </g>
            <ellipse transform="matrix(0.82 -0.5724 0.5724 0.82 -56.5006 59.1507)" fill="#D7D7D7" cx="65.8" cy="119.4" rx="4" ry="2"/>
            <ellipse opacity="0.5" fill="#D7D7D7" cx="76" cy="144.5" rx="75" ry="2.5"/>
        </g>
    </symbol>
</svg>
