<svg>
    <symbol id="arrow-left" viewBox="0 0 24 24">
        <path stroke="currentColor" d="M18 0 L6 12 L18 24" fill="none"></path>
    </symbol>
    <symbol id="arrow-right" viewBox="0 0 24 24">
        <path stroke="currentColor" d="M6 0 L18 12 L6 24" fill="none"></path>
    </symbol>
    <symbol id="calendar" viewBox="0 0 24 24">
        <g stroke="currentColor" stroke-width="1" fill="none">
            <rect x="0" y="3" width="24" height="21"/>
            <rect x="6" y="0" width="3" height="5"/>
            <rect x="15" y="0" width="3" height="5"/>
            <line x1="8" y1="8" x2="8" y2="24"/>
            <line x1="16" y1="8" x2="16" y2="24"/>
            <line x1="0" y1="8" x2="24" y2="8"/>
            <line x1="0" y1="16" x2="24" y2="16"/>
        </g>
    </symbol>
    <symbol id="chip-warning" viewBox="0 0 24 24">
        <path fill="currentColor" d="M23.077 22.431l-10.615-21.231c-0.076-0.155-0.234-0.26-0.415-0.26s-0.339 0.105-0.414 0.258l-10.709 21.233c-0.039 0.066-0.062 0.146-0.062 0.231s0.023 0.165 0.063 0.233l0.368 0.182h21.231l0.369-0.185c0.117-0.085 0.193-0.221 0.193-0.375 0-0.031-0.003-0.060-0.009-0.089zM11.077 7.938c0-0.51 0.413-0.923 0.923-0.923s0.923 0.413 0.923 0.923v7.385c0 0.51-0.413 0.923-0.923 0.923s-0.923-0.413-0.923-0.923zM12 20.954c-0.765 0-1.385-0.62-1.385-1.385s0.62-1.385 1.385-1.385c0.765 0 1.385 0.62 1.385 1.385s-0.62 1.385-1.385 1.385z"></path>
        <path fill="#fff" d="M12 16.246c0.51 0 0.923-0.413 0.923-0.923v-7.385c0-0.51-0.413-0.923-0.923-0.923s-0.923 0.413-0.923 0.923v7.385c0 0.51 0.413 0.923 0.923 0.923z"></path>
        <path fill="#fff" d="M13.385 19.477c0 0.765-0.62 1.385-1.385 1.385s-1.385-0.62-1.385-1.385c0-0.765 0.62-1.385 1.385-1.385s1.385 0.62 1.385 1.385z"></path>
    </symbol>
    <symbol id="chip-check" viewBox="0 0 24 24">
        <path fill="currentColor" d="M12 0.923c-6.118 0-11.077 4.959-11.077 11.077s4.959 11.077 11.077 11.077c6.118 0 11.077-4.959 11.077-11.077s-4.959-11.077-11.077-11.077zM17.262 9.415v0l-6.923 6.462c-0.165 0.168-0.393 0.273-0.645 0.277-0.254-0.004-0.482-0.109-0.647-0.277l-2.308-2.308c-0.163-0.166-0.264-0.395-0.264-0.646s0.101-0.48 0.264-0.646c0.166-0.163 0.394-0.264 0.646-0.264s0.48 0.101 0.646 0.264l1.661 1.661 6.277-5.815c0.169-0.158 0.396-0.255 0.646-0.255 0.523 0 0.947 0.424 0.947 0.947 0 0.273-0.116 0.519-0.3 0.692z"></path>
        <path fill="#fff" d="M15.969 8.123l-6.277 5.815-1.662-1.662c-0.166-0.163-0.395-0.264-0.646-0.264s-0.48 0.101-0.646 0.264c-0.163 0.166-0.264 0.394-0.264 0.646s0.101 0.48 0.264 0.646l2.308 2.308c0.165 0.168 0.393 0.273 0.645 0.277 0.254-0.004 0.482-0.109 0.647-0.277l6.923-6.462c0.185-0.173 0.301-0.419 0.301-0.692 0-0.523-0.424-0.947-0.947-0.947-0.25 0-0.477 0.097-0.647 0.255z"></path>
    </symbol>
    <symbol id="chip-error" viewBox="0 0 24 24">
        <path fill="currentColor" d="M12 0.923c-6.118 0-11.077 4.959-11.077 11.077s4.959 11.077 11.077 11.077c6.118 0 11.077-4.959 11.077-11.077s-4.959-11.077-11.077-11.077zM16.8 15.508c0.163 0.166 0.264 0.394 0.264 0.646s-0.101 0.48-0.264 0.646c-0.166 0.163-0.394 0.264-0.646 0.264s-0.48-0.101-0.646-0.264l-3.508-3.508-3.508 3.508c-0.166 0.163-0.395 0.264-0.646 0.264s-0.48-0.101-0.646-0.264c-0.163-0.166-0.264-0.394-0.264-0.646s0.101-0.48 0.264-0.646l3.508-3.508-3.508-3.508c-0.115-0.152-0.185-0.345-0.185-0.554 0-0.51 0.413-0.923 0.923-0.923 0.209 0 0.402 0.069 0.556 0.186l3.505 3.506 3.508-3.508c0.152-0.115 0.345-0.185 0.554-0.185 0.51 0 0.923 0.413 0.923 0.923 0 0.209-0.069 0.402-0.186 0.556l-3.506 3.505z"></path>
        <path fill="#fff" d="M16.8 7.2c-0.166-0.163-0.394-0.264-0.646-0.264s-0.48 0.101-0.646 0.264l-3.508 3.508-3.508-3.508c-0.152-0.115-0.345-0.185-0.554-0.185-0.51 0-0.923 0.413-0.923 0.923 0 0.209 0.069 0.402 0.186 0.556l3.506 3.505-3.508 3.508c-0.163 0.166-0.264 0.394-0.264 0.646s0.101 0.48 0.264 0.646c0.166 0.163 0.394 0.264 0.646 0.264s0.48-0.101 0.646-0.264l3.508-3.508 3.508 3.508c0.166 0.163 0.394 0.264 0.646 0.264s0.48-0.101 0.646-0.264c0.163-0.166 0.264-0.394 0.264-0.646s-0.101-0.48-0.264-0.646l-3.508-3.508 3.508-3.508c0.163-0.166 0.264-0.394 0.264-0.646s-0.101-0.48-0.264-0.646z"></path>
    </symbol>
    <symbol id="clock" viewBox="0 0 24 24">
        <g stroke="currentColor" stroke-width="1" fill="none">
            <circle cx="12" cy="12" r="11"/>
            <line x1="12" y1="12" x2="12" y2="5"/>
            <line x1="12" y1="12" x2="20" y2="12"/>
        </g>
    </symbol>
    <symbol id="default" viewBox="0 0 16 16">
        <g stroke="currentColor">
            <line x1="0" y1="0" x2="16" y2="16"/>
            <line x1="16" y1="0" x2="0" y2="16"/>
        </g>
    </symbol>
    <symbol id="information" viewBox="0 0 24 24">
        <path fill="currentColor" d="M12 1.125c6 0 10.875 4.875 10.875 10.875s-4.875 10.875-10.875 10.875c-6 0-10.875-4.875-10.875-10.875s4.875-10.875 10.875-10.875zM12 0c-6.656 0-12 5.344-12 12s5.344 12 12 12c6.656 0 12-5.344 12-12s-5.344-12-12-12zM12 19.359c-0.328 0-0.563-0.234-0.563-0.563v-7.828c0-0.328 0.234-0.563 0.563-0.563s0.563 0.234 0.563 0.563v7.828c0 0.328-0.234 0.563-0.563 0.563zM12 7.359c0.656 0 1.125-0.469 1.125-1.125s-0.469-1.125-1.125-1.125c-0.656 0-1.125 0.469-1.125 1.125s0.469 1.125 1.125 1.125z"></path>
    </symbol>
    <symbol id="options" viewBox="0 0 16 16">
        <g stroke="currentColor">
            <circle cx="8" cy="2" r="2" stroke-width="0"/>
            <circle cx="8" cy="8" r="2" stroke-width="0"/>
            <circle cx="8" cy="14" r="2" stroke-width="0"/>
        </g>
    </symbol>
</svg>
