<?xml version="1.0" encoding="utf-8"?>
<!-- Generator: Adobe Illustrator 22.0.0, SVG Export Plug-In . SVG Version: 6.00 Build 0)  -->
<svg version="1.1" id="Calque_1" xmlns="http://www.w3.org/2000/svg" xmlns:xlink="http://www.w3.org/1999/xlink" x="0px" y="0px"
	 viewBox="0 0 512 512" style="enable-background:new 0 0 512 512;" xml:space="preserve">
<path d="M453.6,403.8h-14.6l-148-361.6c-1.5-3.7-5.1-6.1-9.2-6.1h-58.8c-4.1,0-7.8,2.5-9.2,6.4L75,403.8H58.4
	c-5.4,0-9.9,4.5-9.9,9.9v44.6c0,5.4,4.5,9.9,9.9,9.9h5.9c0.2,0,0.3,0.1,0.5,0.1h58c0.1,0,0.2-0.1,0.4-0.1h44.2
	c5.4,0,9.9-4.5,9.9-9.9v-44.6c0-5.4-4.5-9.9-9.9-9.9H153l21.9-60.5h158.7l23.3,60.5h-12.2c-5.4,0-9.9,4.5-9.9,9.9v44.6
	c0,5.4,4.5,9.9,9.9,9.9h43.4c0.1,0,0.2,0.1,0.4,0.1h62.2c0.2,0,0.3-0.1,0.5-0.1h2.5c5.4,0,9.9-4.5,9.9-9.9v-44.6
	C463.5,408.2,459.1,403.8,453.6,403.8z M309.2,279.1H198l40.3-107.7c5.4-14.8,10.2-29.8,14.3-44.8c5.2,15.4,11.4,32.7,18.6,51.7
	L309.2,279.1z"/>
</svg>
