<svg xmlns="http://www.w3.org/2000/svg" viewBox="0 0 24 24">
  <path d="M19.556.359H4.444c-1.211.003-2.191.984-2.194 2.195v1.889c0 .69.56 1.25 1.25 1.25s1.25-.56 1.25-1.25V3.109a.25.25 0 0 1 .25-.25h5.5a.25.25 0 0 1 .25.25v17.778a.25.25 0 0 1-.25.25H8.694c-.69 0-1.25.56-1.25 1.25s.56 1.25 1.25 1.25h6.612c.69 0 1.25-.56 1.25-1.25s-.56-1.25-1.25-1.25H13.5a.25.25 0 0 1-.25-.25V3.109a.25.25 0 0 1 .25-.25H19a.25.25 0 0 1 .25.25v1.334c0 .69.56 1.25 1.25 1.25s1.25-.56 1.25-1.25V2.554c-.003-1.211-.983-2.192-2.194-2.195z"/>
</svg>
