<?xml version="1.0" encoding="utf-8"?>
<!-- Generator: Adobe Illustrator 22.0.0, SVG Export Plug-In . SVG Version: 6.00 Build 0)  -->
<svg version="1.1" id="Calque_1" xmlns="http://www.w3.org/2000/svg" xmlns:xlink="http://www.w3.org/1999/xlink" x="0px" y="0px"
	 viewBox="0 0 512 512" style="enable-background:new 0 0 512 512;" xml:space="preserve">
<g>
	<path d="M506.2,298C506.2,298,506.2,298,506.2,298c-3.4-6.1-5.7-12.5-6.8-19.1c-1.2-7-1.8-24.7-1.8-52.6v-40.8
		c0-14.2-0.6-24-1.7-30c-2.1-9.6-5.9-17.8-11.2-24.3c-5.4-6.6-13.7-12-24.7-16.2c-10.5-4-24.1-6-40.5-6c-16.4,0-31.1,2.3-43.8,6.9
		c-13.2,4.8-23.5,11.8-30.7,20.8c-7,8.8-12,20.4-15,34.4c-0.5,2.2,0,4.6,1.3,6.4c1.3,1.9,3.3,3.1,5.6,3.4l29.9,4.1
		c4.1,0.5,8-2.1,9-6.1c2.8-10.9,6.9-18.3,12.1-22.2c5.4-4,14.5-6,27-6c13.3,0,23.2,2.8,29.4,8.3c3.9,3.4,5.9,10.2,5.9,20.2
		c0,0.4,0,1.1,0,1.9c-11.1,3.2-27.1,6-47.5,8.5c-12.6,1.5-21.9,3.1-28.4,4.8c-9,2.5-17.2,6.3-24.4,11.2c-7.6,5.1-13.8,12-18.4,20.4
		c-4.7,8.5-7.1,18-7.1,28.2c0,17.4,6.3,32,18.7,43.2c12.2,11.1,29.4,16.7,51.3,16.7c12.9,0,25.3-2.2,36.7-6.5
		c7.9-3,16-7.5,24.3-13.3c1.1,4,2.6,7.8,4.3,11.2c1.4,2.8,4.2,4.5,7.3,4.5h32c2.9,0,5.6-1.6,7.1-4.1
		C507.5,303.6,507.6,300.5,506.2,298z M450.1,222.8c0,12-1.4,21.1-4.1,26.8c-3.6,7.5-9.1,13.2-16.8,17.6c-7.9,4.4-17.1,6.7-27.4,6.7
		c-9.8,0-17.1-2.1-21.7-6.1c-4.4-3.8-6.5-8.5-6.5-14.2c0-3.7,1-7,2.9-10.1c1.9-3,4.7-5.3,8.4-6.9c4.5-1.9,13-3.9,24.6-5.5
		C426.2,228.6,439.5,226,450.1,222.8z"/>
	<path d="M369.2,392.4h-13.1L223,67.2c-1.4-3.3-4.6-5.5-8.2-5.5h-52.9c-3.7,0-7,2.3-8.3,5.7L28.7,392.4h-15c-4.9,0-8.9,4-8.9,8.9
		v40.1c0,4.9,4,8.9,8.9,8.9H19c0.1,0,0.3,0.1,0.4,0.1h52.1c0.1,0,0.2,0,0.3-0.1h39.8c4.9,0,8.9-4,8.9-8.9v-40.1c0-4.9-4-8.9-8.9-8.9
		H98.8l19.7-54.4h142.7l20.9,54.4h-11c-4.9,0-8.9,4-8.9,8.9v40.1c0,4.9,4,8.9,8.9,8.9h39c0.1,0,0.2,0.1,0.3,0.1h55.9
		c0.1,0,0.3,0,0.4-0.1h2.2c4.9,0,8.9-4,8.9-8.9v-40.1C378.1,396.4,374.1,392.4,369.2,392.4z M239.3,280.2h-100l36.2-96.8
		c4.9-13.3,9.2-26.8,12.9-40.3c4.7,13.9,10.3,29.4,16.7,46.5L239.3,280.2z"/>
</g>
</svg>
