<?xml version="1.0" encoding="utf-8"?>
<!-- Generator: Adobe Illustrator 22.0.0, SVG Export Plug-In . SVG Version: 6.00 Build 0)  -->
<svg version="1.1" id="Calque_1" xmlns="http://www.w3.org/2000/svg" xmlns:xlink="http://www.w3.org/1999/xlink" x="0px" y="0px"
	 viewBox="0 0 512 512" style="enable-background:new 0 0 512 512;" xml:space="preserve">
<path fill="currentColor" d="M457.9,252.5H309.4c-5.6,0-10.1,4.5-10.1,10.1V314c0,5.6,4.5,10.1,10.1,10.1h62.4c-3.7,12.8-9.9,24.4-18.6,34.8
	c-11.5,13.7-26.1,24.4-43.6,31.8c-17.7,7.5-37.1,11.4-57.8,11.4c-27.3,0-51.8-6.3-72.9-18.6c-21.1-12.3-37.8-29.8-49.6-52
	c-12-22.4-18-48.5-18-77.7c0-27.8,5.8-52.9,17.1-74.6c11.3-21.5,27.2-38.6,47.5-50.8c20.3-12.2,43.9-18.4,70-18.4
	c26.3,0,51.8,7.4,75.8,22.1c23.8,14.5,41.5,34.2,52.5,58.3c1.6,3.6,5.2,5.9,9.2,5.9h51.9c5.6,0,10.1-4.5,10.1-10.1V52.2
	c0-5.6-4.5-10.1-10.1-10.1h-51.9c-5.6,0-10.1,4.5-10.1,10.1v24c-37.8-27.2-82.5-40.9-133-40.9c-41.1,0-78.4,9.4-111,28
	C96.5,81.9,70.5,108.2,52,141.4C33.4,174.5,24,212.5,24,254.2c0,43.7,9.4,82.8,27.9,116.1c18.6,33.5,45.8,59.9,80.6,78.5
	c34.6,18.5,75.3,27.8,120.9,27.8c40.2,0,76.9-8.1,109.3-24c32.7-16.1,58.7-39.7,77.3-70c18.6-30.3,28-66.2,28-106.7v-13.3
	C468,257.1,463.5,252.5,457.9,252.5z"/>
</svg>
