<?xml version="1.0" encoding="utf-8"?>
<!-- Generator: Adobe Illustrator 22.0.0, SVG Export Plug-In . SVG Version: 6.00 Build 0)  -->
<svg version="1.1" id="Calque_1" xmlns="http://www.w3.org/2000/svg" xmlns:xlink="http://www.w3.org/1999/xlink" x="0px" y="0px"
	 viewBox="0 0 512 512" style="enable-background:new 0 0 512 512;" xml:space="preserve">
<g>
	<path d="M505.8,228.3H256.7c-0.5,0-1-0.4-1-1V162c0-0.6,0.5-1,1-1h249.1c0.6,0,1,0.4,1,1v65.3C506.8,227.8,506.3,228.3,505.8,228.3
		z"/>
	<path d="M505.8,352.5H256.7c-0.5,0-1-0.5-1-1v-65.3c0-0.5,0.5-1,1-1h249.1c0.6,0,1,0.5,1,1v65.3
		C506.8,352.1,506.3,352.5,505.8,352.5z"/>
	<circle cx="173.1" cy="198.4" r="44.7"/>
	<circle cx="173.1" cy="326.3" r="44.7"/>
	<path d="M6.3,113.4c0-7.3,3.8-11.3,11.3-11.3h14.8V62.9c0-5.1,0.5-10.3,0.5-10.3h-0.3c0,0-1.7,2.6-2.8,3.7
		c-4.4,4.2-10.3,4.4-15.3-1l-5.4-6.1c-5.2-5.2-4.9-11,0.5-16l21.3-19.5C35.2,9.6,39.1,8,45,8h11.9c7.5,0,11.5,3.8,11.5,11.3V102
		h15.2c7.5,0,11.3,4,11.3,11.3v8.7c0,7.3-3.8,11.3-11.3,11.3H17.6c-7.5,0-11.3-4-11.3-11.3L6.3,113.4L6.3,113.4z M5.2,488.9
		c0-46.3,49.9-55.2,49.9-67.8c0-7-5.8-8.6-9.1-8.6c-3.1,0-6.3,1-9.3,3.8c-5,4.8-10.3,6.9-15.8,2.4l-8.4-6.7c-5.7-4.5-7-9.6-2.7-15.1
		c6.5-8.6,18.7-18.4,39.6-18.4c19,0,43.6,10.3,43.6,38.8c0,37.6-45.8,45.5-47.7,55.8h38.3c7.4,0,11.3,3.9,11.3,11.2v8.6
		c0,7.2-3.9,11.2-11.3,11.2H17.1c-6.9,0-11.8-3.9-11.8-11.2L5.2,488.9L5.2,488.9z M144.1,106H489c8.7,0,15.7-7,15.7-15.7V51.1
		c0-8.7-7-15.7-15.7-15.7H144.1c-8.7,0-15.7,7-15.7,15.7v39.2C128.5,99,135.5,106,144.1,106z M144.1,482.2H489
		c8.7,0,15.7-7,15.7-15.7v-39.2c0-8.7-7-15.7-15.7-15.7H144.1c-8.7,0-15.7,7-15.7,15.7v39.2C128.5,475.2,135.5,482.2,144.1,482.2z"
		/>
</g>
</svg>
