<svg id="m-svg__error-page-not-found" viewBox="0 0 150 167" xmlns="http://www.w3.org/2000/svg" xmlns:xlink="http://www.w3.org/1999/xlink">
    <ellipse opacity="0.5" fill="#D7D7D7" cx="75" cy="164.5" rx="75" ry="2.5"/>
    <rect x="11" y="1" fill="#F4F4F4" stroke="#000000" stroke-width="2" stroke-miterlimit="10" width="127" height="153"/>
    <text transform="matrix(1 0 0 1 38.3804 22)" font-family="'Overpass-Black'" font-size="12px">RECHERCHÉ</text>
    <rect x="32" y="33" fill="#FFFFFF" stroke="#000000" stroke-width="2" stroke-miterlimit="10" width="86" height="86"/>
    <path fill="#F39612" stroke="#000000" stroke-width="2" stroke-linecap="round" stroke-linejoin="round" stroke-miterlimit="10" d="
        M93.6,108.9v9.3H55.4v-9.3c0-4.9,1.9-9.4,4.9-12.8c3.5-3.8,8.5-6.3,14.1-6.3s10.6,2.4,14.1,6.3C91.7,99.5,93.6,104,93.6,108.9z"/>
    <path opacity="0.7" fill="#FFFFFF" d="M84.4,116.7c0,0.5,0,0.4-0.1,0.9H65.4c0-0.5-0.1-0.4-0.1-0.9c0-6.9,4.3-12.5,9.5-12.5
        C80.1,104.2,84.4,109.8,84.4,116.7z"/>
    <path fill="#C96E0A" d="M88.6,96.1c-3.7,2.4-8.6,3.8-14.1,3.8s-10.4-1.4-14.1-3.8c3.5-3.8,8.5-6.3,14.1-6.3S85.1,92.3,88.6,96.1z"/>
    <path fill="none" stroke="#000000" stroke-width="2" stroke-linecap="round" stroke-linejoin="round" stroke-miterlimit="10" d="
        M93.6,108.9v9.3H55.4v-9.3c0-4.9,1.9-9.4,4.9-12.8c3.5-3.8,8.5-6.3,14.1-6.3s10.6,2.4,14.1,6.3C91.7,99.5,93.6,104,93.6,108.9z"/>
    <path fill="#C96E0A" stroke="#000000" stroke-width="2" stroke-linecap="round" stroke-linejoin="round" stroke-miterlimit="10" d="
        M98.5,73.8V49c0-1.3-1.5-1.9-2.4-1l-6.8,6.8"/>
    <path fill="#C96E0A" stroke="#000000" stroke-width="2" stroke-linecap="round" stroke-linejoin="round" stroke-miterlimit="10" d="
        M50.5,73.8V49c0-1.3,1.5-1.9,2.4-1l6.8,6.8"/>
    <circle fill="#C96E0A" cx="74.5" cy="73.8" r="24"/>
    <ellipse fill="#F39612" cx="76.3" cy="74.2" rx="22.2" ry="22.9"/>
    <line fill="none" stroke="#000000" stroke-width="4" stroke-linecap="round" stroke-linejoin="round" stroke-miterlimit="10" x1="63.2" y1="69.6" x2="63.2" y2="71.7"/>
    <line fill="none" stroke="#000000" stroke-width="4" stroke-linecap="round" stroke-linejoin="round" stroke-miterlimit="10" x1="85.8" y1="69.6" x2="85.8" y2="71.7"/>
    <path fill="none" stroke="#000000" stroke-width="2" stroke-miterlimit="10" d="M98.5,73.8c0,13.3-10.7,24-24,24s-24-10.7-24-24"/>
    <path fill="none" stroke="#000000" stroke-width="2" stroke-linecap="round" stroke-linejoin="round" stroke-miterlimit="10" d="
        M56.9,57.5c4.4-4.7,10.7-7.7,17.6-7.7c7,0,13.2,3,17.6,7.7"/>
    <line fill="none" stroke="#000000" stroke-width="2" stroke-linecap="round" stroke-linejoin="round" stroke-miterlimit="10" x1="50.5" y1="74.5" x2="50.5" y2="67.4"/>
    <line fill="none" stroke="#000000" stroke-width="2" stroke-linecap="round" stroke-linejoin="round" stroke-miterlimit="10" x1="98.5" y1="73.8" x2="98.5" y2="65.3"/>
    <circle opacity="0.7" fill="#FFFFFF" cx="68.9" cy="83.7" r="5.6"/>
    <circle opacity="0.7" fill="#FFFFFF" cx="80.1" cy="83.7" r="5.6"/>
    <circle fill="#FC9081" stroke="#000000" stroke-width="2" stroke-linecap="round" stroke-linejoin="round" stroke-miterlimit="10" cx="74.5" cy="80.2" r="2.8"/>
    <path fill="none" stroke="#000000" stroke-width="2" stroke-linecap="round" stroke-linejoin="round" stroke-miterlimit="10" d="
        M74.5,83.7c0,3.1-2.5,5.6-5.6,5.6c-3.1,0-5.6-2.5-5.6-5.6"/>
    <path fill="none" stroke="#000000" stroke-width="2" stroke-linecap="round" stroke-linejoin="round" stroke-miterlimit="10" d="
        M85.8,83.7c0,3.1-2.5,5.6-5.6,5.6c-3.1,0-5.6-2.5-5.6-5.6"/>
    <line fill="none" stroke="#000000" stroke-width="2" stroke-linecap="round" stroke-linejoin="round" stroke-miterlimit="10" x1="31" y1="128" x2="117" y2="128"/>
    <line fill="none" stroke="#000000" stroke-width="2" stroke-linecap="round" stroke-linejoin="round" stroke-miterlimit="10" x1="31" y1="133" x2="117" y2="133"/>
    <line fill="none" stroke="#000000" stroke-width="2" stroke-linecap="round" stroke-linejoin="round" stroke-miterlimit="10" x1="31" y1="138" x2="117" y2="138"/>
    <line fill="none" stroke="#000000" stroke-width="2" stroke-linecap="round" stroke-linejoin="round" stroke-miterlimit="10" x1="31" y1="143" x2="99" y2="143"/>
    <line fill="none" stroke="#000000" stroke-linecap="round" stroke-linejoin="round" stroke-miterlimit="10" x1="80" y1="79" x2="94" y2="79"/>
    <line fill="none" stroke="#000000" stroke-linecap="round" stroke-linejoin="round" stroke-miterlimit="10" x1="80" y1="80.8" x2="94" y2="83.3"/>
    <line fill="none" stroke="#000000" stroke-linecap="round" stroke-linejoin="round" stroke-miterlimit="10" x1="69.2" y1="79" x2="55.2" y2="79"/>
    <line fill="none" stroke="#000000" stroke-linecap="round" stroke-linejoin="round" stroke-miterlimit="10" x1="69.2" y1="80.8" x2="55.2" y2="83.3"/>
</svg>
