<svg xmlns="http://www.w3.org/2000/svg" xmlns:xlink="http://www.w3.org/1999/xlink" viewBox="0 0 150 176" enable-background="new 0 0 150 176" xml:space="preserve">
<rect x="25.9" y="71.2" fill="#F80000" stroke="#3D3D3D" stroke-width="2" width="33.6" height="9.2"/>
<rect x="25.9" y="52.4" fill="#FFBF00" stroke="#3D3D3D" stroke-width="2" width="38.1" height="9.1"/>
<path fill="#FFBF00" stroke="#3D3D3D" stroke-width="2" stroke-linecap="round" stroke-linejoin="round" stroke-miterlimit="10" d="
	M11,50.5c5-5.9,10-11.7,14.9-17.6v142H11.2C11.2,133.6,11.1,92.1,11,50.5z"/>
<path fill="#0096FF" stroke="#3D3D3D" stroke-width="2" stroke-linecap="round" stroke-linejoin="round" stroke-miterlimit="10" d="
	M59.1,119.8l-23.6,22.7c0,0-1.2-13.7-2-22.7c-0.3-3.1,0.3-8.6,2.3-11.7c3.3-4.9,17.3-15.3,20.6-17.9L59.1,119.8z"/>
<path fill="#0096FF" stroke="#3D3D3D" stroke-width="2" stroke-linecap="round" stroke-linejoin="round" stroke-miterlimit="10" d="
	M113.4,119.8l23.6,22.7c0,0,1.2-13.7,2-22.7c0.3-3.1-0.3-8.6-2.3-11.7c-3.3-4.9-17.3-15.3-20.6-17.9L113.4,119.8z"/>
<path fill="#D7D7D7" stroke="#3D3D3D" stroke-width="2" stroke-linejoin="round" d="M58.5,155.9h55.6V175H58.5V155.9z"/>
<path fill="#F4F4F4" stroke="#3D3D3D" stroke-width="2" stroke-miterlimit="10" d="M123.4,112.1c-0.9,6.4-1.8,13-2.3,19.5
	c-0.3,1.6-1.8,2.8-3.4,2.6H55.1c-1.6,0.1-3.1-1-3.4-2.6c-0.2-2.7-0.6-5.4-0.9-8.1c-0.4-3.8-1-7.6-1.4-11.4
	c-3.5-26.6-6.3-54.1,7.6-79.1c1.9-3.4,4-6.7,6.3-9.8h46.2c2.3,3.1,4.4,6.4,6.3,9.8C129.7,58.1,126.9,85.5,123.4,112.1z"/>
<ellipse fill="#FFFFFF" stroke="#3D3D3D" stroke-width="2" stroke-miterlimit="10" cx="86.4" cy="52.9" rx="14.8" ry="14.6"/>
<ellipse fill="#98D5FF" stroke="#3D3D3D" stroke-width="2" stroke-miterlimit="10" cx="86.4" cy="52.9" rx="9.2" ry="9.1"/>
<path fill="#0096FF" stroke="#3D3D3D" stroke-width="2" stroke-linecap="round" stroke-linejoin="round" stroke-miterlimit="10" d="
	M109.5,23.2H63.3C69.1,15.2,76,8,83.7,1.8C84.5,1.3,85.4,1,86.4,1h0.3c0.9,0,1.8,0.3,2.5,0.8C96.8,8.1,103.6,15.3,109.5,23.2z"/>
<rect x="81.5" y="103" fill="#0096FF" stroke="#3D3D3D" stroke-width="2" stroke-linecap="round" stroke-linejoin="round" stroke-miterlimit="10" width="10.8" height="41.1"/>
<rect x="24" y="53.5" fill="#FFBF00" width="12" height="7"/>
</svg>
