<svg id="m-svg__error-access-denied" xmlns="http://www.w3.org/2000/svg" xmlns:xlink="http://www.w3.org/1999/xlink" viewBox="0 0 150 134" xml:space="preserve">
<path fill="#D7D7D7" d="M109.4,35.4v24.3H95.1V36.1c0-0.3,0-0.5,0-0.8C94.7,24.6,85.9,16,75.1,16s-19.6,8.6-20,19.3
	c0,0.3,0,0.5,0,0.8v23.5H40.6V35.4C40.6,16.4,56,1,75,1S109.4,16.4,109.4,35.4z"/>
<path fill="#F4F4F4" d="M76.4,5.9L76.4,5.9c0,0.9-0.7,1.7-1.6,1.8c-15,0.8-26.9,13.2-26.9,28.4c0,0.1,0,0.2,0,0.4v21.2
	c0,0.1,0,0.1-0.1,0.1h-3.3c-0.1,0-0.1,0-0.1-0.1V36.1c0-17,13.3-30.9,30.1-31.9C75.5,4.1,76.4,4.9,76.4,5.9z"/>
<path fill="#FFFFFF" d="M46.9,36.1v0.4C46.9,36.3,46.9,36.2,46.9,36.1L46.9,36.1z"/>
<path fill="#FFC103" d="M32.7,132c-1.1,0-1.9-0.9-1.9-1.9V60.5c0-1.1,0.9-1.9,1.9-1.9h84.6c1.1,0,1.9,0.9,1.9,1.9v69.6
	c0,1.1-0.9,1.9-1.9,1.9H32.7z"/>
<path d="M117.3,59.6c0.5,0,0.9,0.4,0.9,0.9v69.6c0,0.5-0.4,0.9-0.9,0.9H32.7c-0.5,0-0.9-0.4-0.9-0.9V60.5c0-0.5,0.4-0.9,0.9-0.9
	H117.3 M117.3,57.6H32.7c-1.6,0-2.9,1.3-2.9,2.9v69.6c0,1.6,1.3,2.9,2.9,2.9h84.6c1.6,0,2.9-1.3,2.9-2.9V60.5
	C120.2,58.9,118.9,57.6,117.3,57.6L117.3,57.6z"/>
<polygon opacity="0.25" fill="#FFFFFF" enable-background="new    " points="70.3,59.1 52.6,79.5 31,108.2 31,70 31,59 40.1,59.1
	"/>
<polygon opacity="0.25" fill="#FFFFFF" enable-background="new    " points="89.7,58.8 63.3,89.3 31,132 31,75.1 31,58.8 44.6,58.8
	"/>
<path d="M80.5,91.2l4.6,26.8H64.9l4.6-26.8c-2.8-1.8-4.6-4.9-4.6-8.4c0-4.7,3.3-8.7,7.7-9.8c0.8-0.2,1.5-0.3,2.3-0.3
	s1.6,0.1,2.3,0.3c4.4,1.1,7.7,5,7.7,9.8C85.1,86.3,83.2,89.4,80.5,91.2z"/>
<path d="M117.3,59.6c0.5,0,0.9,0.4,0.9,0.9v69.6c0,0.5-0.4,0.9-0.9,0.9H32.7c-0.5,0-0.9-0.4-0.9-0.9V60.5c0-0.5,0.4-0.9,0.9-0.9
	H117.3 M117.3,57.6H32.7c-1.6,0-2.9,1.3-2.9,2.9v69.6c0,1.6,1.3,2.9,2.9,2.9h84.6c1.6,0,2.9-1.3,2.9-2.9V60.5
	C120.2,58.9,118.9,57.6,117.3,57.6L117.3,57.6z"/>
<path d="M75,3c17.8,0,32.4,14.5,32.4,32.4v22.3H97.1V36.1c0-0.3,0-0.6,0-0.9c-0.5-11.8-10.1-21.1-22-21.1s-21.6,9.3-22,21.1
	c0,0.4,0,0.7,0,0.9v21.5H42.6V35.4C42.6,17.5,57.2,3,75,3 M75,1C56,1,40.6,16.4,40.6,35.4v24.3h14.3V36.1c0-0.3,0-0.5,0-0.8
	c0.4-10.7,9.2-19.3,20-19.3s19.6,8.6,20,19.3c0,0.3,0,0.5,0,0.8v23.5h14.3V35.4C109.4,16.4,94,1,75,1L75,1z"/>
</svg>
