<svg id="m-svg__error-technical-difficulty"
	 xmlns="http://www.w3.org/2000/svg" xmlns:xlink="http://www.w3.org/1999/xlink"
	 viewBox="0 0 153 132" xml:space="preserve">
<path fill="none" stroke="#000000" stroke-width="5" stroke-miterlimit="10" d="M89.5,65.4c17.2-17.6,19.3-27,16.9-32.3
	c-2.7-6-10.8-6.4-12.6-13.7c-1.5-5.9,1.9-13.3,7.1-15.7c8.5-3.9,22.2,5.8,24.2,15.7c1.5,7.6-4.5,13-1.3,21.2
	c1.4,3.5,3.8,5.9,5.5,7.3"/>
<path fill="#FFFFFF" stroke="#000000" stroke-width="2" stroke-miterlimit="10" d="M111.5,85l-1.7,7.1c-0.4,1.5-1.9,2.4-3.4,2.1
	l-27-6.5c-1.5-0.4-2.4-1.9-2.1-3.4l1.7-7.1c0.4-1.5,1.9-2.4,3.4-2.1l27,6.5C110.9,82,111.8,83.5,111.5,85z"/>
<path fill="#D7D7D7" d="M109.8,90.7l-0.3,1.3c-0.2,1-1.2,1.6-2.2,1.4l-28.8-7c-1-0.2-1.6-1.2-1.4-2.2l0.3-1.3c0.2-1,1.2-1.6,2.2-1.4
	l28.8,7C109.5,88.7,110.1,89.7,109.8,90.7z"/>
<path fill="#FFFFFF" stroke="#000000" stroke-width="2" stroke-miterlimit="10" d="M110.7,72.1l3.4,0.8l-5.8,24l-13.7-3.3
	c-1.8-0.4-2.9-2.3-2.5-4.1l2.5-10.4c0.4-1.8,2.3-2.9,4.1-2.5l3.7,0.9l0.1-0.3C103.3,73.5,107,71.2,110.7,72.1z"/>
<rect x="100.3" y="83.8" transform="matrix(0.2355 -0.9719 0.9719 0.2355 3.1518 174.735)" fill="#FFFFFF" stroke="#000000" stroke-width="2" stroke-miterlimit="10" width="24.7" height="3.2"/>
<line fill="none" stroke="#000000" stroke-width="2" stroke-miterlimit="10" x1="102.3" y1="77.5" x2="101" y2="82.9"/>
<line fill="none" stroke="#000000" stroke-width="2" stroke-miterlimit="10" x1="112.6" y1="92.7" x2="111" y2="92.3"/>
<line fill="none" stroke="#000000" stroke-width="2" stroke-miterlimit="10" x1="113.7" y1="88" x2="112.1" y2="87.7"/>
<line fill="none" stroke="#000000" stroke-width="2" stroke-miterlimit="10" x1="114.8" y1="83.4" x2="113.3" y2="83"/>
<line fill="none" stroke="#000000" stroke-width="2" stroke-miterlimit="10" x1="115.9" y1="78.7" x2="114.4" y2="78.4"/>
<rect x="94.9" y="81.7" transform="matrix(0.2355 -0.9719 0.9719 0.2355 -8.7167 158.006)" fill="none" stroke="#000000" stroke-width="2" stroke-miterlimit="10" width="2.4" height="5.6"/>
<path fill="#D7D7D7" stroke="#000000" stroke-width="2" stroke-miterlimit="10" d="M74.2,123.9l7-2c1.5-0.4,2.3-2,1.9-3.5l-7.7-26.7
	c-0.4-1.5-2-2.3-3.5-1.9l-7,2c-1.5,0.4-2.3,2-1.9,3.5l7.7,26.7C71.2,123.4,72.7,124.3,74.2,123.9z"/>
<path fill="#FFFFFF" stroke="#000000" stroke-width="2" stroke-miterlimit="10" d="M61.3,123.6l1,3.4l23.8-6.8l-3.9-13.6
	c-0.5-1.8-2.4-2.8-4.2-2.3l-10.3,3c-1.8,0.5-2.8,2.4-2.3,4.2l1,3.6l-0.3,0.1C62.4,116.2,60.2,120,61.3,123.6z"/>
<rect x="62.2" y="123.5" transform="matrix(0.9612 -0.276 0.276 0.9612 -31.6262 25.4444)" fill="#D7D7D7" stroke="#000000" stroke-width="2" stroke-miterlimit="10" width="24.7" height="3.2"/>
<line fill="none" stroke="#000000" stroke-width="2" stroke-miterlimit="10" x1="66.3" y1="115" x2="71.7" y2="113.5"/>
<line fill="none" stroke="#000000" stroke-width="2" stroke-miterlimit="10" x1="81.9" y1="124.6" x2="81.5" y2="123.1"/>
<line fill="none" stroke="#000000" stroke-width="2" stroke-miterlimit="10" x1="77.3" y1="126" x2="76.9" y2="124.4"/>
<line fill="none" stroke="#000000" stroke-width="2" stroke-miterlimit="10" x1="72.7" y1="127.3" x2="72.3" y2="125.8"/>
<line fill="none" stroke="#000000" stroke-width="2" stroke-miterlimit="10" x1="68.1" y1="128.6" x2="67.7" y2="127.1"/>
<rect x="71.9" y="105.7" transform="matrix(0.9612 -0.276 0.276 0.9612 -27.1057 24.4025)" fill="#D7D7D7" stroke="#000000" stroke-width="2" stroke-miterlimit="10" width="2.4" height="5.6"/>
<path fill="#929292" d="M57.5,107.9c-0.6,0-1.1-0.2-1.6-0.6L16.5,69.5c-1.7-1.6-2.7-3.8-2.7-6.2s0.8-4.6,2.5-6.3l25.5-26.6
	c1.7-1.8,4-2.7,6.4-2.7c2.3,0,4.5,0.9,6.2,2.5L93.8,68c0.4,0.4,0.7,1,0.7,1.6s-0.2,1.2-0.6,1.6l-34.7,36.2
	C58.7,107.7,58.1,107.9,57.5,107.9z"/>
<path d="M48.2,28.6L48.2,28.6c2.1,0,4,0.8,5.5,2.2l39.4,37.8c0.5,0.5,0.5,1.3,0,1.8l-34.7,36.2c-0.2,0.2-0.6,0.4-0.9,0.4
	c-0.3,0-0.6-0.1-0.9-0.3L17.2,68.8c-1.5-1.5-2.4-3.4-2.4-5.5c0-2.1,0.7-4.1,2.2-5.6l25.5-26.6C44,29.5,46,28.6,48.2,28.6 M48.2,26.6
	c-2.6,0-5.2,1-7.1,3L15.6,56.2c-3.8,3.9-3.6,10.2,0.3,14L55.3,108c0.6,0.6,1.4,0.9,2.2,0.9c0.9,0,1.7-0.3,2.3-1l34.8-36.1
	c1.2-1.3,1.2-3.4-0.1-4.6L55,29.4C53.1,27.5,50.6,26.6,48.2,26.6L48.2,26.6z"/>
<path fill="#FFFFFF" stroke="#000000" stroke-width="2" stroke-miterlimit="10" d="M77.8,37.4L77.8,37.4c0.4,0.4,0.7,0.9,0.9,1.5
	l0.3,1.3c0.2,0.8,0.1,1.6-0.3,2.3c-0.4,0.8-1.2,1.4-2.1,1.6l-4.4,1l-1.8-7.5l0,0l4.4-1.1C75.8,36.2,77,36.6,77.8,37.4z"/>
<path fill="#FFFFFF" stroke="#000000" stroke-width="2" stroke-linejoin="round" stroke-miterlimit="10" d="M84.7,44.7
	c0.8-0.2,1.6-0.2,2.3,0.1l3.9,1.1c0.7,0.2,1.5-0.1,1.7-0.8s-0.1-1.5-0.8-1.7l-4.2-1.5l8-0.3c0.7,0,1.3-0.6,1.3-1.3S96.3,39,95.6,39
	h-6.8l8.2-1.9c0.7-0.2,1.2-0.9,1-1.6c-0.2-0.7-0.9-1.2-1.6-1l-8.2,1.9l6.5-3c0.7-0.3,1-1.1,0.7-1.8s-1.1-1-1.8-0.7l-9.4,3.6l1.7-3.1
	c0.4-0.6,0.1-1.5-0.5-1.8c-0.6-0.4-1.5-0.1-1.8,0.5l-5,5.9c-0.6,0.9-0.8,2-0.6,3.1c0.1,0.6,0.5,2.4,0.7,3
	C79.2,45,81.8,45.3,84.7,44.7z"/>
<path fill="#FFFFFF" stroke="#000000" stroke-width="2" stroke-linejoin="round" stroke-miterlimit="10" d="M32.4,99.2
	c-0.1,0.8-0.1,1.6,0.2,2.3l1.2,3.9c0.3,0.7-0.1,1.5-0.8,1.7c-0.7,0.3-1.5-0.1-1.7-0.8l-1.7-4.2v8c0,0.7-0.6,1.4-1.3,1.4
	c-0.7,0-1.4-0.6-1.4-1.3l-0.3-6.8l-1.5,8.3c-0.1,0.7-0.8,1.2-1.6,1.1s-1.2-0.8-1.1-1.6l1.5-8.3l-2.7,6.6c-0.3,0.7-1.1,1-1.7,0.7
	c-0.7-0.3-1-1.1-0.7-1.7L22,99l-3,1.8c-0.6,0.4-1.4,0.2-1.8-0.4S17,99,17.6,98.6l5.7-5.3c0.9-0.6,2-0.9,3.1-0.7
	c0.6,0.1,2.4,0.4,3.1,0.6C32.5,93.7,32.9,96.3,32.4,99.2z"/>
<path fill="#FFFFFF" stroke="#000000" stroke-width="2" stroke-miterlimit="10" d="M34.6,90l-0.4,2.1c-0.2,1.2-1.3,2.1-2.5,2.2
	c-0.3,0-0.5,0-0.8,0l-3.2-0.6l-1.3-0.3l-2.5-0.5l-0.8-0.1c-1.5-0.3-2.5-1.8-2.2-3.3l0.4-2.1c0.3-1.5,1.8-2.5,3.3-2.2h0.1l7.6,1.5
	h0.1C33.9,87.1,34.9,88.5,34.6,90z"/>
<path fill="none" stroke="#000000" stroke-width="2" stroke-miterlimit="10" d="M70.4,37.6l1.8,7.5l-8.4,2l19.9,19.1
	c7.2,6.9,6.4,19.5-1.9,28s-20.7,9.9-27.9,3L34,78.2l-1.7,8.5l-7.6-1.5l3-14.8c0.3-1.7,2.1-2.9,3.8-2.5L32,68l21.5-22.4l-0.1-0.5
	c-0.4-1.7,0.6-3.5,2.4-3.9L70.4,37.6z"/>
<path fill="none" stroke="#000000" stroke-width="5" stroke-miterlimit="10" d="M137,55.8c16,16,3.3,26-1,30
	c-2.2,2.1-4.6,3.7-7.3,6.4c-5.2,5.3-9.7,15.3-6.4,23.9c3.7,9.6,16.4,15.7,29.5,12"/>
<line fill="none" stroke="#000000" stroke-width="2" stroke-miterlimit="10" x1="127" y1="47.8" x2="130" y2="50.8"/>
<line fill="none" stroke="#000000" stroke-width="2" stroke-miterlimit="10" x1="132.7" y1="55.3" x2="136.4" y2="57.3"/>
<line fill="none" stroke="#000000" stroke-miterlimit="10" x1="135.7" y1="55.2" x2="139.4" y2="57.4"/>
<line fill="none" stroke="#000000" stroke-width="2" stroke-miterlimit="10" x1="129" y1="47.8" x2="133.2" y2="50.6"/>
<line fill="none" stroke="#000000" stroke-width="2" stroke-miterlimit="10" x1="136.5" y1="51.5" x2="138.6" y2="55.1"/>
<line fill="none" stroke="#000000" stroke-width="2" stroke-miterlimit="10" x1="128.6" y1="45.5" x2="132.5" y2="47.1"/>
<path fill="#FFFFFF" stroke="#000000" stroke-width="2" stroke-miterlimit="10" d="M70.4,37.6l1.8,7.5l-8.4,2l19.9,19.1
	c7.2,6.9,6.4,19.5-1.9,28s-20.7,9.9-27.9,3L34,78.2l-1.7,8.5l-7.6-1.5l3-14.8c0.3-1.7,2.1-2.9,3.8-2.5L32,68l21.5-22.4l-0.1-0.5
	c-0.4-1.7,0.6-3.5,2.4-3.9L70.4,37.6z"/>
<path fill="#D7D7D7" d="M82.6,64.2L82.6,64.2c8.3,8.3,8.3,22-0.1,30.4s-22.1,8.4-30.5,0L35.2,77.8L82.6,64.2z"/>
<path fill="#FFFFFF" d="M80.8,62.7l1.8,3.1c6.7,7.4,2,18.3-5.4,25.1c-7.4,6.7-18.1,6-26.8-0.6L32.2,75.8L80.8,62.7z"/>
<path fill="none" stroke="#000000" stroke-width="2" stroke-miterlimit="10" d="M70.4,37.6l1.8,7.5l-8.4,2l19.9,19.1
	c7.2,6.9,6.4,19.5-1.9,28s-20.7,9.9-27.9,3L34,78.2l-1.7,8.5l-7.6-1.5l3-14.8c0.3-1.7,2.1-2.9,3.8-2.5L32,68l21.5-22.4l-0.1-0.5
	c-0.4-1.7,0.6-3.5,2.4-3.9L70.4,37.6z"/>
<path fill="#F39612" d="M62.9,89.4c0,0-0.1,0-0.2-0.1L45.2,72.6c-0.1-0.1-0.1-0.3,0-0.5l12.9-13.5c0.1-0.1,0.2-0.1,0.2-0.1
	s0.1,0,0.2,0.1l17.4,16.7c0.1,0.1,0.1,0.2,0.1,0.2c0,0.1,0,0.1-0.1,0.2L63.1,89.3C63,89.4,62.9,89.4,62.9,89.4z"/>
<path d="M58.4,59.8l16.5,15.8l-12,12.5L46.4,72.3L58.4,59.8 M58.4,57.6c-0.3,0-0.7,0.1-1,0.4L44.5,71.4c-0.5,0.5-0.5,1.4,0,1.9
	L61.9,90c0.3,0.2,0.6,0.4,0.9,0.4c0.3,0,0.7-0.1,1-0.4l12.9-13.5c0.5-0.5,0.5-1.4,0-1.9L59.3,57.9C59,57.7,58.7,57.6,58.4,57.6
	L58.4,57.6z"/>
<path fill="#B3040F" d="M53.3,74.8c-0.5,0-1-0.2-1.3-0.5c-0.4-0.4-0.6-0.8-0.6-1.4c0-0.5,0.2-1,0.5-1.4c0.4-0.4,0.9-0.6,1.4-0.6
	s1,0.2,1.3,0.5c0.4,0.4,0.6,0.9,0.6,1.4s-0.2,1-0.5,1.4C54.3,74.6,53.8,74.8,53.3,74.8z"/>
<path d="M53.3,71.4L53.3,71.4c0.4,0,0.7,0.1,1,0.4c0.6,0.5,0.6,1.5,0,2c-0.3,0.3-0.6,0.4-1,0.4s-0.7-0.1-1-0.4s-0.4-0.6-0.4-1
	s0.1-0.7,0.4-1C52.5,71.5,52.9,71.4,53.3,71.4 M53.3,70.4c-0.6,0-1.3,0.3-1.8,0.8c-0.9,1-0.9,2.5,0.1,3.4c0.5,0.5,1.1,0.7,1.7,0.7
	c0.6,0,1.3-0.3,1.8-0.8c0.9-1,0.9-2.5-0.1-3.4C54.5,70.6,53.9,70.4,53.3,70.4L53.3,70.4z"/>
<path fill="#0075C3" stroke="#000000" stroke-miterlimit="10" d="M60.9,68.4l-1.7,1.8c-0.9,1-2.5,1-3.4,0.1l0,0
	c-1-0.9-1-2.5-0.1-3.4l1.7-1.8c0.9-1,2.5-1,3.4-0.1l0,0C61.8,65.8,61.9,67.4,60.9,68.4z"/>
<line fill="none" stroke="#000000" stroke-miterlimit="10" x1="56.8" y1="66.1" x2="60.1" y2="69.2"/>
<path fill="#98D5FF" stroke="#000000" stroke-miterlimit="10" d="M71.2,76.5l-7.6,7.9c-0.5,0.5-1.2,0.5-1.7,0l-5.3-5
	c-0.5-0.5-0.5-1.2,0-1.7l7.6-7.9c0.5-0.5,1.2-0.5,1.7,0l5.3,5C71.7,75.3,71.7,76.1,71.2,76.5z"/>
<line fill="none" stroke="#000000" stroke-miterlimit="10" x1="58.9" y1="75.7" x2="66" y2="82.5"/>
<line fill="none" stroke="#000000" stroke-miterlimit="10" x1="62.3" y1="72.2" x2="69.4" y2="79"/>
<line fill="none" stroke="#000000" stroke-miterlimit="10" x1="58.2" y1="80.5" x2="67.5" y2="70.8"/>
<line fill="none" stroke="#000000" stroke-miterlimit="10" x1="60.6" y1="83.2" x2="69.9" y2="73.6"/>
<path fill="#FFFFFF" stroke="#000000" stroke-width="2" stroke-miterlimit="10" d="M54,48.5L34.9,68.4c-1.7,1.8-4.6,1.9-6.4,0.1
	l-0.9-0.9c-1.8-1.7-1.9-4.6-0.1-6.4l19.1-19.9c1.7-1.8,4.6-1.9,6.4-0.1l0.9,0.9C55.6,43.8,55.7,46.7,54,48.5z"/>
<path fill="#FFFFFF" d="M25.8,62.9c-6.2,0-12.1-2.4-16.7-6.8S1.9,45.9,1.6,39.7s1.9-12,6.1-16.4s10-6.8,16.2-6.8s12.1,2.4,16.7,6.8
	s7.2,10.2,7.5,16.4s-1.9,12-6.1,16.4C37.7,60.5,32,62.9,25.8,62.9z"/>
<path d="M23.9,15.4v2l0,0c5.9,0,11.6,2.3,16,6.5c9,8.7,9.6,22.8,1.3,31.4c-4,4.2-9.5,6.5-15.4,6.5s-11.6-2.3-16-6.5
	s-6.9-9.8-7.2-15.8C2.4,33.6,4.4,28,8.5,23.8c4-4.2,9.5-6.5,15.4-6.5V15.4 M23.9,15.4c-6.2,0-12.3,2.4-16.9,7.1
	C-2.1,32-1.5,47.4,8.4,56.8c4.9,4.7,11.2,7.1,17.4,7.1s12.3-2.4,16.9-7.1c9.1-9.5,8.5-24.8-1.4-34.3C36.4,17.8,30.1,15.4,23.9,15.4
	L23.9,15.4z"/>
<ellipse transform="matrix(0.6921 -0.7218 0.7218 0.6921 -20.9882 30.0775)" cx="24.8" cy="39.6" rx="19.9" ry="20.7"/>
<path fill="none" stroke="#FFFFFF" stroke-width="3" stroke-linecap="round" stroke-linejoin="round" stroke-miterlimit="10" d="
	M9.4,31c4.9-9.7,17.9-10.1,23.3-7"/>
<path fill="#FFFFFF" d="M8.3,35.6c1.9,0,1.9-3,0-3S6.4,35.6,8.3,35.6L8.3,35.6z"/>
<path fill="#FFFFFF" stroke="#000000" stroke-width="2" stroke-miterlimit="10" d="M77.8,35.7l0.2,0.8l0.6,2.4l0.3,1.3l0.8,3.2
	c0.1,0.3,0.1,0.6,0.1,0.8c-0.1,1.2-0.9,2.3-2.1,2.6l-2.1,0.5c-1.5,0.4-3-0.6-3.4-2.1v-0.1l-1.8-7.5l0,0v-0.1c-0.4-1.5,0.6-3,2.1-3.4
	l2.1-0.5C76,33.2,77.5,34.2,77.8,35.7z"/>
<path fill="none" stroke="#000000" stroke-width="2" stroke-miterlimit="10" d="M77.8,35.7l0.2,0.8l0.6,2.4l0.3,1.3l0.8,3.2
	c0.1,0.3,0.1,0.6,0.1,0.8c-0.1,1.2-0.9,2.3-2.1,2.6l-2.1,0.5c-1.5,0.4-3-0.6-3.4-2.1v-0.1l-1.8-7.5l0,0v-0.1c-0.4-1.5,0.6-3,2.1-3.4
	l2.1-0.5C76,33.2,77.5,34.2,77.8,35.7z"/>
<ellipse transform="matrix(0.82 -0.5724 0.5724 0.82 -56.3444 59.2237)" fill="#D7D7D7" cx="66" cy="119.2" rx="4" ry="2"/>
</svg>
