<svg id="m-svg__error-browser-not-supported"
	 xmlns="http://www.w3.org/2000/svg" xmlns:xlink="http://www.w3.org/1999/xlink"
	 viewBox="0 0 150.1 93" xml:space="preserve">
<path fill="none" stroke="#000000" stroke-width="7" stroke-linejoin="round" stroke-miterlimit="10" d="M27.7,23.8
	C6.3,31.2,13.4,45.7,15.5,51.2c1.1,2.8,2.5,5.3,3.8,9c2.4,7.1,2,18-4.7,24.3c-3.7,3.4-8.9,5.1-14.5,5"/>
<path d="M150.1,55.4v9c-1.2,1.3-2.2,2.6-3,3.8c-0.2,0.3-0.4,0.6-0.6,0.8c-0.7,0.9-1.3,1.9-2,2.9c-1,1.5-2.1,3.3-3.7,5.2
	c-7.7,9.5-18.7,12-26.1,10.3c-0.2,0-0.4-0.1-0.6-0.1c-5.7-1.5-10.7-5.5-14-11.2l6-3.5c2.4,4.1,5.9,7,9.8,8
	c7.1,1.9,15.3-2.6,19.5-7.8c1.3-1.6,2.3-3.2,3.3-4.6c0.7-1.1,1.4-2.2,2.2-3.3c0.2-0.2,0.4-0.5,0.6-0.8
	C143.2,61.7,146,57.9,150.1,55.4z"/>
<polygon fill="#3D3D3D" stroke="#000000" stroke-width="2" stroke-linecap="round" stroke-linejoin="round" stroke-miterlimit="10" points="
	67.8,33.5 63.7,30.7 63.6,30.6 60.7,14.7 60.8,14.4 65.6,1 79.4,16.8 74.5,30.5 "/>
<polygon stroke="#000000" stroke-width="2" stroke-linecap="round" stroke-linejoin="round" stroke-miterlimit="10" points="
	67.8,33.5 43,38 38.9,35.2 63.7,30.7 "/>
<line fill="none" stroke="#000000" stroke-width="2" stroke-linecap="round" stroke-linejoin="round" stroke-miterlimit="10" x1="60.8" y1="14.4" x2="60.9" y2="14.4"/>
<line fill="none" stroke="#000000" stroke-width="2" stroke-linecap="round" stroke-linejoin="round" stroke-miterlimit="10" x1="35.9" y1="18.9" x2="36" y2="18.9"/>
<line fill="none" stroke="#000000" stroke-width="2" stroke-linecap="round" stroke-linejoin="round" stroke-miterlimit="10" x1="38.8" y1="35.2" x2="38.9" y2="35.2"/>
<line fill="none" stroke="#000000" stroke-width="2" stroke-linecap="round" stroke-linejoin="round" stroke-miterlimit="10" x1="63.7" y1="30.7" x2="63.8" y2="30.7"/>
<polygon fill="#282828" stroke="#000000" stroke-width="2" stroke-linecap="round" stroke-linejoin="round" stroke-miterlimit="10" points="
	63.7,30.7 38.9,35.2 38.8,35.1 35.9,19.1 36,18.9 60.8,14.4 60.7,14.7 63.6,30.6 "/>
<path fill="#282828" stroke="#000000" stroke-width="2" stroke-linecap="round" stroke-linejoin="round" stroke-miterlimit="10" d="
	M37.9,30.2l-10,1.8c-1.4,0.2-3.2-3.2-4-7.7s-0.3-8.3,1-8.6l13-2.3l-2,5.5l-0.1,0.2L37.9,30.2z"/>
<polygon fill="#FFC103" stroke="#000000" stroke-width="2" stroke-linecap="round" stroke-linejoin="round" stroke-miterlimit="10" points="
	65.7,13.6 67.4,8.1 90,4 88.3,9.5 "/>
<polygon fill="#FFC103" stroke="#000000" stroke-width="2" stroke-linecap="round" stroke-linejoin="round" stroke-miterlimit="10" points="
	73.5,22.5 75.2,17 97.7,12.9 96,18.4 "/>
<path fill="#BCBCBC" stroke="#000000" stroke-width="2" stroke-linecap="round" stroke-linejoin="round" stroke-miterlimit="10" d="
	M88.5,24.9l-20,3.6c-0.7,0.1-1.5-0.9-1.7-2.3s0.1-2.6,0.8-2.7l20-3.6c1.4-0.2,2.7,0.7,3,2c0.1,0.7,0,1.4-0.4,1.9
	C89.7,24.4,89.1,24.8,88.5,24.9z"/>
<rect x="24" y="15.8" transform="matrix(0.9841 -0.1777 0.1777 0.9841 -2.6955 5.7286)" opacity="0.3" fill="#EAEAEA" enable-background="new    " width="13.2" height="4.2"/>
<rect x="23.9" y="21.2" transform="matrix(0.9841 -0.1777 0.1777 0.9841 -3.3831 5.7142)" opacity="0.3" fill="#EAEAEA" enable-background="new    " width="12.6" height="1.1"/>
<path opacity="0.7" fill="#FFFFFF" enable-background="new    " d="M68.2,25.5L68.2,25.5c-0.1-0.3,0.1-0.6,0.4-0.6l19.7-3.6
	c0.3-0.1,0.6,0.1,0.6,0.4l0,0c0.1,0.3-0.1,0.6-0.4,0.6L68.8,26C68.5,26,68.2,25.8,68.2,25.5z"/>
<path fill="none" stroke="#000000" stroke-width="2" stroke-linecap="round" stroke-linejoin="round" stroke-miterlimit="10" d="
	M37.9,30.2l-10,1.8c-1.4,0.2-3.2-3.2-4-7.7s-0.3-8.3,1-8.6l13-2.3l-2,5.5l-0.1,0.2L37.9,30.2z"/>
<polygon fill="#5B5B5B" stroke="#000000" stroke-width="2" stroke-linecap="round" stroke-linejoin="round" stroke-miterlimit="10" points="
	60.8,14.4 36,18.9 38,13.4 40.8,5.5 65.6,1 "/>
<path fill="#282828" stroke="#000000" stroke-width="2" stroke-linecap="round" stroke-linejoin="round" stroke-miterlimit="10" d="
	M105,65.3l9.6,6.1c1.3,0.8,0.2,5-2.5,9.3s-6,7.1-7.3,6.3l-12.5-7.9l5.8-3.1l0.2-0.1L105,65.3z"/>
<rect x="106.6" y="64.3" transform="matrix(0.5325 -0.8464 0.8464 0.5325 -9.774 125.7281)" opacity="0.3" fill="#EAEAEA" enable-background="new    " width="4.7" height="14.8"/>
<rect x="106.1" y="68.4" transform="matrix(0.5325 -0.8464 0.8464 0.5325 -13.9751 125.6143)" opacity="0.3" fill="#EAEAEA" enable-background="new    " width="1.2" height="14.2"/>
<path fill="none" stroke="#000000" stroke-width="2" stroke-linecap="round" stroke-linejoin="round" stroke-miterlimit="10" d="
	M105,65.3l9.6,6.1c1.3,0.8,0.2,5-2.5,9.3s-6,7.1-7.3,6.3l-12.5-7.9l5.8-3.1l0.2-0.1L105,65.3z"/>
<path fill="#FFC103" stroke="#000000" stroke-width="2" stroke-linecap="round" stroke-linejoin="round" stroke-miterlimit="10" d="
	M90.1,44.3c0.6,0.4,1.2,0.9,1.5,1.6c2.2,3.8,0.7,11.7-4,19.2S76.4,77.4,72,77.1c-0.8-0.1-1.5-0.3-2.1-0.7c-4.2-2.6-3.1-12,2.5-20.9
	C77.9,46.8,85.9,41.7,90.1,44.3z"/>
<path fill="#282828" stroke="#000000" stroke-width="2" stroke-linecap="round" stroke-linejoin="round" stroke-miterlimit="10" d="
	M91.6,46l13,16.9l0.5,0.6l0,0c0.1,0.1,0.1,0.3,0.2,0.5c0.6,2.1-0.7,6.2-3.2,10.3c-2.6,4.1-5.7,7-7.9,7.4c-0.2,0-0.3,0-0.4,0.1l0,0
	L93,81.6l-21-4.4c4.4,0.4,10.8-4.4,15.6-12C92.3,57.7,93.8,49.8,91.6,46z"/>
<rect x="70.1" y="56.5" transform="matrix(0.5452 -0.8383 0.8383 0.5452 -13.5324 90.4607)" fill="#231F20" width="13" height="2.4"/>
<rect x="81.3" y="57.8" transform="matrix(0.5452 -0.8383 0.8383 0.5452 -13.6587 96.9022)" fill="#231F20" width="2.4" height="6.4"/>
</svg>
