<svg id="m-svg__error-cookies-disabled"
	 xmlns="http://www.w3.org/2000/svg" xmlns:xlink="http://www.w3.org/1999/xlink"
	 viewBox="0 0 150 133" xml:space="preserve">
    <path fill="#906145" stroke="#000000" stroke-width="2" stroke-linecap="round" stroke-linejoin="round" stroke-miterlimit="10" d="
    M140,66.4c0,8.4-1.6,16.5-4.5,23.8c-1.5-0.8-2.9-1.9-4-3.2c-2.9-3.4-4.1-8-2.9-12.7c1.4-5.3,5.7-9.1,10.7-10.1
    c0.2-0.1,0.4-0.1,0.7-0.1C140,64.9,140,65.8,140,66.4z"/>

    <path fill="#DAB67B" stroke="#000000" stroke-width="2" stroke-linecap="round" stroke-linejoin="round" stroke-miterlimit="10" d="
    M128.6,74.4c-1.2,4.6,0,9.3,2.9,12.7c1.1,1.3,2.5,2.4,4,3.2c-9.5,24.1-33,41.2-60.5,41.2c-11.4,0-22-2.9-31.3-8
    c1.9-2.3,3.3-5,4.1-8.1c0.1-0.4,0.2-0.8,0.3-1.3c2.3-11.1-4.5-22.2-15.7-25.2c-4.3-1.2-8.7-0.9-12.6,0.4c-1.7,0.6-3.3,1.4-4.8,2.3
    c-3.2-7.7-5-16.2-5-25.2c0-1.9,0.1-3.8,0.3-5.7c0.4-4.3,1.1-8.5,2.3-12.5C15,40.1,19,32.5,24.2,26C36.1,11,54.5,1.5,75,1.5
    c4.6,0,9.1,0.5,13.5,1.4C90,3.2,91.5,3.6,93,4c-1.6,1.8-2.9,3.9-3.6,6.3c-0.6,1.8-1,3.8-1,5.8c0,10,8.1,18.1,18.1,18.1
    c1,0,1.9-0.1,2.9-0.3c-0.1,0.9-0.3,1.9-0.3,2.9c0,10,8.1,18.1,18.1,18.1c4.1,0,7.9-1.4,10.9-3.7c0.7,3.1,1.3,6.2,1.5,9.5
    c0.1,1.2,0.2,2.3,0.2,3.5c-0.2,0-0.4,0.1-0.7,0.1C134.3,65.3,130,69.2,128.6,74.4z"/>

    <circle fill="#906145" stroke="#000000" stroke-width="2" stroke-linecap="round" stroke-linejoin="round" stroke-miterlimit="10" cx="72.2" cy="66.2" r="18"/>

    <circle fill="#906145" stroke="#000000" stroke-width="2" stroke-linecap="round" stroke-linejoin="round" stroke-miterlimit="10" cx="94.8" cy="97.7" r="6.7"/>

    <circle fill="#906145" stroke="#000000" stroke-width="2" stroke-linecap="round" stroke-linejoin="round" stroke-miterlimit="10" cx="65.9" cy="22.1" r="6.3"/>

    <path fill="#906145" stroke="#000000" stroke-width="2" stroke-linecap="round" stroke-linejoin="round" stroke-miterlimit="10" d="
    M31.7,40.9c-1.8,6.8-8.7,10.8-15.5,9c-1.3-0.4-2.5-0.9-3.6-1.6C15,40.1,19,32.5,24.2,25.9C30.1,28.3,33.4,34.7,31.7,40.9z"/>
    <path opacity="0.35" fill="#B2722D" enable-background="new    " d="M15.1,80.2c1.3,3.2,3,6.3,4.8,9.2c-1.7,0.6-3.3,1.4-4.8,2.3
        C11.8,83.9,10,75.4,10,66.4c0-1.9,0.1-3.8,0.3-5.7C10.9,67.5,12.5,74,15.1,80.2z"/>
    <path opacity="0.35" fill="#B2722D" enable-background="new    " d="M135.5,90.2c-9.5,24.1-33,41.2-60.5,41.2
        c-11.4,0-22-2.9-31.3-8c1.9-2.3,3.3-5,4.1-8.1c0.1-0.4,0.2-0.8,0.3-1.3c8.2,3.8,17.3,5.8,26.9,5.8c24.2,0,45.3-13.2,56.5-32.8
        C132.6,88.3,134,89.4,135.5,90.2z"/>
    <path opacity="0.35" fill="#B2722D" enable-background="new    " d="M140,64.2c-0.2,0-0.4,0.1-0.7,0.1c0.2-1.2,0.3-2.4,0.4-3.6
        C139.8,61.9,139.9,63.1,140,64.2z"/>

        <path fill="#906145" stroke="#000000" stroke-width="2" stroke-linecap="round" stroke-linejoin="round" stroke-miterlimit="10" d="
        M48.1,114c-0.1,0.4-0.2,0.8-0.3,1.3c-0.8,3-2.2,5.8-4.1,8.1c-12.8-7-22.9-18.2-28.6-31.8c1.5-1,3.1-1.8,4.8-2.3
        c3.9-1.4,8.3-1.6,12.6-0.4C43.6,91.8,50.4,102.9,48.1,114z"/>

</svg>
