<svg id="m-svg__error-technical-difficulty" viewBox="0 0 153 147" xmlns="http://www.w3.org/2000/svg" xmlns:xlink="http://www.w3.org/1999/xlink">
        <path fill="none" stroke="#000000" stroke-width="5" stroke-miterlimit="10" d="M89.3,65.6c17.2-17.6,19.3-27,16.9-32.3
            c-2.7-6-10.8-6.4-12.6-13.7c-1.5-5.9,1.9-13.3,7.1-15.7c8.5-3.9,22.2,5.8,24.2,15.7c1.5,7.6-4.5,13-1.3,21.2
            c1.4,3.5,3.8,5.9,5.5,7.3"/>
        <path fill="#FFFFFF" stroke="#000000" stroke-width="2" stroke-miterlimit="10" d="M111.3,85.2l-1.7,7.1c-0.4,1.5-1.9,2.4-3.4,2.1
            l-27-6.5c-1.5-0.4-2.4-1.9-2.1-3.4l1.7-7.1c0.4-1.5,1.9-2.4,3.4-2.1l27,6.5C110.7,82.2,111.6,83.7,111.3,85.2z"/>
        <path fill="#D7D7D7" d="M109.6,90.9l-0.3,1.3c-0.2,1-1.2,1.6-2.2,1.4l-28.8-7c-1-0.2-1.6-1.2-1.4-2.2l0.3-1.3
            c0.2-1,1.2-1.6,2.2-1.4l28.8,7C109.3,88.9,109.9,89.9,109.6,90.9z"/>
        <path fill="#FFFFFF" stroke="#000000" stroke-width="2" stroke-miterlimit="10" d="M110.5,72.3l3.4,0.8l-5.8,24l-13.7-3.3
            c-1.8-0.4-2.9-2.3-2.5-4.1l2.5-10.4c0.4-1.8,2.3-2.9,4.1-2.5l3.7,0.9l0.1-0.3C103.1,73.7,106.8,71.4,110.5,72.3z"/>
        <rect x="100.1" y="83.9" transform="matrix(0.2355 -0.9719 0.9719 0.2355 2.8795 174.7247)" fill="#FFFFFF" stroke="#000000" stroke-width="2" stroke-miterlimit="10" width="24.7" height="3.2"/>
        <line fill="none" stroke="#000000" stroke-width="2" stroke-miterlimit="10" x1="102.1" y1="77.7" x2="100.8" y2="83.1"/>
        <line fill="none" stroke="#000000" stroke-width="2" stroke-miterlimit="10" x1="112.4" y1="92.9" x2="110.8" y2="92.5"/>
        <line fill="none" stroke="#000000" stroke-width="2" stroke-miterlimit="10" x1="113.5" y1="88.2" x2="111.9" y2="87.9"/>
        <line fill="none" stroke="#000000" stroke-width="2" stroke-miterlimit="10" x1="114.6" y1="83.6" x2="113.1" y2="83.2"/>
        <line fill="none" stroke="#000000" stroke-width="2" stroke-miterlimit="10" x1="115.7" y1="78.9" x2="114.2" y2="78.6"/>
        <rect x="94.7" y="82" transform="matrix(0.2355 -0.9719 0.9719 0.2355 -9.1102 157.984)" fill="none" stroke="#000000" stroke-width="2" stroke-miterlimit="10" width="2.4" height="5.6"/>
        <path fill="#D7D7D7" stroke="#000000" stroke-width="2" stroke-miterlimit="10" d="M74,124.1l7-2c1.5-0.4,2.3-2,1.9-3.5l-7.7-26.7
            c-0.4-1.5-2-2.3-3.5-1.9l-7,2c-1.5,0.4-2.3,2-1.9,3.5l7.7,26.7C71,123.6,72.5,124.5,74,124.1z"/>
        <path fill="#FFFFFF" stroke="#000000" stroke-width="2" stroke-miterlimit="10" d="M61.1,123.8l1,3.4l23.8-6.8l-3.9-13.6
            c-0.5-1.8-2.4-2.8-4.2-2.3l-10.3,3c-1.8,0.5-2.8,2.4-2.3,4.2l1,3.6l-0.3,0.1C62.2,116.4,60,120.2,61.1,123.8z"/>
        <rect x="62" y="123.7" transform="matrix(-0.9611 0.276 -0.276 -0.9611 180.4391 225.189)" fill="#D7D7D7" stroke="#000000" stroke-width="2" stroke-miterlimit="10" width="24.7" height="3.2"/>
        <line fill="none" stroke="#000000" stroke-width="2" stroke-miterlimit="10" x1="66.1" y1="115.2" x2="71.5" y2="113.7"/>
        <line fill="none" stroke="#000000" stroke-width="2" stroke-miterlimit="10" x1="81.7" y1="124.8" x2="81.3" y2="123.3"/>
        <line fill="none" stroke="#000000" stroke-width="2" stroke-miterlimit="10" x1="77.1" y1="126.2" x2="76.7" y2="124.6"/>
        <line fill="none" stroke="#000000" stroke-width="2" stroke-miterlimit="10" x1="72.5" y1="127.5" x2="72.1" y2="126"/>
        <line fill="none" stroke="#000000" stroke-width="2" stroke-miterlimit="10" x1="67.9" y1="128.8" x2="67.5" y2="127.3"/>
        <rect x="71.7" y="105.9" transform="matrix(-0.9611 0.276 -0.276 -0.9611 173.0227 193.0541)" fill="#D7D7D7" stroke="#000000" stroke-width="2" stroke-miterlimit="10" width="2.4" height="5.6"/>
        <path fill="#929292" d="M57.3,108.1c-0.6,0-1.1-0.2-1.6-0.6L16.3,69.7c-1.7-1.6-2.7-3.8-2.7-6.2c0-2.4,0.8-4.6,2.5-6.3l25.5-26.6
            c1.7-1.8,4-2.7,6.4-2.7c2.3,0,4.5,0.9,6.2,2.5l39.4,37.8c0.4,0.4,0.7,1,0.7,1.6c0,0.6-0.2,1.2-0.6,1.6l-34.7,36.2
            C58.5,107.9,57.9,108.1,57.3,108.1z"/>
        <path d="M48,28.8L48,28.8c2.1,0,4,0.8,5.5,2.2l39.4,37.8c0.5,0.5,0.5,1.3,0,1.8l-34.7,36.2c-0.2,0.2-0.6,0.4-0.9,0.4
            c-0.3,0-0.6-0.1-0.9-0.3L17,69c-1.5-1.5-2.4-3.4-2.4-5.5c0-2.1,0.7-4.1,2.2-5.6l25.5-26.6C43.8,29.7,45.8,28.8,48,28.8 M48,26.8
            c-2.6,0-5.2,1-7.1,3L15.4,56.4c-3.8,3.9-3.6,10.2,0.3,14l39.4,37.8c0.6,0.6,1.4,0.9,2.2,0.9c0.9,0,1.7-0.3,2.3-1L94.4,72
            c1.2-1.3,1.2-3.4-0.1-4.6L54.8,29.6C52.9,27.7,50.4,26.8,48,26.8L48,26.8z"/>
        <path fill="#FFFFFF" stroke="#000000" stroke-width="2" stroke-miterlimit="10" d="M77.6,37.6L77.6,37.6c0.4,0.4,0.7,0.9,0.9,1.5
            l0.3,1.3c0.2,0.8,0.1,1.6-0.3,2.3c-0.4,0.8-1.2,1.4-2.1,1.6L72,45.3l-1.8-7.5l0,0l4.4-1.1C75.6,36.4,76.8,36.8,77.6,37.6z"/>
        <path fill="#FFFFFF" stroke="#000000" stroke-width="2" stroke-linejoin="round" stroke-miterlimit="10" d="M84.5,44.9
            c0.8-0.2,1.6-0.2,2.3,0.1l3.9,1.1c0.7,0.2,1.5-0.1,1.7-0.8c0.2-0.7-0.1-1.5-0.8-1.7l-4.2-1.5l8-0.3c0.7,0,1.3-0.6,1.3-1.3
            c0-0.7-0.6-1.3-1.3-1.3l-6.8,0l8.2-1.9c0.7-0.2,1.2-0.9,1-1.6c-0.2-0.7-0.9-1.2-1.6-1l-8.2,1.9l6.5-3c0.7-0.3,1-1.1,0.7-1.8
            c-0.3-0.7-1.1-1-1.8-0.7l-9.4,3.6l1.7-3.1c0.4-0.6,0.1-1.5-0.5-1.8c-0.6-0.4-1.5-0.1-1.8,0.5l-5,5.9c-0.6,0.9-0.8,2-0.6,3.1
            c0.1,0.6,0.5,2.4,0.7,3C79,45.2,81.6,45.5,84.5,44.9z"/>
        <path fill="#FFFFFF" stroke="#000000" stroke-width="2" stroke-linejoin="round" stroke-miterlimit="10" d="M32.2,99.4
            c-0.1,0.8-0.1,1.6,0.2,2.3l1.2,3.9c0.3,0.7-0.1,1.5-0.8,1.7c-0.7,0.3-1.5-0.1-1.7-0.8l-1.7-4.2l0,8c0,0.7-0.6,1.4-1.3,1.4
            c-0.7,0-1.4-0.6-1.4-1.3l-0.3-6.8l-1.5,8.3c-0.1,0.7-0.8,1.2-1.6,1.1s-1.2-0.8-1.1-1.6l1.5-8.3l-2.7,6.6c-0.3,0.7-1.1,1-1.7,0.7
            c-0.7-0.3-1-1.1-0.7-1.7l3.2-9.5l-3,1.8c-0.6,0.4-1.4,0.2-1.8-0.4c-0.4-0.6-0.2-1.4,0.4-1.8l5.7-5.3c0.9-0.6,2-0.9,3.1-0.7
            c0.6,0.1,2.4,0.4,3.1,0.6C32.3,93.9,32.7,96.5,32.2,99.4z"/>
        <path fill="#FFFFFF" stroke="#000000" stroke-width="2" stroke-miterlimit="10" d="M34.4,90.2l-0.4,2.1c-0.2,1.2-1.3,2.1-2.5,2.2
            c-0.3,0-0.5,0-0.8,0l-3.2-0.6l-1.3-0.3l-2.5-0.5L22.9,93c-1.5-0.3-2.5-1.8-2.2-3.3l0.4-2.1c0.3-1.5,1.8-2.5,3.3-2.2l0.1,0
            l7.6,1.5l0.1,0C33.7,87.3,34.7,88.7,34.4,90.2z"/>
        <path fill="none" stroke="#000000" stroke-width="2" stroke-miterlimit="10" d="M70.2,37.8l1.8,7.5l-8.4,2l19.9,19.1
            c7.2,6.9,6.4,19.5-1.9,28s-20.7,9.9-27.9,3L33.8,78.4l-1.7,8.5l-7.6-1.5l3-14.8c0.3-1.7,2.1-2.9,3.8-2.5l0.5,0.1l21.5-22.4
            l-0.1-0.5c-0.4-1.7,0.6-3.5,2.4-3.9L70.2,37.8z"/>
        <path fill="none" stroke="#000000" stroke-width="5" stroke-miterlimit="10" d="M136.8,56c16,16,3.3,26-1,30
            c-2.2,2.1-4.6,3.7-7.3,6.4c-5.2,5.3-9.7,15.3-6.4,23.9c3.7,9.6,16.4,15.7,29.5,12"/>
        <line fill="none" stroke="#000000" stroke-width="2" stroke-miterlimit="10" x1="126.8" y1="48" x2="129.8" y2="51"/>
        <line fill="none" stroke="#000000" stroke-width="2" stroke-miterlimit="10" x1="132.5" y1="55.5" x2="136.2" y2="57.5"/>
        <line fill="none" stroke="#000000" stroke-miterlimit="10" x1="135.5" y1="55.4" x2="139.2" y2="57.6"/>
        <line fill="none" stroke="#000000" stroke-width="2" stroke-miterlimit="10" x1="128.8" y1="48" x2="133" y2="50.8"/>
        <line fill="none" stroke="#000000" stroke-width="2" stroke-miterlimit="10" x1="136.3" y1="51.7" x2="138.4" y2="55.3"/>
        <line fill="none" stroke="#000000" stroke-width="2" stroke-miterlimit="10" x1="128.4" y1="45.7" x2="132.3" y2="47.3"/>
        <path fill="#FFFFFF" stroke="#000000" stroke-width="2" stroke-miterlimit="10" d="M70.2,37.8l1.8,7.5l-8.4,2l19.9,19.1
            c7.2,6.9,6.4,19.5-1.9,28s-20.7,9.9-27.9,3L33.8,78.4l-1.7,8.5l-7.6-1.5l3-14.8c0.3-1.7,2.1-2.9,3.8-2.5l0.5,0.1l21.5-22.4
            l-0.1-0.5c-0.4-1.7,0.6-3.5,2.4-3.9L70.2,37.8z"/>
        <path fill="#D7D7D7" d="M82.4,64.4l-0.1-0.1c8.4,8.4,8.4,22.1,0,30.5s-22.1,8.4-30.5,0L35,78L82.4,64.4z"/>
        <path fill="#FFFFFF" d="M80.6,62.9l1.8,3.1c6.7,7.4,2,18.3-5.4,25.1c-7.4,6.7-18.1,6-26.8-0.6L32,76L80.6,62.9z"/>
        <path fill="none" stroke="#000000" stroke-width="2" stroke-miterlimit="10" d="M70.2,37.8l1.8,7.5l-8.4,2l19.9,19.1
            c7.2,6.9,6.4,19.5-1.9,28s-20.7,9.9-27.9,3L33.8,78.4l-1.7,8.5l-7.6-1.5l3-14.8c0.3-1.7,2.1-2.9,3.8-2.5l0.5,0.1l21.5-22.4
            l-0.1-0.5c-0.4-1.7,0.6-3.5,2.4-3.9L70.2,37.8z"/>
        <path fill="#F39612" d="M62.7,89.6c0,0-0.1,0-0.2-0.1L45,72.8c-0.1-0.1-0.1-0.3,0-0.5l12.9-13.5c0.1-0.1,0.2-0.1,0.2-0.1
            c0,0,0.1,0,0.2,0.1l17.4,16.7c0.1,0.1,0.1,0.2,0.1,0.2c0,0.1,0,0.1-0.1,0.2L62.9,89.5C62.8,89.6,62.7,89.6,62.7,89.6z"/>
        <path d="M58.2,60l16.5,15.8l-12,12.5L46.2,72.5L58.2,60 M58.2,57.8c-0.3,0-0.7,0.1-1,0.4L44.3,71.6c-0.5,0.5-0.5,1.4,0,1.9
            l17.4,16.7c0.3,0.2,0.6,0.4,0.9,0.4c0.3,0,0.7-0.1,1-0.4l12.9-13.5c0.5-0.5,0.5-1.4,0-1.9L59.1,58.1
            C58.8,57.9,58.5,57.8,58.2,57.8L58.2,57.8z"/>
        <path fill="#B3040F" d="M53.1,75c-0.5,0-1-0.2-1.3-0.5c-0.4-0.4-0.6-0.8-0.6-1.4c0-0.5,0.2-1,0.5-1.4c0.4-0.4,0.9-0.6,1.4-0.6
            c0.5,0,1,0.2,1.3,0.5C54.8,72,55,72.5,55,73c0,0.5-0.2,1-0.5,1.4C54.1,74.8,53.6,75,53.1,75z"/>
        <path d="M53.1,71.6L53.1,71.6c0.4,0,0.7,0.1,1,0.4c0.6,0.5,0.6,1.5,0,2c-0.3,0.3-0.6,0.4-1,0.4c-0.4,0-0.7-0.1-1-0.4
            c-0.3-0.3-0.4-0.6-0.4-1c0-0.4,0.1-0.7,0.4-1C52.3,71.7,52.7,71.6,53.1,71.6 M53.1,70.6c-0.6,0-1.3,0.3-1.8,0.8
            c-0.9,1-0.9,2.5,0.1,3.4c0.5,0.5,1.1,0.7,1.7,0.7c0.6,0,1.3-0.3,1.8-0.8c0.9-1,0.9-2.5-0.1-3.4C54.3,70.8,53.7,70.6,53.1,70.6
            L53.1,70.6z"/>
        <path fill="#0075C3" stroke="#000000" stroke-miterlimit="10" d="M60.7,68.6l-1.7,1.8c-0.9,1-2.5,1-3.4,0.1l0,0
            c-1-0.9-1-2.5-0.1-3.4l1.7-1.8c0.9-1,2.5-1,3.4-0.1l0,0C61.6,66,61.7,67.6,60.7,68.6z"/>
        <line fill="none" stroke="#000000" stroke-miterlimit="10" x1="56.6" y1="66.3" x2="59.9" y2="69.4"/>
        <path fill="#98D5FF" stroke="#000000" stroke-miterlimit="10" d="M71,76.7l-7.6,7.9c-0.5,0.5-1.2,0.5-1.7,0l-5.3-5
            c-0.5-0.5-0.5-1.2,0-1.7L64,70c0.5-0.5,1.2-0.5,1.7,0l5.3,5C71.5,75.5,71.5,76.3,71,76.7z"/>
        <line fill="none" stroke="#000000" stroke-miterlimit="10" x1="58.7" y1="75.9" x2="65.8" y2="82.7"/>
        <line fill="none" stroke="#000000" stroke-miterlimit="10" x1="62.1" y1="72.4" x2="69.2" y2="79.2"/>
        <line fill="none" stroke="#000000" stroke-miterlimit="10" x1="58" y1="80.7" x2="67.3" y2="71"/>
        <line fill="none" stroke="#000000" stroke-miterlimit="10" x1="60.4" y1="83.4" x2="69.7" y2="73.8"/>
        <path fill="#FFFFFF" stroke="#000000" stroke-width="2" stroke-miterlimit="10" d="M53.8,48.7L34.7,68.6c-1.7,1.8-4.6,1.9-6.4,0.1
            l-0.9-0.9c-1.8-1.7-1.9-4.6-0.1-6.4l19.1-19.9c1.7-1.8,4.6-1.9,6.4-0.1l0.9,0.9C55.4,44,55.5,46.9,53.8,48.7z"/>
        <path fill="#FFFFFF" d="M25.6,63.1c-6.2,0-12.1-2.4-16.7-6.8c-4.6-4.4-7.2-10.2-7.5-16.4c-0.3-6.2,1.9-12,6.1-16.4
            c4.2-4.4,10-6.8,16.2-6.8c6.2,0,12.1,2.4,16.7,6.8c4.6,4.4,7.2,10.2,7.5,16.4c0.3,6.2-1.9,12-6.1,16.4
            C37.5,60.7,31.8,63.1,25.6,63.1z"/>
        <path d="M23.7,15.6v2h0c5.9,0,11.6,2.3,16,6.5c9,8.7,9.6,22.8,1.3,31.4c-4,4.2-9.5,6.5-15.4,6.5c-5.9,0-11.6-2.3-16-6.5
            c-4.4-4.2-6.9-9.8-7.2-15.8c-0.2-5.9,1.8-11.5,5.9-15.7c4-4.2,9.5-6.5,15.4-6.5L23.7,15.6 M23.7,15.6c-6.2,0-12.3,2.4-16.9,7.1
            C-2.3,32.2-1.7,47.6,8.2,57c4.9,4.7,11.2,7.1,17.4,7.1c6.2,0,12.3-2.4,16.9-7.1c9.1-9.5,8.5-24.8-1.4-34.3
            C36.2,18,29.9,15.6,23.7,15.6L23.7,15.6z"/>
        <ellipse transform="matrix(0.6921 -0.7218 0.7218 0.6921 -21.175 30.0562)" cx="24.6" cy="39.8" rx="19.9" ry="20.7"/>
        <path fill="none" stroke="#FFFFFF" stroke-width="3" stroke-linecap="round" stroke-linejoin="round" stroke-miterlimit="10" d="
            M9.2,31.2c4.9-9.7,17.9-10.1,23.3-7"/>
        <path fill="#FFFFFF" d="M8.1,35.8c1.9,0,1.9-3,0-3C6.2,32.8,6.2,35.8,8.1,35.8L8.1,35.8z"/>
        <path fill="#FFFFFF" stroke="#000000" stroke-width="2" stroke-miterlimit="10" d="M77.6,35.9l0.2,0.8l0.6,2.4l0.3,1.3l0.8,3.2
            c0.1,0.3,0.1,0.6,0.1,0.8c-0.1,1.2-0.9,2.3-2.1,2.6l-2.1,0.5c-1.5,0.4-3-0.6-3.4-2.1l0-0.1l-1.8-7.5l0,0l0-0.1
            c-0.4-1.5,0.6-3,2.1-3.4l2.1-0.5C75.8,33.4,77.3,34.4,77.6,35.9z"/>
        <path fill="none" stroke="#000000" stroke-width="2" stroke-miterlimit="10" d="M77.6,35.9l0.2,0.8l0.6,2.4l0.3,1.3l0.8,3.2
            c0.1,0.3,0.1,0.6,0.1,0.8c-0.1,1.2-0.9,2.3-2.1,2.6l-2.1,0.5c-1.5,0.4-3-0.6-3.4-2.1l0-0.1l-1.8-7.5l0,0l0-0.1
            c-0.4-1.5,0.6-3,2.1-3.4l2.1-0.5C75.8,33.4,77.3,34.4,77.6,35.9z"/>
        <ellipse transform="matrix(0.82 -0.5724 0.5724 0.82 -56.5006 59.1507)" fill="#D7D7D7" cx="65.8" cy="119.4" rx="4" ry="2"/>
        <ellipse opacity="0.5" fill="#D7D7D7" cx="76" cy="144.5" rx="75" ry="2.5"/>
    </svg>
