<svg version="1.1" xmlns="http://www.w3.org/2000/svg" width="24" height="24" viewBox="0 0 24 24">
<path stroke="currentColor" fill="none" d="M1.3,23.5h21.5c0.6,0,1-0.7,0.7-1.2L12.7,0.9c-0.3-0.6-1.2-0.6-1.4,0L0.6,22.4C0.3,22.8,0.7,23.5,1.3,23.5z"/>
<path fill="currentColor" d="M12,16.2c0.5,0,0.9-0.4,0.9-0.9V7.9C12.9,7.4,12.5,7,12,7s-0.9,0.4-0.9,0.9v7.4C11.1,15.8,11.5,16.2,12,16.2z"/>
<path fill="currentColor" d="M13.4,19.5c0,0.8-0.6,1.4-1.4,1.4s-1.4-0.6-1.4-1.4s0.6-1.4,1.4-1.4S13.4,18.7,13.4,19.5z"/>
</svg>
